<mxfile host="65bd71144e">
    <diagram id="QM_k_K8gLVxwbGMwPX3m" name="Page-1">
        <mxGraphModel dx="777" dy="373" grid="1" gridSize="10" guides="1" tooltips="1" connect="1" arrows="1" fold="1" page="1" pageScale="1" pageWidth="827" pageHeight="1169" math="0" shadow="0">
            <root>
                <mxCell id="0"/>
                <mxCell id="1" parent="0"/>
                <mxCell id="CFzgTbQgZ9hoMS-vuHT--10" value="" style="group" parent="1" vertex="1" connectable="0">
                    <mxGeometry x="348" y="21" width="104" height="110" as="geometry"/>
                </mxCell>
                <mxCell id="CFzgTbQgZ9hoMS-vuHT--8" value="" style="shape=image;verticalLabelPosition=bottom;labelBackgroundColor=default;verticalAlign=top;aspect=fixed;imageAspect=0;image=data:image/png,iVBORw0KGgoAAAANSUhEUgAAAeYAAALECAYAAADdH5NvAAAMamlDQ1BJQ0MgUHJvZmlsZQAASImVVwdUU8kanluSkJDQAhGQEnoTRHqREkKLICBVEJWQBBJKCAlBxY4uKrh2EcWKrorYVldAFhWxK4tg74sFFWVd1EVRVN6EBHTdV877z5k7X7755293JncGAM0+rkSSg2oBkCsukMaGBTEnJqcwSU8BDjDAAN6AyeXJJKyYmEgAZaj/u7y7ARBFf9VRYeuf4/9VdPgCGQ8AJBXidL6MlwtxEwD4Rp5EWgAAUcFbTCuQKPA8iHWlMECI1yhwphLvVuB0JW4c1ImPZUPcBoAalcuVZgKgcQ/yzEJeJrSj8QliZzFfJAZAcxTE/jwhlw+xIvZRubl5ClwBsS3Ul0AM4wFe6d/YzPyb/fRh+1xu5jBW5jUoasEimSSHO+P/LM3/ltwc+ZAPa9ioQml4rCJ/WMNb2XkRCkyFuFucHhWtqDXEfSK+su4AoBShPDxBqY8a8WRsWD/4zgHqzOcGR0BsBHGoOCcqUsWnZ4hCORDD1YJOFxVw4iHWh3ixQBYSp9LZKs2LVflCazOkbJaKP8+VDvpV+Hogz05gqey/EQo4KvuYRpEwPgliCsSWhaLEKIg1IHaSZcdFqHTGFgnZUUM6UnmsIn5LiGMF4rAgpX2sMEMaGqvSL82VDeWLbRWKOFEqfKhAGB+urA92mscdjB/mgrUJxKyEITsC2cTIoVz4guAQZe7Yc4E4IU5lp09SEBSrnItTJDkxKn3cXJATpuDNIXaTFcap5uKJBXBxKu3jGZKCmHhlnHhRFndcjDIefAWIBGwQDJhADls6yANZQNTaXdcNfylHQgEXSEEmEABHFTM0I2lwRAyfcaAI/AGRAMiG5wUNjgpAIeQ/D7PKpyPIGBwtHJyRDZ5CnAsiQA78LR+cJR72lgieQEb0D+9c2Hgw3hzYFOP/nh9ivzIsyESqGPmQR6bmkCYxhBhMDCeGEu1wQ9wf98Uj4TMQNhfcC/ceyuOrPuEpoZ3wiHCd0EG4PVVULP0uyvGgA9oPVdUi/dta4NbQpjsehPtB69AyzsANgSPuBv2w8ADo2R2ybFXciqowv7P9twy+eRsqPbIzGSWPIAeSbb+fqWGv4T5sRVHrb+ujjDV9uN7s4ZHv/bO/qT4f9hHfa2KLscPYOewkdgFrxOoAEzuB1WMt2DEFHl5dTwZX15C32MF4sqEd0T/8Db1ZRSVlzjXOXc6flGMFgukFio3HzpPMkIoyhQVMFvw6CJgcMc9pFNPF2cUFAMW3Rvn39ZYx+A1BGBe/cvlNAHiXQjLzK8e1AODoUwDo775yFm/gtlkBwLE2nlxaqORwxYMA/yU04U4zACbAAtjCfFyAB/AFgSAEjAPRIB4kgykweiFc51IwDcwC80EJKAMrwFqwAWwB28FusA8cAnWgEZwEZ8El0Aaug7tw9XSCl6AHvAP9CIKQEBpCRwwQU8QKcUBcEC/EHwlBIpFYJBlJQzIRMSJHZiELkDJkFbIB2YZUIz8jR5GTyAWkHbmNPES6kDfIRxRDqaguaoxao6NRL5SFRqDx6GQ0E81Hi9CF6DK0Aq1C96K16En0Enod7UBfor0YwNQxBmaGOWJeGBuLxlKwDEyKzcFKsXKsCtuPNcD3fBXrwLqxDzgRp+NM3BGu4HA8Aefh+fgcfCm+Ad+N1+Kn8av4Q7wH/0KgEYwIDgQfAocwkZBJmEYoIZQTdhKOEM7AvdRJeEckEhlEG6In3IvJxCziTOJS4ibiAWITsZ34mNhLIpEMSA4kP1I0iUsqIJWQ1pP2kk6QrpA6SX1q6mqmai5qoWopamK1YrVytT1qx9WuqD1T6ydrka3IPuRoMp88g7ycvIPcQL5M7iT3U7QpNhQ/SjwlizKfUkHZTzlDuUd5q66ubq7urT5BXaQ+T71C/aD6efWH6h+oOlR7KpuaSpVTl1F3UZuot6lvaTSaNS2QlkIroC2jVdNO0R7Q+jToGk4aHA2+xlyNSo1ajSsarzTJmlaaLM0pmkWa5ZqHNS9rdmuRtay12FpcrTlalVpHtW5q9WrTtcdoR2vnai/V3qN9Qfu5DknHWidEh6+zUGe7zimdx3SMbkFn03n0BfQd9DP0Tl2iro0uRzdLt0x3n26rbo+ejp6bXqLedL1KvWN6HQyMYc3gMHIYyxmHGDcYH0cYj2CNEIxYMmL/iCsj3uuP1A/UF+iX6h/Qv67/0YBpEGKQbbDSoM7gviFuaG84wXCa4WbDM4bdI3VH+o7kjSwdeWjkHSPUyN4o1mim0XajFqNeYxPjMGOJ8XrjU8bdJgyTQJMskzUmx026TOmm/qYi0zWmJ0xfMPWYLGYOs4J5mtljZmQWbiY322bWatZvbmOeYF5sfsD8vgXFwssiw2KNRbNFj6Wp5XjLWZY1lnesyFZeVkKrdVbnrN5b21gnWS+yrrN+bqNvw7EpsqmxuWdLsw2wzbetsr1mR7Tzssu222TXZo/au9sL7SvtLzugDh4OIodNDu2jCKO8R4lHVY266Uh1ZDkWOtY4PnRiOEU6FTvVOb0abTk6ZfTK0edGf3F2d85x3uF8d4zOmHFjisc0jHnjYu/Cc6l0ueZKcw11neta7/razcFN4LbZ7ZY73X28+yL3ZvfPHp4eUo/9Hl2elp5pnhs9b3rpesV4LfU6703wDvKe693o/cHHw6fA55DPn76Ovtm+e3yfj7UZKxi7Y+xjP3M/rt82vw5/pn+a/1b/jgCzAG5AVcCjQItAfuDOwGcsO1YWay/rVZBzkDToSNB7tg97NrspGAsOCy4Nbg3RCUkI2RDyINQ8NDO0JrQnzD1sZlhTOCE8Inxl+E2OMYfHqeb0jPMcN3vc6QhqRFzEhohHkfaR0siG8ej4ceNXj78XZRUljqqLBtGc6NXR92NsYvJjfp1AnBAzoXLC09gxsbNiz8XR46bG7Yl7Fx8Uvzz+boJtgjyhOVEzMTWxOvF9UnDSqqSOiaMnzp54KdkwWZRcn0JKSUzZmdI7KWTS2kmdqe6pJak3JttMnj75whTDKTlTjk3VnMqdejiNkJaUtiftEzeaW8XtTeekb0zv4bF563gv+YH8NfwugZ9gleBZhl/GqoznmX6ZqzO7hAHCcmG3iC3aIHqdFZ61Jet9dnT2ruyBnKScA7lquWm5R8U64mzx6TyTvOl57RIHSYmkI98nf21+jzRCulOGyCbL6gt04aG+RW4r/0H+sNC/sLKwb1ritMPTtaeLp7fMsJ+xZMazotCin2biM3kzm2eZzZo/6+Fs1uxtc5A56XOa51rMXTi3c17YvN3zKfOz5/9W7Fy8qvivBUkLGhYaL5y38PEPYT/UlGiUSEtuLvJdtGUxvli0uHWJ65L1S76U8ksvljmXlZd9WspbevHHMT9W/DiwLGNZ63KP5ZtXEFeIV9xYGbBy9yrtVUWrHq8ev7p2DXNN6Zq/1k5de6HcrXzLOso6+bqOisiK+vWW61es/7RBuOF6ZVDlgY1GG5dsfL+Jv+nK5sDN+7cYbynb8nGraOutbWHbaqusq8q3E7cXbn+6I3HHuZ+8fqreabizbOfnXeJdHbtjd5+u9qyu3mO0Z3kNWiOv6dqburdtX/C++v2O+7cdYBwoOwgOyg+++Dnt5xuHIg41H/Y6vP8Xq182HqEfKa1FamfU9tQJ6zrqk+vbj4472tzg23DkV6dfdzWaNVYe0zu2/Djl+MLjAyeKTvQ2SZq6T2aefNw8tfnuqYmnrp2ecLr1TMSZ82dDz546xzp34rzf+cYLPheOXvS6WHfJ41Jti3vLkd/cfzvS6tFae9nzcn2bd1tD+9j241cCrpy8Gnz17DXOtUvXo66330i4cetm6s2OW/xbz2/n3H59p/BO/9159wj3Su9r3S9/YPSg6ne73w90eHQcexj8sOVR3KO7j3mPXz6RPfnUufAp7Wn5M9Nn1c9dnjd2hXa1vZj0ovOl5GV/d8kf2n9sfGX76pc/A/9s6ZnY0/la+nrgzdK3Bm93/eX2V3NvTO+Dd7nv+t+X9hn07f7g9eHcx6SPz/qnfSJ9qvhs97nhS8SXewO5AwMSrpQ7eBTAYEMzMgB4swsAWjI8O8B7G2WS8i44KIjy/jqIwH/CyvvioHgAsCsQgIR5AETCM8pm2KwgpsJecYSPDwSoq+twU4ksw9VFaYsKb0KEvoGBt8YAkBoA+CwdGOjfNDDweQcM9jYATfnKO6hCiPDOsNVJgdo6f+8B34nyfvpNjt/3QBGBG/i+/xe/XpBvl/0/xwAAAIplWElmTU0AKgAAAAgABAEaAAUAAAABAAAAPgEbAAUAAAABAAAARgEoAAMAAAABAAIAAIdpAAQAAAABAAAATgAAAAAAAACQAAAAAQAAAJAAAAABAAOShgAHAAAAEgAAAHigAgAEAAAAAQAAAeagAwAEAAAAAQAAAsQAAAAAQVNDSUkAAABTY3JlZW5zaG90Ot2H+AAAAAlwSFlzAAAWJQAAFiUBSVIk8AAAAdZpVFh0WE1MOmNvbS5hZG9iZS54bXAAAAAAADx4OnhtcG1ldGEgeG1sbnM6eD0iYWRvYmU6bnM6bWV0YS8iIHg6eG1wdGs9IlhNUCBDb3JlIDYuMC4wIj4KICAgPHJkZjpSREYgeG1sbnM6cmRmPSJodHRwOi8vd3d3LnczLm9yZy8xOTk5LzAyLzIyLXJkZi1zeW50YXgtbnMjIj4KICAgICAgPHJkZjpEZXNjcmlwdGlvbiByZGY6YWJvdXQ9IiIKICAgICAgICAgICAgeG1sbnM6ZXhpZj0iaHR0cDovL25zLmFkb2JlLmNvbS9leGlmLzEuMC8iPgogICAgICAgICA8ZXhpZjpQaXhlbFlEaW1lbnNpb24+NzA4PC9leGlmOlBpeGVsWURpbWVuc2lvbj4KICAgICAgICAgPGV4aWY6UGl4ZWxYRGltZW5zaW9uPjQ4NjwvZXhpZjpQaXhlbFhEaW1lbnNpb24+CiAgICAgICAgIDxleGlmOlVzZXJDb21tZW50PlNjcmVlbnNob3Q8L2V4aWY6VXNlckNvbW1lbnQ+CiAgICAgIDwvcmRmOkRlc2NyaXB0aW9uPgogICA8L3JkZjpSREY+CjwveDp4bXBtZXRhPgr6HWt3AAAAHGlET1QAAAACAAAAAAAAAWIAAAAoAAABYgAAAWIAALqIOza+iQAAQABJREFUeAHs3Ym3bktV3/1tek0EDIhKI+cifRdplCZRQ+hkBCHSx5g/LslIRjoiQXqlHUDo+x5EpA+IaBTT533PZ937vUwWzz7d3d05p2qM2lU1a9asWXM9e/5W1apV68f+v8vhaIVlgWWBZYFlgWWBZYELYYEfW8B8Ia7DUmJZYFlgWWBZYFlgs8AC5vVDWBZYFlgWWBZYFrhAFljAfIEuxlJlWWBZYFlgWWBZYAHz+g0sCywLLAssCywLXCALLGC+QBdjqbIssCywLLAssCywgHn9BpYFlgWWBZYFlgUukAUWMF+gi7FUWRZYFlgWWBZYFljAvH4DywLLAssCywLLAhfIAguYL9DFWKosCywLLAssCywLLGBev4FlgWWBZYFlgWWBC2SBBcwX6GIsVZYFlgWWBZYFlgUWMK/fwLLAssCywLLAssAFssAC5gt0MW5Elb5B8mM/9mNb8335ajKP4z+OfjV5q35ZYFlgWWBZ4J5ZYAHzPbPfmbXeA2Xl0kPAHI2Se75okx4/2iF6baSF2lQurX3lPV/1e3r8pdfKF/9x6V7Ovly76JWvpl98K10WWBZYFjgpCyxgPilLnrKcPWDUXfQAZF+Ob6aTd/IfR9f2//2//3f0f//v/91S+RmTUZocafGv/JW/ciT+1b/6V7e0crxTv5nfy5x115onY8rR5yxPOdEn7Wo6Tt6VXxZYFlgWuKcWWMB8Ty14hu2vBDB7NSbAXAuw7Hlqjw6Q/+f//J9H/+t//a+7Y+X//b//99H/+T//ZwPq2gS6gfBf+2t/7eiv//W/fvQ3/sbfOPqbf/NvHv2tv/W3thSNfLG2jeM4fY6rj56c2R5t0md/8c36vSzl+Kpb6bLAssCywGlZYAHzaVn2FOQeApi6CVgOlY8DFbNewApwAe0ebAEuUJZWFzhX1r6ZdDroL1CWAmYxYA6cAXN8zaYDcTz4A3R5vIXjxjR1iDeacu2i7cuTR37Ph7bCssCywLLAaVpgAfNpWvcUZAcUe9EA5ri6PW/l//E//sfRn//5nx9997vfPfqv//W/Hn3nO985+pM/+ZOjP/uzPzv6i7/4i6Pvf//7R3iA76GlbP0VyZz9B3jSZtDysxxgA19A/BM/8RNHP/mTP3l0n/vc5+jv/t2/e/RTP/VTR/e+97239H73u99Wrx8yZl9oBXUzTL7qps5ok17baJVXuiywLLAscFYWWMB8VpY+4X4m4BAdkESvrA6w/vf//t/vjsDWjBf4AmFg/O1vf/voj//4j4++973vHf23//bftrq//Mu/3IDZjLmwl6+f2deer7I0QEwGwJ4z5B//8R8/+jt/5+9sYAyYAfS97nWvu4H5b//tv/1DM29L4i2LN6Oe+tTP1KF8dZM/HeM5NK7qVrossCywLHBaFljAfFqWvSByAZBZ8Te+8Y2jr3/961v81re+tc2OgTKQtjwNfMU2dbU8LQ3EDGnmJ6gFYrM+E6AV41NX+9Jm1nP5W77lbCBsVg2w73//+x/93M/93NEDHvCAo5/+6Z/eaIAdP3nH6ZFO6VEaXTrbHqqfvCu/LLAssCxw0hZYwHzSFj1jeYFIYARYW6I2IzbrNSMGzIEzYLZ8baka8AoALUAM3AKlUnz1Jx+9FE2YPHdSfkA7xItfpHtpNwjR0AE0YLa8DYx/5md+ZgNneTNss23gvI9m5Xu96LHXZa+r8nE88a50WWBZYFngpC2wgPmkLXpK8gCTMIECbdKBmCVqy9Kf/exnj770pS8dfe1rX9tAuGXpnhk3I57qBlazj2iT72r5dIovGclN75nGO1P1xlTQvuXvlsB7Pm02bdnbs2gz6Z//+Z8/etCDHnT0sz/7s9tzazKmXumS7FkXbc8TfaXLAssCywKnaYEFzKdp3ROUfQg4gBaABbaeC4uWp82MP//5zx99+ctf3pau0fECGnE/M6bmXv4s1+4Q36Ehzrbqay8V1M+4Ee/6E2981aHXxpiLPf82JrNpM2dgDJgf+MAHbiBt6dssWr1ZNRAH7ED+uJCux9Uv+rLAssCywGlZYAHzaVn2FOQGeBOgPB8GxJ/4xCeO/uAP/mDLW7q22Qtgm0EDMSHQkwZKyZx1yW8Ih0Cqdod49nXxHKLvZe959nq5wcBTmmwpXgBtFg2IAbDU7m6z6Ic85CFHD3/4wzfgBtA2jBXqp3J67PWrfqXLAssCywKnZYEFzKdl2VOQG1gA3D/90z+9O37lK1/ZgPkP//APt9eeLFubETYrBMJ74FEmL5n7+kk/NJTqq7sSgNWPNL7S2l8pnbz1O2VpC6jFZtITuL2C1Sz6YQ972LZhrFexLH+bSTeLTo/6mX1Xt9JlgWWBZYHTtMAC5tO07gnKDiiI9Az5k5/85NHnPve57Tmyd5DtvO75Md7AuHSvSoCDd8rGVxlP7QHdjYbkaU9mfStPufu6fb0yfQS8yZUWt8rLfyqTbxZtdtzBJoDas2jL3Y9+9KO3mXTvSadbsisnd6XLAssCywKnbYEFzKdt4ROQ7zlq7x1bpjZDBsyeI//RH/3R9mx5PjcOTHUdsARkE3Ci4YteWtuAEF1MnvprCXt5s30yk6PuuPr6jkc628/65KEB5qLZtHe6LXXb2e0Z9CMf+cijS5cuba9f3fe+991eu/K+NBC34iBMnZK90mWBZYFlgdOywALm07LsCcq1NO3wjy9+8YtHH/jAB7ZZcqdzeZYMcACzOIGUCoHKHsj29KluvJMG5ITZTjm6/LWEPX/y9m3ju9F68pIhnZFMdjKLtoTdaWNm0I973OOO7rjjjm3pG0AXjtOj+pUuCywLLAuclAUWMJ+UJU9BjlmyHdWWqs2MP/OZzxx98IMfPPrmN7+5AWQz44CmMlUCogBFGi1Vq6ssnTT8Qql89clDu56QLCkZRTLQqk/mvj6+WV9+X6es/Z6uD7NoNzQ2z+GxScxhJZa2f+EXfmF71cohJmbWALqTxTZhl/+kZ/KvRq9+pcsCywLLAlezwALmq1nohOtz6InNsUefZWdXf/rTn94AGSg7ucuzZEvbzY5rR15tpdHlo+NBr05ZmPV3Un70b232vMfR8VUnPa5dNxN4iuk0ZfyoRtdHSVZ96FeeLaXsaYnbDNqGMIeWPPShDz36xV/8xaNLl5e6bRZTJyRDntzGdoiOFt+W2f2pPvKUdaV28a90WWBZ4NazwALmM76mV3PE1LE87WQuu6w/8pGPbMAsD5TN3AAIIOHEzfxmmI69/Kwvnx5X4on3ailZ1yonvkP9R9Pf5Lse+cfpmjyzZIH9BPYjXwTSZtDqvE714Ac/+OgJT3jCNoP2uhWwDqDTlVyxcumeXv9bp5f/xFdafbImvbrarnRZYFng1rbAAuZzvr7TAcuLZsbvf//7tw1e3k02c7asrQ4om+0JtZVv5hl91s28eiFnX4oWnzR6qXqhG4FDOsSrfbKi3dn6B/3Gs6+/Xr74r5bqR5+H9E/XdCLL+NwEWcZuB/ejHvWooyc/+cnbkjceMpObjMZTim8fph7JwFObqces38tZ5WWBZYFb0wILmM/xuubMqcAB2+QFhB2n+e53v3t7HcrMGSgD5N5LxnvIeU/HTubkUZ4h3lJ1e351sx7PIWBDL+CfcpKhXXm8k0d5309lfCcZprz6ID86mjx9m0F7/uxcboeTPOlJT9qWuJ0wZtOYOjPsaZcp95DuyVeHN/5S9VOf6IdkLdqywLLArWeBBcxndE2no9VlZfkc71e/+tWj97znPUcf+9jHth3YQDk+zt8s7tBMlYwCfvKSqRwtHulxtOqkU46yoJ2QHgHSRhz0+NIjvtpVX7t9OT71+7raXE+ajORWTj8pWkvd9UtvdW6MgLDNYHdc3rUNoB/xiEdsJ4pZ9p7ykpkM6aRNuvwM8SWvuuiVV7ossCxw61pgAfMZXdscbQ62su4dDOL9ZBu83va2t20zZt9F7p1bM2XtajtVjkZeEW0PQLPN7HvS5fd1yS+Nv3J9Trq6vZzKV9MLn/bJL619/VxvWnv9k9mNAjn1hydgnjS8Zs/qRLNnm8Ls4AbSThXz7Blw145c8up3T1c/wyE+9ZM++Vd+WWBZ4Na1wALmc7y2OV1nXXs/+eMf//gGzpaz1XHmAYn8oRAdfzEQqE67+pppefXxls421Ve3T9UDr7085WjaFA/Jjlab+rgSkGtzvSG59VP76JVL45Mao+hGyTGeXqdy/vZjH/vYo1/6pV/aDiyZcmpLFro4afUx08lXu1m/8ssCywK3vgUWMJ/RNeaQhRy3sh3AvonsaM23vvWtR5/61Ke2g0R6pmz5Ov5rUTOnX1p/laU5/tJ49v0EQgFu/Ps04CSnfuQLaEI3GPKTb8qLXrqv0/ZGA1lC+iTnUF97vtmGPaxkuHZenwLOTg972tOetj2DdnqYDWOtctTPTKe8SU/Hq9Fm/covCywL3HoWWMB8Btc056+rnC+a5WqvQZkp2+zlqE2OX+iZ8la4/Kd2ytOx7/PKlluBR7KikQEwZgSYEzS1ES3dkjHl6JuM2qRjaTpOnaJpW1Afj/qi+uqqRzskA/1aw5TPNmQ35vopjbfyoT5a0sbr2bP3ngPopz/96dvmsA4lqX3yrjaWyXc13mSvdFlgWeDWssAC5jO4npztdLjygA8Qv/e97902e5k1A+pOmNoDR056ypIHolL1ItAFlKJ8u7lnuXeh1Qey2iYb8Exgli8G1pWl+AtTbzJnGY8+DgW8wtRj8lZ/qO210GrfzYpytMZd/+iz70Py1XcDo54tHelp5vyYxzxmOznMzu12bSevPkun7EN6zPqVXxZYFrg9LLCA+Yyuc45Zd8DMcrUPUfzO7/zOlloa5egDSkAqBLzyOe5kqQOKUsGHF+waBggOw+ijDGgikJhAHWhOkJh9JJ+ultwdcOJzkzaqFZ3h7dhQG9jwd2PQOMgW05me0eSjSye9uurV3WggY8qvn+izj9lP9NJ0wmN86K6lcaNZ2rYJzJGev/zLv7wtcdsYNndtJ2v2c2hcV6s/1GbRlgWWBW4NCyxgPuPryDEDOIeIfOhDHzp6/etff/TlL395c+pATeCUA+aAV7uiegBr5tunDIECALjPfe6zAbKdwxOYLbc2eyM7UA4o9mbQR/31LPwv/uIvNmA2swfMQNlGNWXg7MQyvCIwpzsZZBUb3+wfTzcX0dPnOP2qv5a0ceA19samfJz8ePb1yurIke/mpTygbte2D2L0SpWlbdcseWQcCtHjwxPtEP+iLQssC9x6FljAfA7X1Acp3vnOd27HbfpiFFADskCp2VfA3FIxushh4+255qVLl7bdwGZmzYqBNMCes+MJxhx9zp68IlNUVz1a4JMOdAqAzZQBNnD2sQ3vYrvp8KENX8BqmXs/PmMVBf2TLRzqX/09DXsZja80204d5GsX39QjWvobq+gGy02Sa+N9Z7u277j8WpXZdKG2yvUhj568ymiTH32FZYFlgVvXAguYz/Dacv6e0fowxatf/ept05fTvgAdZ875BlCBNEePDtjMeDl8AMzJO7/50l3AbJbmJCrtcuI5eDIn8Mwh45nAoE77ZMyU7PRMhnqzY6sA3/72t7fn5l/72teOvALWMrcxAvKeT2tLVjcLyul3qG/1ex3RbiRMOfU1bSAffS8fXZgyjEPIxq6X62msHil41xkwO3PbM2jXyE3TPkyZyZOmS33v263yssCywK1ngQXMZ3hNA7CPfvSjR6961au2g0Q4dnHveDn6nLx3ZgNhx0I+8IEP3JasgbTZcZEc7YTkVUbbA9Dkiz8+qTCBCk985MoDajyBrjFa0vZMGjCbQVuqn2d+GxddAbP28ntgurP3k/tL10N9RGtc8e3pV9NktuvaGZ9r86AHPejoiU984gbQlradvV2oX/2JlauXHqLN+pVfFlgWuLUscGGBee8Y9+WTuAzJlB7K6yN6znGm8sWr6UOOJWuzyQ9/+MNHb3jDGzbA4rgDt/oCVJah1fURBV86uuPycihgNjvuXVkgp12xcnomc5aj0Tl6KVr1pWhCPOii8pxBzzJwMl7L2oDZkr3lbZvH0C1/A/Pkamvcs4+t8oT+HCe3MaqPR5fd0ESPrzTe7DDL2qO35O+xgw1hdmtb2r50eZUDzcxZu2QmS/vkya+wLLAscHtZ4NyBOac0HRHanj7Le16XbNKUJ/9x5fpphiMtVpecQEM/8mZDRbQr9Z8swOQzjkUbpyxRk4OnGbIla7uqL1124JZBLYFaum4DF9CmQyEd6wc9faJVrs31pvWxl7Mv0ytbGY9n0GbQlrPNoN2YfOlLXzr6/Oc/f/Stb31ro+Obz8OTWZ+ljat65cbXeGZdtPNI08vviU6us5UOR3k+/vGPP/KlKtd4ji095xiqn7T4VrossCxwa1rgwgFzDk3KGeWQpoOKFog2MzED61kmmsjpF/ELsw809TOd9fUb2OhbPlCWKgvpO9PJC4jsxPb1KABluXeCLOftGaSlTk78YQ972AbMD3jAA7bZFVl0NS76ppv+ym+K7P7MOrxCaXWlNa2+shRP9NLalaKLdN1Hs2Q3Jza/AWbvcQNrm8SAt+s328snd+oRTzrNVN1FCFNv18sSvxurOy6vetit7XUq+f1BJOneOJJTufqVLgssC9y6FjhzYN47mlmWL+Z8c0jxzUsBpOauYDuDLZVy9EBANFPj9PEFaBOEA7j6nfLl6zc90KZuMx8QWd4VmwWaAQNcunjWapMUneiPTzsBAPveL0C2XG3zkI1eADv9uomonF6l5FQnP+nKwp7WGO+svfrf2b62pcnHs49sDXyN3bWxYgCkLXO7WbGrG4AJlnnd9CSDjfRh/NJsrV65GL/yeYbZf783OruWVkCcrW3m7Fq7zkJjkG8c8issCywL3F4WOFdgns4rs0ebjokzNhMOhAPaNhrZERwoA2Zljt+MNGDGewiY984wPfR/KKRfdVPPwAKgHAJm4/ApR/oL2tZGHjA/5SlP2Zy1d5DNsNrYxaHjFTj6big2wu7P1LE20a51XInct9u3r760dpOvPF3YhX0E18jubUvbvqwFpM2g0V1vY8w+jYMNBTKLyvv+0Qr4rlQf30mm+/6U6e536F1zm8Ds1AbQgHruNaBHNtvnT1LHJWtZYFngYlrg3ID5aubIMXFogAzgWgp2trRlYLMrM2MOfL98HWhJA2NycpblK6dLfVaW7nmqm7zlJy+aCFAAkag+fZIT4Chzzp4lF52/DKzt6hXNnvEbl5knRy8v6Iv8dKh/qRB9K1zhz/XyHydq9pdMKf0r03/OoG0UM3P+whe+sIG1a45fZL/y+mysyUqPSVdXjB7fWaf1b8zG4VrbEParv/qr29K299CtqsygjdAYZt3KLwssC9y6FriQwMwhATAzXjNhs0zLnhy3WZXUcrCZMUc3HVhOnCOfTht9lveX9Ep1k7e+0A61UV+s3Szv9YpHGp8lcK9CmTVz2ED50qVL2/K2WXTPJY2pm5DaB9T78ZJ9rcG4rof/OLnJ2NupsrQZNH2dJgaURWeHm03bwW3Vw+9BYJv0Sz56MicNnVxhT9+IZ/yHDqLfrJmzGy+vUdkQ9vf+3t/bXonrBiReKhpb4ztjlVd3ywLLAudggTMF5qs5G/WCGbDlTCDsnd+ey5ohc2jqOer493bLkeXMJl+00n3beGf9zKuPp7bVS/d1eCYNT3x7Ol5OWwBYRc+oAbLZs928ZlqWP82gyQDGRWURIFVH3uxXWd2hgG+Gynv+ytXXZpb3PMr7Gwf83US4plZHgLGbMasjH/vYx7YUaLv2gPnQzQ05xfqRpk9pep51Om3BBsbq+pol2wz2j//xP95ep2pJm361kT9v/emwwrLAssDZWOBCAHMOyLImQOaUzYptCuKY7d61rAmQm2FxzjnoHDKTkZW8vTND39OuZuY9f7JLtd/zJHPS44+mHA1/MzvAzHGry4FXb7e2Z5M2DD30oQ/dZljAGXA3k6ytNsmQBn6zz5nHL6TfnaU7/6LteSsfxz/bl9eGfsJeH3LQjAMfEPYb8ElMM2iPL/wu/D78TvDPSGYy6keKVt2WOec/9KGX6wycjeXS5dWQZz/72ds7zt1w7dVsHHv6Ki8LLAvcehY4M2DmjIRSjiYnFQ34miXZCGSm7NQoy9kAeTr0KUeenOnok6cuurxQ3T6djm/m72z1g3aVD6XJrG7K2dfFI01/eeMsVhfdTYkZldmznbwcug1Ed1x+7QZoA2jOntPXn7i3G1mFQzrtaXMMtZvpnl/doTZTD/WitkXtAmZ1xtBmP48tHFJiedsXuZTJw9fSr/yhcBz9EO9p09LFmI0vcPZowutxlrWf+9znbisidIm/9LT1W/KXBZYFLoYFzhyYGzZnk1MGvJ4XA2Iz5E996lMbOFu+NINq+bIZsnYcc+3JnHXK6oSrAfPGNP5MJ5iMUX1sNl5pMko1qv6QAHz0jK+xKUdHa4aFBqAd02kZ1GlgTgZzYIVn03ZwT1lb4Sp/0q809jmGaPt030b9bKc+nq4THrT9WANadcbpZsTNmY1/VlDMoD3i8Nto9hxvfUpnvr6k5xnSiQ5A2dil6Mb6yEc+8ugFL3jBdrNlA6AbrcJsG22lywLLAremBc4MmA+Zj0MVLVE6cMJsyAEcANoSH8fFYXFKReVC7ZVzXKXq9gGt+tlm8s125es7vuil6OWTP9tUh6/62lQX/UrlHLm2AAwAA2iz5UuXZ88cuxk0wFYvNDMjN9lbxV1/6lfxUH281cVfum+356t9ae2M5VCY1xevMpl+D20GtKpiRQVQA2zPpdmiMWtXXtt0OtTfWdMa/9SLLdx0uY6un81g3md3HdNdu9qetc6rv2WBZYGztcCZAfN0MA0RaHiWyNH+l//yXzZn63mizT89N41X+5zTdFDJjU9afXWl8SSncumeL7o0mfL4juONr3TPF50cYQKUuvjjqxxA4UdTz36We5s9e/Zsd6/nz5y82bMZZ7zaJe/O3u/8W19Kh+r39PhL9/XK+7DnTRf06uq7MhnyQFZkA+MHxoDZ0rbZs6XtHnngx4dfftp3r9NZlufY6DXLdLRq5FAV183BI895znO2/QT7g1bOUufV17LAssD5WOBMgDknbIicUqmZjtnyJz7xie2jDmbNZg74c6wb813tpkOLXjodXTRpjlnb2Xc8tVMuP/nKq6u+NBmHZMcf75SjXWX5yYNe2yk3nlJ1xsZe8maMgNgSKGD2vNLuba/kAG58gDzZ9autULoVLv+Z/dRGGt8+rd1xafJKa7/nrx644qlPeRHdzZwd+l6hs7oCoAE1wBYCZmnhuP6qP+20cR3SQ51rKcq7wXr+85+/zZw9nvAM+lC709Z5yV8WWBY4HwucKzA75cmBEpav3/nOd27vrfrEoWfKwnRmOaZo12KuyVv70ik/WfHHUzp546lNPDPFMyPeQKL28Sdnn+LDE1/yKsefQ8+pq/fusyVRr1bdcXljGHDm3Nl18iejdMqeetb3Ib7ZpvrSZFSWRjuuXfXshWf2jVZU142dJW2/Ia/Vee+99561baZ9XH9Tt9PMN65DejRGN09WQBzH6ixty9lWQJRXWBZYFrh9LHAmwMyce8ekzJG+6U1v2mY7Xo2xHDmfFV7pMuzl5fByctpGK0Wr3czPevQZJj/6nrf6PT0Z+/p9Ob7SWU+mcjQ8s5/o8ZQCYEDsGaXnzo9+9KO3j2GYffXMWQqkBe2m3I14An/SL1H6qJ/6njcskz8+baOjBdjy6MDMJjCz5wnQbvosD1st6EYvPW4kTZ90uREZx7Uhs8gu/ge83+xZ82/+5m9u1++4tou+LLAscOtZ4MyAeZqOEwIMdtj+u3/377bU5h70lrBzhLPdzOMV8BVzbvu6Q+3imTLkJ70yWvqUqhP2/HdSfxhAo8W/lzHrOWb1AVYAFo868VC/aPiBFXta2vZeLHDm5C9d3iDmnGZglS74D8mqv9Kp8yF+tKvxqDeu9CS7caJNuYdkoUVPlt+L4Pfk5s63rj/96U9vr1d5TNImwvhrr81eZ7QrBW2njlfivd66KddYLNd7Z/0lL3nJ9n7zvG7XK3vxLwssC9xcFjgXYAYcHA8n+q//9b/eXo8yq5mgvHegzIoWPcCKFp1Tmw63+i5LDrB0X6+90MysftDqQ/60wtS9PtJVeeo76fFKjUHEC4QdQtLs+alPferRpcsAja7erDJebZPZWBt//VaPt4Am4gloA/zK8SY3ObMcDW/9yUePF60Qn36MxbNnz529cucxScvbfls2wrUZbuqXXP3UV3pHi6c0vvQorb5yfOjJUqccTTk+edfD/4dHEE960pO2aM+ARxTxXakfMlZYFlgWuHktcC7A7DkaB+q54L/9t/9227wzny1zOnvHyMQ5M/kAIzr+HN9xzitnFl9tk4u+d9jx1lab8whzTOmSbvRpDPKNg4N3EwSU7HJ/yEMecgSYPXt2vKeDSthtysuuaHv5ZO9DekXvuulbqBzf1FN99NJ0KZ088ofoaMZYdFANQLYpDEADar83wJ0+ZAmVkzvHfyfHD//Fl64/XPODUrJQ9ryVJ8/kQ2c7urpm7Rdw8IhNYW4sjPO4kNzj+jmu3aIvCywLXBwLnDkwcxieCX7zm988+uAHP3j0mte8Zntdqs1J6jkXDlMaUGayHI/y3vmoizb50chJbm3jRS+iFfGhX4QwdZ36TPrUFd2Ysx97miUDY7u1bS6yVGpW5qYIgE/+5M6+5Pd9RIuuXVGdfvdlvMmfdehd93195frDV6gODWgBNjd/NoI5yrMNhr0fj38PcMlTl7z6mvru+6xcmh1K0ffyZh+zX7zauQ7GgE+9PQIvfOELtw19rp9XqPYyayud8tOjVP0KywLLAhfbAmcGzNOReE+ZwwTMv/u7v7s9D/Q8tF3DTMaR7J1J5eqkU27tpNHjqTwdYbTkaVfgHAV1FyFMXac+e3pjQS8Gzpy9Z652+VoafexjH7vNwgJnoBY478c/+8mm9EBXZlf5+lKXLvFFkxaSq5wc6ZQTTyleuuJDK6LToyVrNxt+a773/IEPfGCbQftcqFPm5vi02etafXVkz/5nXl2BnMLMxz91xke+0Bhqo+xaucFwqtszn/nMbZe2myqvxCVPW21qN2VVN1P5FZYFlgUutgXOBJhzOkzBgXTE4vvf//6j//Af/sO27GgXKmAGHtMpc1yccM8GyYo2ndp0pPrJcUmn45r09JEeF3J4tTuO7yzpdEqfUv3PcaZP9VI2EtnZCoXzmR3paUZm9szhq3cNmrElN3n7lNz6UFc+XUqriz+6dAZlPF3P6lzrSVeOd09XN38bfm92aTu8BkDbvd3XqnoLgAzyalf/aGIB35VC9bUp1aa68lO2umJ018CzZjetHkO4mfKxC++pT1mzj3Sr/lBdPCtdFlgWuJgWOBdg5mwsMzqC841vfOM2e7br1BKdWU4zBamyyEkpe/bG6eR8czw5oujMjTbpe1ptL+alOaxVOjeuUtzV1XKW45OyJztaFuXkPXP2viznjwas2DtwSp40OZN2HF3/xfjJjOZapSP6of6qr494kjHl0m3KlJ8za993bte20+bs2vZbNFby4q+vZJfiOW788VQ/9S6vbtZPen2qRxflXSt5jyGscPyTf/JPtpspZTdYx4XZz3E8i74ssCxwMS1wJsBs6NNRBLKWFW3QcSCEd2xtdlGnbEZT5EDNeJRt4rG8l4PneDlUIccajUPLkW8Ml/9MPdAOladjrH205FzkdD+mva7GxOGzFwdvKdsS6WMe85htB7ANR3hE1yN50uxBpvYi26gTZ75+0YRs6PoEmOj6cKNQX2QCHTzJVadvZaG+rKQI6VVfG/Hyn/okUx+Wtn1G1Glz7dr2m2r5u/HUXlpfk1Z+9pdutZHOemV6ohmbMMe8ES7/2fenjZvSOy4fFvO85z1ve/XNLnurTIXZj/bpgj7r4l/pssCywMW1wJkB894EHIeTm8ycBZ8xNGPmhACznbWAOFB2HrIyx2ppEjhztACmGWD5HNt0StM5TXpOrPrZll4cpzDbbIQL+of+MzSuaMp42NnYOHzg7MbIcrZNYXb/3ve+993o+OKXFskjK4BFn0G7GfACPQCoX9fPdfS81/VWpgs5HbDhNS96+F1oM3WR3/evLZow9YmPrqLfnGVtnxe1amNTWF+qajzJaQz7cnTprKvf0n1dOupHvt9XNwS1S772ftfs4xrtX5+afOXJSI72U4d4VrossCxwcS1wLsCc4wgYOA4zJM5JXXSO2lJjMSDeAzfwFpthc/jaksup52zJzwG6JOpzYMrpJY9PmPUb4Zz/TH1yuKWz7mpqNla21h5gepzgubMl02c84xnb4STZCJ829RVIKsdzpT7xuA5Atw1ZXmnyvNdNVzda5HZqmSX2pz3taZtO+lYn0gVYTX1m3+iFrqNyOmjvplC/+ncgyUc+8pGtTMfa4J+/FzKm7GTO9BAPWqH2ZAv7cnzVzTH7LbtRcVjMi170ou3gmMlfm0mrn0lb+WWBZYGLbYFzBWam2TuOKzmq+Dlxzh0QW+IuBs7qzIDwAXWA3mwsx1u/pWTre/avrrL6ixD2+tBxP4Zr1bPxcv6Ajm28OmVZ+1d+5Ve2TWHt2I6X7PKl9Tf1iCZFB3D6cR3syPes14zVs17Xr5suerhBoMNTnvKUuzc7kaOtawpY6UoumfSYYZYDWTT86eJGhCzgbPZsI6IbBSs1QDsZ/V6Ok49O5kzla79VjD/RazOq7m6TnniN1RgLaB45vPSlL932BbiJcbNTuJL8eFa6LLAscLEtcGbAnMPYmyP6dEZ49vTaoefgOepm05xsAAyUgTQA4HSlnD+enl3qj9Pez4jQ9VH/9Yt+niG90iH90qs0enyl+/rJJ1/E79mlZ5hmzgD6jsvPNgGZADgnUJTf2zH5UnXsbtm6U7l85tMnG8kDPoJU2acP7Ra3bGtp3Sxe6KMV8naQt0lNO7G+1Ne/vLHvx48u4POM2W/EzBlAewZ96EZuL2P2QVb18tcaasOOyUPLntHVGSO9HLPq9Sm7tF0bNzLJ2fc7Ze7rVnlZYFngYlrg3ICZI+E09o7javRpxpzRXg4A7nAJm8u+/OUvH9lohga0OXgOTmhGRFYRPcCRF+rrztLZ/63/7FUa/WoaTb5pL+2qM+bsAvQ4/X/wD/7BBpJOCvPaTgCoHTnZCZCI0euDbDYGzA6Ved/73rctG9t8ZcXD8qw6fNoAZqDrfG87xS1lP+hBD9rq3FzZsOX6ehfbsq7n0AG09jPMcmNML3z00tYYPP4we6efPnxC0srLofFNWeQc6gf9esJehj6ySXVs40bUfgyzZsD89Kc/fbNPOu37rO1x9Xv+VV4WWBY4fwucGTAfN9QcR+l0SNpM+qFyDmfyAQ+zZwDMuZoRWaJsN+58VaYZdAC913Mvf19/VuX0mDbY950N9nTl2kvxBTjKIlBFbwaLZpnUhiMz51/7tV/blpfZC6/27JwcNG0EtHRBN9vWzk3S7/zO72xfEzN7dhOgrnbpBayBz+Mf//jtu8SWtdVZ/XjDG96wfR60zWqOGDWjrm061f+m0F1/ojXevc5+L24WfBf83e9+99af3w49+53UNrnJLG0s+/rK6uPRJvtFp5OgLpnlszld+vqUj1wA6XiTXX8rXRZYFrj5LHBhgZkpc0jyOZy9A4qOZx/i5Vg5XcuVH/vYx7YNP95ptdxtBg3Ec4wzJS/5ydr3cdbl4/S5Fv0aG50DBHn0AAGwBW7Veb8ZMPvGs9krUNA+oIiPHHoU689NDwA2S/4X/+JfbCmaGE9tyKQL8Ll06dLR3//7f387+QrdDdXb3va2DZjNlO0eV292Dci9bieQlX4b4a4/6ELjlc5yQO0rVe9973s3Pa22AGs3LAKe4ka4/CfdlZM568pXH096otd3dfRPX/X1URvXCCC/7GUv2zaD9ay59tqssCywLHBzWuDMgDknMx1HzobpJn2WZ7vymXq2qS5aZbzyHCtwNnO2JAqY7cj96Ec/uuWBs9DMSD5Z8ucdGk86lUa/Xv0AgbbF5JGDFjBI2yVtBuvZ5h2Xl7jx4wvEZ3syyBfwqFP2mc9/+S//5faKEjs3W1afvPrV1mtcnp9KyWlGazkXqANns2W7t/tqFnBW18xfu4L8LKdz+gWO5Pud2AzmmbOZvqVtbwPQed5UkD3lNpbo9X0onbrU9xy/NukoXz9sTsf5rNlBMR4B7MNsv69b5WWBZYGLaYELBcycSM7qOIdyXP2eflwZnYM3WzYD85oMB/yd73xnW/YG0Hg4SrFwnD7Vz1T76+GfbY/L78dzHB/6vu/aqku3xnYcEOBTJwr4zVCf9axnbUvMlpKBIAA8JCP59QfMzJj/1b/6V1sK4PAUt04u/6lP7QBQAJsOtcOnLdAGUL/0S7+0zZw9ewbmATQZZAnS4ka4/Iet9pFcNw52bPt9+EKV5W3g7Pm2vtMjOTOd9q/vWb+n1T8esgvJKU33gNkqgZsSz5q93uZM7UOh9ofqFm1ZYFng4lngzID5uKHnpM7CeeiL4+PYLG/3PrTdwWZzbRTz/JPD53wL9NvrSF60UvLROXe0OT75WZ716MrJqd/JjzZlxFOb0ui1rZ00ntLqJi9aAZ29xF5jsinLbm3L2m5k1KUXuVM2OUAZ0Nn1/G/+zb/ZbA1wq2MrIRnlpdlTfi87nV0rs2f6OPfb0rabCPqmOzlTVvKkQjpL6UNnvxF7FPp9eL3LTZznzjaN4alt7TfCkNeY9vXxXW9KnnEYF5t6rOB6vPjFL97Grp/6yj76iHa9/S3+ZYFlgbO3wLkD81kOOSepzxyV1MzIrAhwAGe7h4E20OEE8QS0tcvpKUcjF78waRvhrj/Jm+2StW836VOG/KybsvZ1tYt/r1d0aXG2QQsIgBEAdMCFM5udFLafMSc/ucoATFtfeXrta1+7PT6Yr69lW/1O+2mbnHTbl/GnXzcOgNnzVzNIy7s2k8XX2K6U0idwls6TwuxRsFfB78PY46VrY5+y0/dQ3eS71vy0Q2Mya+5Zs53zbF046f6Tu9JlgWWB07PAbQPMOahMWZnDBMBmQcDCxh/g7JOUHHAzO7MTTrigvbZo0uTNevno8VSu3Z6/8ky1Eff9JQvvlB8dTZyhOumhyNmjB3ZSMqwecPhmp541A2azU+FK/ahvxuwGyMEiloc92/f4oNelmn2aCQrZZ69LOqdnfHSQd50AtNe7gHObx2pHtvw+TFqySunk8Yd9CW7gHOMp7XWvdJ92mPL0pe6ehNont+vjt9uzZu9933GV95rviQ6r7bLAssDZWOC2A2YOjnPLwU1n6vkhgG7Tj9dzgIed25Y1OcOcsMujLTAQprzKe1p0aY62dOo062ujvv6kyS7FJwRYd5Z+8HcvXw3dRWMCvFIxWvXADiADZnm7tAGeNJ7jxlE/5HtXOHB717vetT3jb1VCPRn0r41UuQjEgS493DC5JjZBSZXJAqDG4CtZZvaWeAF0IXuVHqLTY0byjNsjDsvalrTduNmx3cyZHG3YQzrlK9/TMGV0LRvzofea0+ee9rvaLwssC5y9BW5LYGbmHGcOT9nMiLMDxGZDANrszsYfgMIJAweOunalyeOYhQCmejT5ys0Mo+VstUObQJVsMsrXT+XSeMgP0Erj0dYYAJwjOC1/elYpznxlPIC5sSsDSLTGIyVfX/VDl8anT3T29T65gzxsBrMz3g5o+qRXbchqHGhOIzMrtMELCGvnurh5stwM+NEFY/Ps9ZWvfOU2w9deoMPUbyPe9WdPT4/0oosbAYfV+E2YNZv5WwnAM2P9le5lz36vJz/lsY+bEjcNrpUbEe81t5JBbvzX08fiXRZYFjhfC9x2wMzcnFWOMsd1qOxZM8fr2TMA4ZCbIXHCtU2mcjROc9LJV6edPCcvVS4oi0LgH01b+eTiqa40+QEEcBfJEuU5caAlAtaA2QwzcJ6pV6XscAbKydMfQDCGGfb6qaNTMR2AKGDzyIBtgauZLpmNr7Hok55uGC5durSdn+2zlHgBs0cPgDFgRqcHGziY5NnPfvb2zen0VHe1EA8dhKm/MdBVn/R3tGg3F24KsrX+a09GMuXvaUguma6B6IbHQTBuROzSZjPXOt572udqvyywLHB2FrhtgJlJp3Msn9Pdm1y9pW3OH0DbuGQJ0wyaUw7wtA8Ic4LaTvmzb7xCACQ/daitdE/HK+SIpeTUF9mAAZCa0dr4JNqwJQLfABggA+fAtpQzn+ASwDROdenQGPRfPp2lwhxHNCDCtsCUbZ2fbVnYjU8nbdEHGDt200z50mVQ9s4yUKa7sQNCcqQz6pOe2nutCz+amE7S9CndKi//iS/6LHf9jMGeBI877Oj/wAc+sOmfTbNb1ydZ9XFP0+TRzc2Im4U7Lj9ffv7zn7+tKrCVax3fPe1vtV8WWBY4OwssYL4MIIecV87YpbC0DUDM8jxb9P4zwDZ7DpAAQU770OVL3uwrGv7ZlszkqsMX7wRN4DVnwOUBUqAsBdKcdOBsFmxGpf2hoK90mCnd0xM9naZ+kyfdpbOdPF2BG9u60fHs1nvC7ApoAmYftADGnmd7lgr42KD+9VdEmzNm9PhK05lOtZO/Uti30T/9LGt7H97Z2p6ZA+mOGsVDfm3lTyJMeclkR8DMVn2vWeqGRojvJPpfMpYFlgVO3wK3DTDn0Jj0kMOsfu/E0JvheaeVI7aE+Z73vGd7Bg1Y1HPUOWPAM4Foyk4+WjGd1KUbIBHNDItkAlRLzZywaEZoVgmA0c0O8QAw4EevfSRn6qH/PS0g2/PhLUz953jVV55jR1cms3r9AFMz3zZyoalnT2OwjN7SLBnC1I+8qWd94kNPz0lXJ8x2d1J+9G88yZJO/efM2bNzNxj07veAPxk/Kv3aKPXdGJInZQu/QXbqe80veMELttfZkh5/5ZUuCywLXFwL3HbAvHdQOTqpuuPqXUI8QNLszkcObP4xk7YkC1jUccaBijacprCXPfuVn2W85ABUDh7IipaoAS8QBshFM8mAuZkwGWQGYPVRStfq8NK5NrWLvg3g8h/0fUCbfFPmnrcyfqF22Suwiy9dpembfDzpQ04x+qyLJt0H7eKdddHUC8mPjtaNg2V0mwXNnN/xjndsN25mzuiuYbbV5kZDetZ/+pCHxj4CumfNL3/5y7ezzf1u6IC+wrLAssDNYYHbBpj3lyMHJy2fs5NOWm3RAIPdv2bOnot6p9UM2vK256PNlKYzTi459ZejlJJp1mjW0+y756uWcb2T65mh2RA6cG5Dlv6aER+aoTWO2W/56qZ+AV91gWXlbDH1jzbHJz/lBhzpmA57PuXCbE8vsXBIr3SUpl/8pXv6bBOP9BDf1Kc+jEdQNnP2W+iZ86GZ88Z8A3/0rY/0bfxEsQv7in4/D3/4w49e+MIXbpvArKp4dLHCssCywM1jgQXMl52dkKPN+eYAu5R7x4je80UzJdEOYTMlS7LJ40BF7YWAr3L9KANZgGtJGgh7LQgoB8xmxerx5ZgDrJnW99bhXX9mP9GjKU990KtDF2e59rOdfDwzP/VErxxvqTpBOV3qO3q86NkUrRifNBny+zDrklka7+RBqx5dnOU5c/absNP87W9/+/bMuV383ZAk/3rT+qzfaUe0wNks3U2c98w9Z3YqGHBeYVlgWeDmscBtA8w5tOMc7v6S7R2hcrR4OUHPneeJYR/60Ie2Xcbq9GkpMaesPPXgTFvutDGLQ3WcpJOc5scYPDucctJFKiSXvOSXTh68lWe76LMO7VDYA0I8ta1f9Jk/1E6b2sWvDRp+eWMS4pv16HPMe3nqhfSo7Z3Uq/+tz0MyGo/+8XWNzVo93nB0p/e0Pe4A1q2kXL3XK3M0lr190seM2aqK35D3mvsa2JWlrtplgWWBi2SB2x6Y9xcjx8fZys/ydNS1U2+GbBnbK1Vem+nEMKBtiTrnPdtrx5kDXDNh5zp77xYwy3tubHaMT/uWKgOiZKXn1Ecen6B+zzPLc3yTf2t8+U/1s0779IgPTZj88qK6gCO98KLXTlmo/R549nyV6+PO1leWmS7xXilN/uSZfbl2QuOhL5rHCh51OM7VO/Bvectbtj0Jc5VjyrzWfHbZ6xV92pcefjuOTv3N3/zN7Zkz2r7ttfa9+JYFlgXO1gK3DTDvzZpDi753Wvv64/jQgSYA5pBtAuprRF6v8hza8jbHWCQbv1lyYGzDjq8jeR7YYR6BE/4AgJ7K6Vea/tXTS110ZWHPjzbbKF8pJC85V+K9Ul1y5riiaTfph+Q0ttooT53QxUk7JGdPm/L2dcrJCwgraxc4091KiBnzq171qu399/Q5JPNqNH2I9SHd20c9WqnfZAeOmDkDajcNKywLLAtcfAssYL7rGnF2M3BwQvR9efLu897LbVOYYz0dnAG0OwyD0yQXED/96U/fjo70mUIzZ8612XF9lu71OUTf65tu6PFL4yuNL57K+3TK2ddNudVN/llfv4EJUIum7Z6eXslLVm2U49EePV7law1TnjbJjL6XM+u78aK7aw2Y/9N/+k/b/oP02be/lnJjI0Mfgj6EbhD8ZqJZzta/m77f+I3f2J41e6fZEvcM6Y523Pgm/8ovCywLnI0FbltgPinz5tymY+MUHZRRdLKVZ42Wuj1/bLZsRvPrv/7r29nGXnPidMnjYDlaIcDK6Z6U3hdJjjFP+6XbIfqeL/vPNvLH8QVktYsv+876eJIdb2VpPOrMSD2a8AjDLn1L2V6fsqx9EkvZ+kiH2W96oIl+O35jXqdzPGcROM/2ydB+yk5edOkKywLLAmdngQXM99DWObccHnFogSsH6bUZM2izZ+dCm9E4jctrLXbP2vSFLzDWNrkTKO6hqrdE82lnAwpQo2e3yg0aHS36ni850961SYa09pMmr13R7vz3vve92wYwjzPcoJ3U5q99v+lD1/Q1Fr8xr9V53c5SthtAM+gZsgHatI1ydclHW2FZYFngbCywgPka7Zyjiv1qDgs/BymaQZtFWc52dKI6syvPkwG0Z8rx1k/y0YXK9X+7pY1/2kd+ltlkX85O+/bH8cVfCmy13fMroxfxuVY2AjpT/bWvfe22SuJ6u+GyGoLnRkM6pAc59Y0WHU0AzPJm8L6y9U//6T89etzjHrfVzT+zXW3VT/rkX/llgWWB07fAAuZrtHGOKvbpxKLtU21qh7820VtybKYcnRxOXJmzl872+35uh/K0nfEqT3tlH7RDYbafPNFLk5280vrqeswbpp4tO57ViohXpd785jdvmwD3r7kd0u16aId01z59An98wNkmNJ+B7KtTZtF0miGZjVXdpE3elV8WWBY4fQssYL5OGx/nsKInLkcffV/mSAPmnKq28rVJlrT2k3Y75qcd2ClbAaRZxzbqsmd1pdN2aCIZM6LVhxTQiR47SMnGA5gtVds/YAm770xbJQmYZ383km+c+jsU+g2pL9LRASfeaX7Ws561bQK74/IXqKzSTHnyjWVvx8l3qN9FWxZYFjh5Cyxgvk6bHueooifuOAcaH0cImM1opPGrj4es6Mld6Q9sMm0VGE2bqQ+w5PEEPNOu5fG6HiLwFS1N78vtB5hgBpjtvnfATK/I4QPM+pzX9EauYe3nOMmJnszGiQ8we4zinXjL2E4Ce+pTn7rtaajdHDsZ2Uc+Hvn45FdYFlgWOF0LLGC+TvtOZ6Xp3mHt6xM/+fCIOc6AGU98Uw7aLCfzdkrn+Pd2mnXZBMAI2S6envVOAMKn3lI0cPW623e+853txC4fKDHzNfMEct1IaSNoRxa5rmdHsrqm1XVN72xx438bQ+NXFpUbr3I3I1I62fEPnG0Cc4a2Q2ymrMYhTdfqkx/9xrVfLZcFlgWu1QILmK/VUnfx5bBqtndY+/r4pJMX3wTm6uNJzr485d1u+WxyyFbq9vWBbzaUogVYgNaGPKArAmHAHDg7StOO6v076PoHxEJ9kt2SduA/+92YT+DP7I/8OWuvjJY94jdus+ZXvOIV21en2iWejqkWf+XSPV/0lS4LLAucvAUWMF+nTfeO60oOK15pfKW6Nauy3Amgc6botZPHL04a+u0WsgE7CdllzhTZqPp41ANKu+DjBcLON7dRy7Kz98zlAbOla4Dd7HjKS1YATAf1omsp4Ek36UkFsub46qffxewrvuroZqb/iEc84uglL3nJtqTt1Dmnge3b1QZ91p3UOJacZYFlgatbYAHz1W30Qxw5rohXc157/tpJ1XGaAXTOffJcTf7kvZXz2QEIspuyGNju7Ry/NGDy6pLlajNh75YDZMenAmVL18CrD4Z4NiwPvKKZZRaBM3lm15a6taVberkW8nu9bvQaJUsfgv6F5JfiK0Rz80fXNoE9+clPPrrj8iYwJ83t+WuDXp/kTb7kr3RZYFngdCywgPmE7Dod2nEi8eRY8eTszJh737WZUDK0EXOU0W/nNHuwQTaMZmYMtLIXuuXor3zlK9tpXF/84he3z3M607xnx64J8PW5Tadl+Uyi1HNZM0tHWQLodlh3jcy2337X5x3NsMnZ963/dDuJa5asOe76yB7q5g2L35cbB0DsM5BOAnMUrI+lJCfdyErOIbnxrXRZYFng9CywgPmEbJtDI27v7OoCzx6Y8U5gVi7uHWNybueUbaat2SJ7AUXRDNlytWfDwNfs2HGoRUvWgtmvQ17uda97bd+/BsiBshSQqfPurw1UPZcFwoDdaW5vetObjpzuZVZKr0B76+Dyn643He9JaMyH5Ox/J3gmMNPBb8yNhZsNB444Q9smsGw3dasvtPKH+GablV8WWBY4OQssYD4hW+Ycc5yle/E5uklvKZvz5ETx5FjjO9SuutslDRzYIsBjJ2AMNNWrA7xms45ABZqWrAGpZWw2NgM2Wyz69jUQRm/ZGoj1XFofsx9A//73v387SMQpX5bG8dY/Hbpe++t4o9cqef2u6iObTHp91EaavdQ94QlPOPrt3/7tDaDpV1t1yZWf9JlXt8KywLLA6VlgAfMJ2TYnmLhrdWQ5TeAMNObMK1nSvfxZd7vks+lM5YGOpVozZMvWDvqwZG2G7GMSvpXd7BgA+5jDpUuXtmeuwNns2MwZjxA4kSsq66dn1b63/fu///vbkZsA3zUD5ECuNl2TgO+eXr90SG46KutDFNDpUH7L3PXH78sjE8vZTgLzXrMVAbrPkK7ZWd3MT96VXxZYFjh5Cyxgvk6b5rRqdjWHFf+V+HLmHKddwcrT0errSu3T5VZOGz/bmCEDE6kAeG3iAsaf+9zntufJdl1bztbuvve975HPaj70oQ89eshDHnI3EFueNkMGyHt7d92kzci9o2wm/vGPf/zo3e9+99anen1on46nfR3qR9+BcP2jiUJ8UrSA2edGn/nMZ27A7MMWblYm/1a468+UlbxZv/LLAssCJ2+BBczXadMcVc2u5qzivxIfHtHMCzCbmQUUOV7tryQjfW6l1HjZRZo9lNlE6lkvULar2izW0rVZcjNks8H73//+28zY89RLl2fJvuRlk5dAjsje5ckVsnep/vXzgQ984O4lbEvmQB1wx7c1PuU/9TVtMWnpP1P5bvwcyWnWbMb8jGc8Y/sueLzkFMjf26O6lS4LLAucngUWMJ+ebQ9KztFVmSNEz3ECikL88UU/67T+AVghmjQ9q9unsx5/bfFVV1p9cqXALwC0ZO01JcvUNmABY6d1oeO1oxrwmCG3VN3O6uNmx/ou0gkQi/p0Xcy+PU+22euzn/3s1he6enzprK2QnaI3tjtr7/lfcpMpVT4uVEcnN3+eh9tt7iSwF7/4xZutahtv5frY06tf6bLAssDJW2AB88nb9IoScyLdA6cAAEAASURBVHQx5fDQe4bJ4Qto8cdXu7NO9X+cPtVdTac5ljmevVx1gR2ZzWbNkO2yBsItXbf5Cr8Zsu8P33H5Hd3HPOYxW2pjl+fHyWBb+amLPvY6BMpSM3A3Ab4a9c53vnPbTBbA03VGsgR9CHOcG+Gc/tCDTq0OGO/jH//4o9/6rd/aAHq+ZjZV3Ntp1q38ssCywOlYYAHz6dj1hqRymoCjeJJOMVl7xa4VOGofCCVn0ve0yvURb3SpOvTqAKGILgUYlvctGwPjvtxkWRlgmgFamnWq1cMf/vBtlgyM9zPkCcb1Nccy69HnTBgov/Wtb92eLevXzLwl7Kl745HSXQigt8I5/klPqd8Zm1ref+lLX7q918yGnrkb+wzTVpO+8ssCywKnZ4EFzKdn2+uW3IwGMAMc5b2jvG6ho0FONtK1ys6p4y8mYy8z+kz3/ezlxYsPIKpnAzNkIGjns53WniEDZnn2ASSeIZshP/axj902eNnYBJSbGbKhOPusP2m6zfpuCOz0tst7vq9ML8ENA77aSQtkTmBWVz/xnHU69TMGu7Mt8z/72c8+chLYpcvP39sElm50rt15659OK10WuB0ssID5jK7ycQ5u0uVFjrNNYBzidJAnqe50tulxvfIPtZtykzdpjRNNBGIAuVkqQDQb9v7xpz/96W239de+9rXtfGtA7cAPu6vtKPYsGcD0HrKZLJnAeIa9noE1nnRLH6BLjiXzj370o1u0jK0cINO5dskunTKnDuedT9+Amc3c0NgE5iQwNzXZLVvU5rx1X/0vC9xOFljAfEZXO6e9d3SH6Byn2aJZ30mFfb97uemxp+/L8e3lRce/r5syqpMW1RtrM2TL1s6ubnOX4zQBNTD0zrEznwGy5Wvg7HWoZtqtNKRP/U0d5PfAnC5Tjhn62y8fuWnGbLOZWSZgxnOc3Pq5Wv/xnVWavlK/Lzc/XhVjT0d0OgnMo4Cp92xzVnqufpYFlgUu+9DL/4g/WINbFjk1C2TmnF0dHaIDKY6TA20GE/9Zpel1qD9jaByl+GsTTdvoUnTg2gy5FCBbrjZDdlKXZ8mWq72LbClZW684mSWb3QFjz5H7QlJgii97kV1ZqiykG9osy+MBvGblniVbNn/HO96xvbu8MV/+U7vkVSY32XgnfZblzyOkG73YKDuhOwnsn//zf76ldIt36nmINutXfllgWeDkLLCA+eRseUVJe0cd8yE6p2nmB5hFPOfhGNMtXaXpUTrrrpbXBqAZnxsPy/VeQzJDdswlQPYqUkdo4utdZMvVNis551ne82WA7CZGxCsK9UN/tOyXzqXpW5luZNLlQx/60LaE7TARNw36A9r1ETBXJiM55Ga7aJXr86zT9Jj28NvqJDC7s930eD7fSWB0Tu/9+M5a/9XfssDtZIEFzBfsaucMOVCOE4ABntN2jDnuaY6c8qTFl4NXhxZQpX90QFeMx5nVZqSWqL2D3PNjAO11KGBhzN5H9kpP7yR7FQpQW4IVpn7lSzeG8Sd6+kvRRHmgKxiX08Ne85rXbDNms2c3ScZAf7yivLbZQX2hvpTxCpO2Ec7pD30F+rOxGyOPBmwCA8x3XN5IZ4e2QOf0btxbxfqzLLAscKoWWMB8qua9fuHTGQJms0rpaTvGAITGOeND2scXIOFBm6A126sDAMYBcAGdJWpgbIbsOa5la8+QjdPnFYGv58aXLu8UNkN2nOYDHvCAu3dbkyfSIX1K03kCEFrlPR9dgarNXnSjiw1fb37zm7dn3J2BTYa2+3FOueobu7S+Jp2c8wzpFzB7jOCLU4973OM2YH7qU5+6nY5Gx3jlG4v8CssCywKna4EFzKdr3x+RnrM75OjUzfoADWDd07Dvr34Oyd3XzbbqlCeNDGXO3sxTKnRj0fNjQPzly2dN20hlZgwIzdhEoA2U7Qy2qcuGpDsuz96AhgNCAKQ+2CT9pHtg1Hf043SlW3X0FYEz/d7ylrdswGw2b2Y/z+TWrqC9ULq3R3pli9qdV5p+U186ukbGyM5OAnvhC1+4PTKIj761PS/dV7/LArebBRYwn/EVz+EdcnbqZj3H2SawWXfaKqdD/aTrTAFOoIMfYHLyIp2BLeD14QevGQE6Efj5TKLlYe2Aoue3nm16J9kxmpauzZR9BSqgJbdZsnbRA0C6FekdfT+GymQ0UyaXnnZfv/71r9+O3jQGPGbS+mrsaIJU3NOzif7VV67f80rTc/ZPx+yk3mODV7ziFdsmsP24Z7uVXxZYFjhdCyxgPl37/oj0HPveUUavgXpOE4ABjkCp+htJ932QsdfjkFw8RUAzIzrQtFRtB7WNU54fW6o2M/bcGOiZEVs2FYGecWnrebEPS5iteV1H3rNlu7DV0TkAOaT/Xl+85AaIAc8sVx8wW1oHyt5V/vCHP7yNAX980kI6TJo61weNTGn9qlOunfJ5hPSdeshnW9fQDZGzs61WeJzghmmFZYFlgbO3wALmM7Z5jjFHWffRK0tznJwmIJvOfvJdS37Kn33LV96nU2660IEuwLXYs+NO6Pr6179+JHoX2ZI10K4fgGc2ZvmU8wfCXn9q6dqhFwC5GxH9Fqc+M5/e6ajOTFygL3r9l6+ebW1Acwa216PmkZuB+SZo96c+pbPfgBlNvMghHdnatfQ62nOe85ztWtgQ1iawizyGpduywK1ogQXMF+Sq7p34LHOcwE16EiGQOpQ2U9RP4BMYA2BAC4AtTwNeqTK65WszYro2K27GTx45otmwV57MkL1DCxC8k+xEL6AtGCsbpMNGvPwnMKksbRzqyFcOVCd/fM2UjYf+ZsueLduIBqi1CWDrB632aMoCmlB5K1zwP3udjdn1cpPkerhJckynDXfxXvAhLfWWBW4pCyxgviCXM8fOEcrPMrDhOAMrKuO7mtOcMg4NU31gSXaRo54R0AJcm6EsVwNiy7+AWbRc7Xlyy9NAsRlpQAnoepbstSc7rW3yciSk06emLtooi40zu6jbh2kHbYTaVU4WPUQ6Bsp2YXtvWdmNQfX1SV7t6yu59RWPdIb4ajfrziOfHulFBzZ17dwYea7vscLznve87RrFf626Jvd6212r/MW3LHA7WGAB8wW9ytPBcZxAM8CiMmBpVnjcEKaMyYNOHmds1mimC3SLngl7fcksWERvBzWABtp0kQLtZsXkcshFPG4oAJ3NXWbJ8/UnO4GBARBvbFIhGVNmeqvfj12dsAeEyuq16YaB7k4Ze8Mb3rDNmI2TrvinbZO7Cb+GP7O/a2A/U5apW+MyVnm/B4F9XCMHjtgMVpvjFE0OPvlZjqbt1eQcJ3/RlwVuRwssYL4JrnqOE4iasQIQDnSCE57ArXxl6cxzwoEqmUA3UJZOYJZXj69Zu36bWTIfp1vUtyjQ0SzZMrUjNM2SOX3PLz1fJiOQr11tG1vlnLxxCPUnFWpfeSPe9SeaGwQ6uRGxSc1mr95XRo9PWn7KkZ/67OuUtYvnUP150hpTtkpfdHbtN+Fb1p0E5vr1eGGObcqaY2rs6g/xT96VXxZYFjhsgQXMh+1yoaicJjAFJp6HWka2eSrwyqlyrPtoNgtQZyovTl5lfYj1Vz3adOaMk+PNUDlhcrRXdkiI5WrR82TLpEC6k7tqmzzpdOzyZEnJiy8eZTaob/RZF796ETADGRvT3vOe92zvK3/xi1/cbnaSUz/aCtH3cu+s/dG/6bCXsy//aMuzoaTHofG43lZE7rj8/vjzn//87Vmzxw72BOztQM6VZFV3NqNavSwL3FoWWMB8E1zPgNLu4be97W1HX758SIeQ8+NkOVUAOtMAuDSADnADPe2TJeWEi8rR4sFf202Ru/5oA/gsTwNgh4U8+tGP3kC5DV6BP53qtz6IQRPQZj/1XTr5ommHPuuSBZTpbObvyM3f+73f295XtiJAFzICH20K6GIyo+/TePQhKM+wL8+6s8inPz2mLlNfvwuPJqxuPOUpT9mA2YlgytnmODmTfhbjWX0sC9zKFljAfBNcXU6PA/WBB2c4mzVbcuZIW9LGk3Ms1aYYLT70aDlraTRmUQZoOfLqtG1mjVYfZlbA2OtPlkMtWfedZEuinPtsVx9ScpI/6fLCXoc7qT84SER9cfLTTb9m6Z6bf+ELXzjyYYr3ve9927vW9TnHSY42wl6v+EvrU4qWXWu/CbkAf66kL/Xo79q4SXHSWu+WP/e5z92uZ0PYy4m+Tyffvm6VlwWWBa5sgQXMV7bPhanl6Cy7vulNb9p2EDtBCzhb0gbOQiBRfiPe9ac66T6gBST6KeKLHuBIC/p1jCbQldpdfenSpe1Zspmy128AHnkBcnKmHrO/ZEvTedLwzpA+k3c/HvzG4atVlrABs9UHQG0MdFQ/ddqPW93su3z9Vr/XJ76p80XIGx/dpr7yrhN7uKZenXrpS1+6naO9t48xTHvtxzTHfSW+fbtVXhZYFrj8v3X5H+iHPd2yyoW1QK/3eLUHwPjgQptz9s6vyxrAzEHFW1pdbWbKWRc5bbN0jhsQ21VthmyZGiB7HulQCjNnsy7L2gFyMvU1+yVbHVoRT/zxKsenvlC9snry0Iy7SGc3MZ/+9KeP3vjGN25L2ZZs6RbgHLJTMqX1k15oQvTS6ivfyfWD8VQ+7zT90pc+8mLXuU1gXp/yO+sGcOqenEkrP2VfiS/+lS4LLAvcaYEFzDfRLwG4AGfHRr72ta/dDsRoxrx3fDnF6Dnd44Zb/WynLcACxEC2CJQ9Q3a29QRmm73waMe5F4FlQV06oQXMAaS6dFEf76ShC8mabeqLziIw8Z611Qa7sN/1rndtS9jspn7KkW/8M58O9VMb6dVCbafcq7U5jfp0Tw/laLM/9ZazbQLzSMJHLXwO0rX2ytt+PJWnjPJk7furbqXLAssCx1tgAfPxtrlQNRycmR+HCWD+/b//90ef+tSnfgiccrY5S22AY85xpgGiQaKLaPi1B2hmSTZymQVbluacbQSSB8JeeWopuxmVtsnaG7B+0NP1EM+eNsdDRiF65VL0biiArxO9zJQtYbuxsQEMvVly/NpPuyRvn+Kv78Yk3dO1i28v46zL9EjXqdfUr3q/ARsFrYDYBGbGbFlb+big7ZQrn7zosy+0FZYFlgUOW2AB82G7XDhqjk9qE9irX/3q7XUfz0kty3J6+2gQtQuIgFGAVF5dEW2CslmSDVxAWeScgfJ87Ykjd9PQbHWCG3n0ykmnD93Q0yVd41N3XJgyJk/jJ9N4gIuDQ5yB/brXvW47UKS26VWb+kv3ylN+bWujLn2l6I1nyjkka8o9z/zUrbHQ3TVtMx9gftaznrV9+es4Xadt4kme8rRZ9StdFlgWOGyBBcyH7XLhqDk+irWJybNmz0291wyIOD9OtQBgLdmKZrR2JstLlUUzXrNiz4SBsFmwVFRX+9oqW64GQIEQ3ThyaY4+PfYOeTprek4ZysmYctAEtPiTH32mbGHsZsdWF8Rmy+ktrQ9tDwX19V195dl20tIPLXptL2LaOKa+8uzbDZpDYV7+8pdvx6ceN4bGmrz4jqNXv9JlgWWBH7XAAuYftcmFpEwH56xqz0zNBL324+ARgMmRAoaACQ3oBsITZIFu8RAwowXAAVQOm9MOiDPW1A8t4MxRl8ZXGn3KQYten+rRAlTyp4zaqEf3nNQS9tvf/vbt9bKWsLNR8up3n87+Jy/Z9Tvb1P+kyR/i3fOcRZkeU8f0QpPfl9m36DzzV77yldt7zW7Q2HAfZnt1+/Kef5WXBZYFjrfAAubjbXOhanJ0lLJEayPYly8fNPKBD3xg+5CEGW6zXilgDXgBcoAtLQLwfaxOunfkdMiRHwLGDDZ1jVZa+3iUhdLo8ZdGj++QHGNxM+EZsm9Bu3Hpq1H0FYBKbZOdTOX40CY9XnqkSyk+9hLcsAh0QZ/8W8U5/2lM6Z46xt041LmxMRaPKByl+oIXvGDbBGaPgd9X7ZOXHOkcs/pDPJN/5ZcFlgV+2AILmH/YHhe2lCOcCn73u9/dXv3xnLlZL6cZMJspA2UgcaWQI+WcZ5x9lg+AAjByp/ONL/osTx0m/VB79Ycceu1qM8t0A7y+eGXpen41ih1aAaDHbJdeaJN+qP/axifFp2828bxfMLNEi28jXtA/dJzjkAfIRZ9/fPrTn77NmM2ebf6b49rbKXmG23W6oENfai0LXEgLLGC+kJflsFI5QymHZ+a8P1ISGDQLlp9Os/akT7oyUJn1aAJa9H0b9ZOGL8DWd/W1l05+9dXt6Vvj8ad6/LNN/cSqzuler3/967cZs5sWdgqUZ9vjZEYnc9/flerMMn0gQ7Baoc/CbBftLNP6b/zH9Y2vMbuWxmQTmHfVfaf5mc985tEdl8/Sji85ya9cP3t69StdFlgWON4CC5iPt82FrMnhpRzHx4Ga3Vh6bCk1x7kH3Nqrz2nmiMmMVlrdLF+Jby9fu2jpvE+rr49Dbaqb4+kmRJ0IFNvw5atRTvfqJqVVA+2FedOif3QyJtCnV2ntNgGX/0SXim4AfIlL8GjBLL2Q/pXPOq3/dK2cHpUbkzKb+D2xnVUYm8Be/OIXb8etTjuRUfvkrXRZYFngxi2wgPnGbXdhWnKellCBcwCTo8zRnpWy9Vf/J9UveWQHrMrAQQQclrC/9rWvbQeI2IXdV6PQ1afPcfqhx3O9OgdggNl75uTsgXkvs77SZ19/Ucr08/vy2/JBi9/+7d/e3mvOrvRsLBdF56XHssDNboEFzDf7FbysP6cJmC075ugBFodZ+byHmfNOn9Lo16rrbBcod2Pi/W4HiXiFzOY4dgEg+E4zAGagXHQjEDCn777/xn1c/Z7/PMst0ft050te8pJtE5jjWC3XG8f+2jW289R59b0scDNbYAHzzXz17tI9YGrGjHzIYd4MQw2ojnPuE2TlAa/nyH/4h3+4bfh697vfvb3nrb367HAaY09HdjdTBsyuBZ0As2fMjec0+j8rmd34+Z72M57xjG3G3EdKssEc52na/KzGvPpZFjhPCyxgPk/rn1DfwMCsJmDOSXKQ5U+oq1MXk745/DpERwtso6N9/etf397ntoT9+c9//uhP//RP796NvpdTu3uaJlfajBIw0xMgT2BuTPe0z/Nq3+/L4TN3XN745SSwX/u1Xzu6dPnDJdlhjhEt+nnpvPpdFriZLbCA+Sa9ejlCDtBSKlDmQEXlWW+Ilc9ruPW/d9jR02tfHx2fuoBZvpncZz7zmaM3vOENR1LvMLOB5WS8yT9ObvKvlh6SQ6YImC2dA2Zlr0rZLAWg57W4Wh8Xtd4Y2NRKgOVrwOxzkF6dyq7ZxxiiyUefNPQVlgWWBY63wALm421zoWumw5MPlJs1c6ZCDjH+8xpU/adPekSvvK+Pjk8dsC06B/srX/nKduTm2y+f8CUPDNvshT/5x8lN/tXS4+SQC5h7bU3fATMguxWA2dhFvzFjBci/9Vu/9SMngR2y8XF2u5q9V/2ywO1sgQXMN+nVnw5vOk7AHDgbWs4y/vMabv2nz5X0mDy1ayxAGfgBPSefvfWtb90OErGcbdbaTHnKuFJfN1qXXvoxU56bzQCzA1/oEjBfqz7H8dXfjep7Eu1asn/oQx969KIXvejoyU9+8vZhE6sDAt2P0/8k+l8ylgVuFwssYL4JrzQnnaPOGSoDAc4TMJvdoM368xzq1PdKekzHXpv4A2Vj886y3de+S203tnEbP57GLN3LSNZJpGSLgNn7y/QyY/f+siXfgFlfc1xX6vs4vtMcx5X0mXUBc5vAAPNjHvOY7SSw+NK/NPpKlwWWBa7dAguYr91WF4YzQKAQB5gTbKnxIgLztRqvsQRE0miADuh973vf244itdnrve9979E3vvGNDQTjkwLo7CNN3ka8gT/Jril5bgTYHDDbla1sJk9Hx6HKz37JmOVkHUoP9XeI7yxp/b5sbHvwgx+8PWt+9rOffffnIOfY6L8fw1nquvpaFriZLbCA+Sa9ejnB6fxynDc7MDc2l0beGAFtYOtZ8jvf+c7t9SjL2ZaRe7Yc/7TLSV3ivczsbSbpPfJDwLzve45tX7cvz/6up91ezkmU9S8aoxskNx6Pf/zjt/eaPXN2E0Lf9JSf+p+EDkvGssDtYoEFzDfplZ4OsCE0e+sZM56L4hzTI71LozeG0lkPkDl+47KE7atRv/u7v7stYRszGcDikCxAkh0O1dfftaZTRvY2YwbO+tnPmJPbeCqXRi+NPvuJdp7p1K8bEu8yv+IVr9g2gXmmbqUgvvTfl89zDKvvZYGbxQILmG+WK7XT85DDA1xAguOcgLRrei7FvaM+pP8hxbQDumbE3k/2jeUPf/jDR2+/vAvbEZye5QKE5CdDWR/TDnueeK8lnfqSI7KzmXKnrpEzgZnewmy7Ecaf6kqruie6JuO0Ur8xN0h3XH6n2ecgPWv2BSofu9jr3bj29NPSbcldFrgVLLCA+Va4ipfHwAFOYM4hXpTh5ZjpJVamn3z6zjr0ZssAz0cpvK/sc46+t+ydZfQAkKzaJ185mvobDWQU0usQMLf5q88+4tF2LsWTk37yU/bM7/mUzyukrxsdvzM3Iz7/6ItTRZvCjDPe89J19bsscLNbYAHzzX4FL+vPmYsTmC/asDjr9KRbzrs0QJKiiZw80DUuz5EtYb/mNa/ZNn4lI97GmxxthcrV35M0Wek2gdksUgDIZvAAWojeM3C0vc5oyS5FE/BehJAe9DNuS/eWr4Gxr04997nPPXKW9gLmi3C1lg43uwUWMN/kVzBH3kwGEMhf1JC+OfrS6FK0QNmM+I//+I+3V6PMlD/4wQ8efetb37p7plz7K40XT/KvxHelumQkxw3DBGYzSMGmKCBMb/Vm9YIld3RyZtwqL/9JbuWZ1veknVc+XYxNcJ2e8IQnHP2zf/bPtrSxNR7lFZYFlgWuzwILmK/PXheOmwMUOUozSzMZwHxRHWIOmyFz4vLRpYGyeuPygQq7sM2Yv/rVr27vDDcDPW6c5FQnTb6+biQkq5seOsqzt5uhCcxAWVAXMDuEw0xaO7KK+O6pbmScVcgOdG58j3rUo45e+cpXbl+d8px5vwmsNmel4+pnWeBmt8AC5pvsCubEp7MDXpwkYG4mU3385z1M+tClqJyOe92AF+A1Ju8sf/KTnzx685vfvC1hA0EygB++QuM8TmZ8N5omN2BW1ue8IULr2TLdA2z0di0HzHvdu5mK3nhuVN/Tbkc/vzc3JA960IOOfvVXf3V71vyIRzziyCch09/YxRWWBZYFrt0CC5iv3VYXgnM6vBQCDkCAo5zAoT7+eM8r5ZzpMvU55LDRLBMD5g4S+chHPnL0nve8Z/uKVDNlPLN9ciftJMea3EP2DZzxmC0KAEt0XYCtJW519A6c8WUTqfY3CzDTvd/dfe5zn6OHPexhGzD/yq/8ytHP//zPq95Cdqu80mWBZYGrW2AB89VtdOE5OEggAJgDqIumdA566heNrgETGvAyI7YL20zZCV/f/OY3t1d01E1wm/LOcswTQIF1gO3GQX4CszHtgXmva+OYcvc851lOv66Z1Dj95lwrp4HZBPaSl7xkO6aTrvGep96r72WBm9ECC5hvxqu207klRQCdA92xnHsxJ51+h8poQNcysF3Yn/rUp45e97rXbUvY3XQALrH2ZzWwqbe+6z86kEr/bpSaMaPPTWGB73G640/uvp/j2pw2feozdTJu4xUdOPLyl798O6qzZ+qnrdeSvyxwK1pgAfNNelVzlNQPCIDXdOp4cqLnPcz0Su/AiWMXmglLv/vd726g/PGPf/zoQx/60DZbnrPkOaY5xvo46bHqY+pd/9HqD13seljGFtHma1TGPtseJ4/cK9XV71ml6aK/rpu8352zwh/ykIccPec5z9k2gclb4m6cs602KywLLAscb4EFzMfb5kLX5PCkAYG0UP1FcYj0oFMzyz0wWw6Nx/nX73jHO7azsPucY8+WG0/jK0WvfTY4qVQfYn3UT33rp/HIuw5z8xdawNzO7L1MPMKUqawvYU/fiGf8Z+qSPmiA2e7z+973vtty9pOe9KSjX/7lXz564AMfeLfetT1jlVd3ywI3pQUWMN+Ul+1OpTlHQMcxmpkBhBzgdJwXYYj0otPUK12lgM04HPXYErbPOaIJ6if4TVnqyagPZfVTfv2qu5GQvGTWf/Spm+sguiZmknjcWABlS9pm/65bbZNJr+RO2o3oexpt6CbQberXjYjx/dRP/dS2Ccz3mr1GNduchk5L5rLArWiBBcw38VXl3DlF4CXK5zAvskOkW3oGuNI/+7M/295ZdpCI95a9s2ymOZexXS7tG5/yBIropdVVxn9PQnqTV0SjvxSt62LWbCbpulgRAFwOGpHHU5gy0ciIFs9FSekmdCOSDYynMflG88te9rJt9uw1sVZDLsoYlh7LAhfdAguYL/oV2umXY+S4OULOP3DOSWpyUR17w6ErHYGuyHlbwm4Xtm8sf//73/8hUJ5jmnaY4502iK5d/PV/0qk+6kdfro0ZszG4PsboJqMTwAKxq+mR3nPsV2tz0vWNjVxjodMhfdwc2vB26dKlo+c973nbs2bvON/73vc+aZWWvGWBW9oCC5hvsss7HTUnCZg5RI5e3ay/SEM7pJdZF0A2DjNLS9j/+T//56PPfOYzPwQAExgChL089Dn+xl7b+KOfRFqfZKWXfHoEzK4PYDZjbgYZn/RKIb2n/Cvxn0ZdNiS731n9TL2M03W83/3ut+3M9qz5KU95yvasOf6VLgssC1zdAguYr26jC8UxHTVAM0NpFhMgUHg6zAs1gLuUoR9Q9uzV5xy/+MUvbl+Neve73719zlFdy8N457gPjSee+OJBry7aPUmTT+bVwh6YjXUCs/bJkyaztLqr9XMW9enXEnYzfrqK6v0OjdkNiNO/fvEXf/GoZ82N6Sx0XX0sC9zsFljAfJNdwemsA2YzlZspcNIcfNGz5He9613bQSK+t+xZM+cOnGcIHCatfOCgPG2EPuviv9E02WTOcIjeDFJqrMZj89ccV+2k6XpI7qSddZ5u6Wcc9JzAnD5ofpPNqj1rfulLX7rea85AK10WuEYLLGC+RkNdFLYcOX04Qbt+A+ZDYLGnndc4cuz6D6Q4cDOslrCllubRgddxuk/6tMccW/TJO+uvN5+c5GqPVrk0PmkzSOMRjNsNR+CGVjupNrWfdfLnHdIz/RoTvabe+PwereQ4mvNZz3rW9qz5jjvu2N5rPu9xrP6XBW4GCyxgvhmu0tAxB4mUAwyY0Th9AZ+YI92I5/gnXejTZi+ne3lP2VnYb3rTm7bNXzZIWfINvPbjmONRd1yobvIfx3st9OQkVxu0yqXxVTdnkMZk7Oriq530EP1adDtLnqnv7LffHVq/S69OmTV71vz0pz/96MEPfvBssvLLAssCx1hgAfMxhrmo5OkYc4Ccf449QDOjiXYRxpIugRPw/drXvrYtYXs9yhK2Z82AS2wcjbcxHAK06qTVT9pJ5tPnuH4O1aOJAa908u3r6TtpJ6n/jcpqvM2UK89xkd1vEZ9VD8/UPWv2+hSQXmFZYFng6hZYwHx1G10ojhw2x9dSqbQQoJ0lMNNJyFmnyz5VD3TxW7L+3Oc+d/T617/+6NOf/vT2WhEaHrFxJDtZ9RG9dF9f+aTSa+1n8jUWOkTf669c3V5X9Pj3dWddTo89MKeH60Xffnfo8h5VPPKRj9w+bvHEJz5xe3XKqoiQzK2w/iwLLAvcbYEFzHeb4ubI5PyAsRmzOJ1lzg7fSTp2csnbh/pBx1P/ky+a1CzKKzXf+ta3tiM3f//3f387VCQgTo6yMMe2EdafC2WB+RvrOqO5bv1Gf+ZnfmZ7bcrM+QlPeMLR/e9//20M+GvToPqN7enVr3RZ4HawwALmm+wq5/QCZc6PE8yRleITK5/WMHOk5B/XV3SzZcD87W9/e9uB7dmy+J3vfOfuE77ScwFzlrgYadfZtRQrl3aNSycw+9LUz/3cz22g/I/+0T/avt3sd+D3INRGfi8PbYVlgdvNAguYb7IrznFxeh0sApinM8vJRTuJ4ZElkl2kQwHtOCBND/U9O/bO8mtf+9oNnL/3ve9tO3jb8JXMlV4sC3Qdu/60izY1VS/4fRSVXXufhfRes1nzT/7kT2471NUJtbuz9APZe3r1K10WuJUtsID5Jru6nCEwDpg5v+kgc5yTdk+HSJZI9iEAjo4nwM6h1s4Mic52Yn/iE5/YTvj6/Oc/v6lGplibqW80clY4Pwt0HWnQNZHfX5fq0EW/hzYp2pX9zGc+c9ul/bCHPWw7hKT2sx25heiVV7oscDtYYAHzTXaVOTLAPE/8MoS9gzutYeUoJwBHSwdp+ZavAfOf/MmfbMdt2oX9vve9b/vOsplyS5p7ncndy97zrPL5WOBar4vfgd+KmzI7tH/2Z39226X9/Oc//+jhD3/43b8T8ubvxqjm9T+fUa5elwXOxwILmM/H7jfcK+fVDARAFwLCHGb0k0qTWz/JnXR1ytLyQFdE/8pXvnL09re/fVvCljd77sAN8o6TXV8rvTgWmNf9OK3mb6HfKppd2i94wQu2JW3vOjsNrTB/A/VRGs9KlwVudQssYL6JrnCAN4E5p5VDq1wa/Z4MkyyRrBzsful5309tpM2YvBb16le/ens9ygxKMJPGU9jLib7Sm8MCXb+uqRTNb6D40z/900ePe9zjts9C+siFjWH7dvvRJm9PX+VlgVvRAguYb6KrmoMLmDk6Divnpz4HVprDuyfDnH0AZjKbBU+59RV/z47NjL0eZQf2G9/4xu2EL7Ok/Yav2h8nc9JX/mJaoGvY7y8t0f1e/X68x3zf+953O3DEM+dHPOIRR3ZuWz3ptzPbye/lVb/SZYFb0QILmG+iq8q5cWwTmJu55hAbTo5sT6/+elPyyEpe8smZ+VkPvIHvN7/5zaP3vOc929ejPvvZz24nfHHC6gucttB45JMlv8L5WqBr3DUpjZ520SvPenWuczw2gz3jGc/YZs6/8Au/sG0G27eLd8qJZ6XLAreqBRYw30RXthmHZWBROSDLgTWcHNmeXv1Jp/v+6FX4whe+sJ3wZTe2L0c5DcoSdjx0TM/jxpOslZ6PBfbXt+sVPa2iVz5U78bSx1fuc5/7bM+bHTziLG0fvZi/i2RI93Jm3covC9xqFljAfBNdUUAMkDk2kRPMYZXuHeNJDa++AtM589FH/cvj4WDtHHf+NUB+3etedwSgBbx4kqWc3uWV63PK3gSsP2duga5B16k0etftOMXi085vx+/X9bdy4v3m3/iN39ieO/d+85Rf2+NkL/qywK1mgQXMN9EVtYxttsmpTWDkuHJeObSTHha5+ghMZ//1VT0eS9hej3IetmfL7373u4++8Y1vbM8X2/B1SO/GQX4hWuWVnr0Fugb9vkqjl0Y/pOHkcX3dZJo5W9J2IpivUHm/2U7t5GhTu0MyF21Z4Fa0wALmm+iqAuTeX6Y255UDCzArl56UU5vyyKw8zUcH0bNj8ctf/vLR7/3e723Pln1J6vvf//4G2OqmwyUrIE5G44t+UuOY+q782Vug6+i6tl/Cxq/eb/71X//1DZz3mtVuT1/lZYFb0QILmG+iqwqYzTA4NI4KoAWQAG3Sop+lQ6OD2bC+3UB4Peo1r3nN0ac+9amtzBnvQTnzB8DVozc+6VmOI51WevIW2P9Gu+5+O4961KPuPrLzXve617a6ch6/45Mf9ZK4LHB9FljAfH32OlduwOzLTICZIxMC6bME5gmU09ECVc8M//Iv/3Lbif2xj33saH49Kh33Rgx0pckzLqE2Oeh921U+Gwvsr3m9dl1Ko3dN92V8U9acOT/wgQ88etrTnradDOa58/3ud791Q5YBV3pbWWAB801wuXN6+xkz1asLqHN8DWvvIKOfRgqYvaPqa1Ef/vCHt2fLjt889PWo9KZHgJxO6gLmnkfvxxXvSs/GAuzfb6lUz13H0rSZPGiV5wwZXdnv2vNmG78uXbq0AfM//If/8OiOO+64e4UF7wrLAreLBRYwn/OVvppDUy82s7D5q1lyqnN6ySnNEcZzT9J0ILMbgBwsudGbMf/BH/zBtoQNlG0As6wNYGt7LbrMcczxXUvbxXPxLNA17Lr6rQh+R4EzHpsGnQr2spe97Ojxj3/8dqMXL/7a453lrXD5T/TKe/7oK10WuMgWWMB8zlcnx5EahxwLHmBsZiFyZGh441eesqqbtPq4kTQ5gevsT189Wzbz8XrUf/yP/3F7xqwv9dql6430v9rc3BZw7edvpt+RUQXOfjtu4h760Idur0/Zpe24TjPpQr/DfkuVq5ceqos2+VZ+WeCiWmAB8wW5MjmYvQNB57gAc+B8vcBMxl7u9QxbWzFdtE0eGidrpuPZsleizJTf9KY3Hf3RH/3R3TOe+K+n38V761nA72WGANpvuiVtr0t5xvzEJz5xO3jE61TH/X728qbs8se1rX6lywIXzQILmC/IFcnB7J0Iek4rYEYT8YqVG8oh+l5uvNeSJg8vHYRo+uZcbfr69re/vT1X9t6y6Nnyj//4j2+gjW+FZQEW6PfqNxQwo/U791uyK9uStq9QAWm0uaSdnCza73v/O4se30qXBW4GCyxgPuOrlOO4VoeRw7LM1zI2B1Z7KZ693OPoNzrc+qsfKZo4ny074asNX17tMpPeO9Qb1WG1u/UsMH9X/Y79vkUft3jRi160bQZzfKcPn0z+rBGt8kz7vV6JZ/Kv/LLARbDAAuYzvgrX6yjwm6VOYEbL0UiV93KPo5/UcNOhZ8t0/OQnP3n0qle9aks5VgEop+tJ9b3k3NoW8Fv3WuCDHvSgu08E23/kIgv029r//qs/jl79SpcFLqIFFjCf8VW5XkeBH+jZFGPGfFz7Pf2kgXkvn9l6tmxmbNnaTPm1r33t0Ze+9KXt2TLQXmFZgAWO+z32u5pW8nv39sG9733vbSOYj1z8w8uvT126/CrVDBOUk4MWHe+kz7YrvyxwkS2wgPmMr871Ogr8ADlgTt3pfND2cqtHFyvX/iTSlrC9EuWUL8+Vfd7Rt5c9W17AfBJWvjVk+P31WzSi+Xvst9tIW8r2+/mJn/iJ7bUpS9qPecxjfujRSDL2cqOTl+xJq5+VLgtcVAssYD7jK5OjqNurOQz8gLmjOGc7bZNXmrzS6LW7J2kyySAXMDtQ5Ctf+crRW97ylm3G/NWvfvXoz//8z+9+b9mseup5T/pfbW8NC/Q7KvVbmr/T8gDazHk+a7Zj27PmNo1NGYesU/2hukVbFrioFljAfMZXJqdTt1dzHPh7v/P/Z+9Mv+Uozjvc33IS45hFmB0JscUsJkRATDA4BCIcs4RNBgTY+ZA/KefknHywzWJ2dMDYJA6GgLATbGMSwIAEYpfYAgYcO5+jp8hzeVX03Dszd27P9Mxb5/TUVNVb26+q3l9XdXU1BI28cbBNTzuGkYf+5rca27RJw/8oyB07djT33XdfebbMs8FYziTm1SA+P3Hph/QZ+4010+2ehChHv+cVPI7qZCnbr08deOCBS2kZ3/Tq/l6HK5d2IjDLCCQxd9w6Ko5aYbT548clMfPsjXh13C6rYP4QLgSM4uRAkW3btpVPPDKLlowp1zTL2iUumddgBOzH9AX6BkYijv1DOcLxt+/z6tT69evL7uzzzz+/2bD3WTNhyMT4xNMQjhkUrlzaicAsIpDE3HGrDFIYbf74QcYQIEt6KLNpKRrLB1yQL69B8RnHPXv2lGfLHijCMiPPBqdVzo6bM7MbEgH6D30CYuY/fVm/2FdqwsZNf2LPAu81X3HFFeVZM37xBtD+aVq1e8hiplgiMBMIJDFPuRlUIBYjKhbCJGZmzcsRc4xHWqarv+mvxiZNFSUEzE5sNnzxwQrfXeaZM8RNvjFvy7Oa/DNufxGI/cF+RG30byNs5JTl5pTPQl511VVl5uxnIUlDuZge/9MkAn1FIIl5yi2HUolGMosKCaUEQc8CMVMuiJcZDJu+HnrooULOu3fvbn73u9+1ntAU65f/FxsB+7v9HDT47xI3/Twa5LkpZe8Cy9mbN29uNm3aVP5z6AgGmZhuTDumlf8Tgb4gkMTcUUtFxRGz1F8/lIqKBiKGlCVm/AcpHf1NTxt/0zSP1doQM0ck7ty5s3ysgtkyz5pRqi4xkkcsw2rzzPj9RYB+4I0l/yFhHoU4S8bPPmqfkagdA5Azm77qM7RFxXj1ONCtXNqJQB8QSGLuqJVqxWG2+uuOCgplhkKKSm2QotHf9LD1M03zGNcmHRUmZWLT1x133NE899xzJS/CXMa2HORlOcbNN+P1G4G6H9NH3ItAP7Gv+D/2M4hZciYO5MyBI5deemlz4oknLgET+5jpEIh/DFuKkH8SgRlGIIm548ZRCQ1SFoZTLBRafbBIx8Vdyo5yoVCZEbMR7cMPPyzPlXlNateuXUsnfVkv66Fi1L2UYP7pFQJ1uw4qfC1Hu9OPeQ/ffRL0Iw4OYdWlljdd/SFl0tAm/LTTTmtuvPHGYkd54yhPGDeL+iubdiIw6wgkMXfcQhLUIGURw1nCRqFhD5LvqviUC4XK5i4OEHnttdfKpi8OFuFQkXjSl3WgbM6wo19XZc58JocA/W+YNlQGefsshEw/5oaOvkw/or/EjYIxnqXWD5vLdJgpX3PNNeVZM99qJp2YH7IQOSaJWTTT7hMCScwdt5bKRqVVZx/DZ4mYKafEzG7sp59+umz6+tWvflV2Z6tkkaMOg+pHeJr+IhDbtm5jyJDZMf70FS6MM2ZWfyBnDP2Fi1kz5CmREpfLcVCE9/7gZjyQxuGHH96cc8455cARdmqvW7dOsaV+Z/y6jEuC+ScRmGEEkpg7bpyVFIbhFEtFhD0LCoZlbJQpO7C3b99eiJkPVnz88cdLCpbyq1ypA279cKfpNwL2z7qNqRXkKvFCuPQX5PSHVJk542bzF32J58YQOH6k7QpLG0oQPOnzqtTGjRub008/vfnLvSeCsVs7mlkYK7E8+T8RGBWBJOZREVulfFRsbUkZji0xOwtpk+/KD2XnjBky5itS7Mb+4IMPirIlDKVKuWulrV9XZc18Jo8AbUo7cmFs4+hHf+W1Jvwg3PgtbvuyR7bal3jWDIFDzBrSrg1+yJAOcYnHJrAtW7aUA0fa5PGL5a1l0p0IzCoCScwdt8xKikJFh40SYoYwa8Tsa1IsZ/OaFOWMz/JU2kBrfTuGObObMAK0aWxL3dGPZ8CcBgeBukzta1HOdukvyBGfWTUEiwxujOnpjtUgjLQl6JNPPrnZunVrmTmTHwRv/BiP/23p1TLpTgRmBYEk5llpif8vB4pFBQThocRmjZhfeOGF5vbbby/PmSkjihLF5zVjkGZx1gAB2tq+SvK4uYnkkBn6K6TLBWEyw0WWcIgZGzdEysxaUiUN+hLGJe2YRwnY+0OfY0n8uOOOa/gcJB+3OPjgg5vPfe5znykTcUg3TSLQJwSSmGestVREKDeJWeKbZlFRbi4/8t7yLbfc0jzzzDP7FAkZL+qBUSnq3idCOnqLAO1qX6USECk3kRAzNm5nxBAwBn+WsuMqkDNrCVxijv3GfOxbjAvSYRPYueeeu88mMGXJT3n+p0kE+oRAEvOMtRaKBeUkMccZ6TSLipKDmFG2v/71r5ubbrqpEDN+KGHKjYwzHRWsbsLT9B8B2hhje2rTzvRVZsRs8sKfJWpmsfQZ4tGnCeOCpJGBtAln5iyBkz7yhHvhh8GfvkUabAI79thjy1L21772tWbDhg1FhjgYy1oc+ZMI9AiBJOYZayyUCooHxYWiQ5nhN20lQ/4SMyd+fe973yvE7AYflaFEnMQ8Yx1rQsWxH9LeXvYN+itLzBIvRLvffvsV4qVf0CeQYcbMhRt/+lBNzBY35hH9GB/Eg5w5cISvTnFcJ2WxjMqnnQj0DYEk5o5aTOJaSWkgBxlLzCgv/FaKt9bVIP+amCFolCPK1frVxDztcq81LouWvu1Je3vhJ/FCuM6K6S9xxgxWxKF/R2JGzhs88bQ/6a7z9YaV8FNPPbW57rrryi5t+6Px0k4E+ohAEnNHraaiUcEMyjYqLmYXuLlWijcovUn5k78K9Pnnny+bvyBmFaTl055UvpnObCFg+9qf7Zv4858+y00l5IwfJ3xBlhpv4pBxxowfF/KmTxgm+uEmDy/z4ZARXptiE9gXvvCFMvtGNk0i0FcEkpg7ajmUCUbFMyhb5CA7FJvEPEy8QelNyp9yS8ycjf3AAw+UXdkfffRRKSthtRI1b+q0Ur2VTXs2EViuDWO7Q6iSM/48P6ZvSLQSMH0cM6hfxPESZfA3jHwYJ0cffXRzwQUXlGfNG/Y+Zz7ggAOWQIxxlzzzTyIw4wgkMXfUQCqTlRQFciocbM1K8ZRbK5v8JWbOxn700UfLASOv7T0zm7OzXUK0nNoqUt1rVb5MdzoI2K7Y9nFIWCL2hk03xByN8e0nhJkO/w3nP8Yw/CF3lsQPOuigspzNgSNnnnlm2a1tPO1PYudvItAPBJKYO2qnqFDIUrfZq0Dwh5DZROOsAhnDlZ+GjZJlBsRZ2Zz69dRTT5ULt++iWlbLW9dzGuXOPCePAO1KG8d21q/OTRn8JegYF3/7ibbhuPVDDmMYabGcTd/jPWY2gV1yySXNCSecsCRn3FiGEpg/icAMI5DE3FHj1ApCt9mjOPTz2RkErULRVn4aNrMdZsa8q/rGG2+Us7IfeeSR5vXXX186SIJyelFG6sQ1C+WfBmbzkqftZx+t21R/5bSVw81/yBTbJW3jiZNuZ9a49VOGtAjH31Ulbhq//OUvl69OYeNWhniWxzTSTgRmGYEk5o5aR+WighjkRnGhbHh2xowZeeN0VNSB2VAOFB7l4oAHDhjZtm1bs2PHjqIEVbbKUUdn/XU96vqbKf5RVjnDV2uTtsa0tfGP4bgNq/0JSzM8AuAnltij4mlc40m6+DNeuJnldalrr722PGv2qM863vAlTslEYHoIJDF3hH2tINrc+EnMvk6iIuqomMtmQ1m4UIpcL774YnP//fcXguY5M8rRmQrhGOqjWa4uhoEBl3mJk2lMwjYv0jI//kd/3GlmFwHbivaDmLlR5ItTHtF5yCGHLB3RSS2Un90aZckSgU8RSGL+FIs1/SfBqCDa3Pgxw3QGAKkpv6aFGyFxygP5cnjEW2+91TzxxBPleTPnZ3/44YcDnzVL0MTnoq5iQPakiaH+0T/KF4Exf0yT9DDa/DeM/2lmEwHby34US+kKE0d0nn322eW1qZNOOqk8d45y+T8R6AsCScwdtZTKXwXT5kbpSMwom1klZmbDPGvmO8zsyuYrUz/96U8bdms7mwbW+F+FSv25qL8YKIuNXPSP8oSPa0xT/Ekn/setDP+jsbzRL/93h0DsA/ajmDtjhtUa3mE+/vjjy1I2Z2jX32mOcfJ/IjDLCCQxz1DrqGAgZWeOUSnNQlEtD6RLGdk9zjPmBx98sGHWzJIi5WcGjGw0xo1+/pcUlYluZHQrP64d06nL15ZPm8y4eWe88RGgHWg72y+2C2RNX+RmkSM6eW3KIzrb5McvRcZMBLpBIIm5G5yHygXlwrNlZ8tEUgGpYIZKaA2FLA+2M2dmyo8//niZOb/66qtlJk0YMlE+ui0iftTNmZDxrK/xdRtvNXZMy/Rjeoa3hUW5/D89BGLb0F7eyFIidmVff/31xaY/2aemV9rMOREYDYEk5tHwWrX0ckof5TLoxC/jrboAYyZg/ihELtwoPGYpfFHo3XffLZvAHnrooeaVV15ZCudZNHK1iYqVMJewSdc86jircZuf9dA2TcN1Y0e/Wj7K5f+1RyD2C9oFd2wT/nNDy/jh+TLEzBGdfByDPpomEegTAknMHbeWyiQqfYugYsHWKGc8/bu2zd/ykD///VQfxPryyy83Dz/8cMMZ2u+9915Z1mZJOy5rx3RiWs6YDTf9SdXTvExf2/QNH5RvLW+8tLtBAPxpI2/yvJGL7cVzZm4SjzvuuObyyy9vNm3aVDaA8SGNNIlAnxBIYu64tVTwkQgsAoRcn/hl2KzYsfwuEVIXLl6Z2rNnT5k5P/bYY2VjGPLIQeDIxPhtGNSK17SNN2kc6nTbyjTpPDO90RGgnewLxK6JmTBWnBg/hx12WHPOOeeUGTPvNq9bt270DDNGIjBFBJKYOwZfImgjAIkZuy2846Lukx3loeyx/JYRG0IljFkLS9mcpf3cc88177//fvP73/9+KS1klcfTNIgb/VW8ypvvUkIj/jG++cXohuHXFh5l8/90ELB/0D78t82iP32GPRr7779/2Z3NJjB2Z/ORizSJQJ8QSGLuuLVUKDUB4C8xc+dPuEqo4yIOzC6WGSWIsZz+x+bIznfeeafs0uY9Z4gaP+rFWdvxubN4aMf0SEt//q/GmE6dPmkaVv+P+cW6R//83y0CtpXtEd38t4+5O5slbT4LmSYR6BMCScwdt1ZUJDFr/GedmCmvM2NntC49E4ay5HmyCpLd2r/4xS8KQe/evbvhE5HUkXCfO9d44I7kaTjpd2livpJAl/lnXvsiQBvQJraL/S76EcNw/rM7e+vWreXjFshnO4JKmj4gkMQ8A62kconEDHFhDJu2UlHhRYVI+SwX4fyPF8/7OA3MQ0g4whOy5lm0s2bkqav1lfBjujEf/o9jTI8ZlZiSDv7UyXqZtvXVnfb0EKCNuGgTV2psr7q/UEramEcqJ598ctmdffrppy99ZGV6tcicE4HhEUhiHh6rNZNU4UDMfrxCopJEJJY1K8QKCUtUUUkSxXLFcIlOm+fMzz//fLNz585m165dzdtvv12WtiFuFCtpSNTWty6O+dT+w7qJT15gzKWC96bA/E3P+uhOe3oI0HZctIntFomZksX+ASnTtzgF7Oqrry6bwA444IDmD//wD6dXicw5ERgBgSTmEcCapKiKPyocFArEjPLpCzGLCfVROWKjOLG5qBevsfzmN79pWNKGnHmlitkzz54hSt41hRypt+mY9iRsyueND+XhP/mQJ3n77NsyIx/baBJlyDTGR4B2iW0iMddtxNiRmNn0deGFFxZiPuaYYxrIOU0i0AcEkpin0EoqE7JG4aBMWH6DLNhVSnhUPLiRm6aJZVBJUp5YF9yWE9v/kC3kR91Y2ub7zRAzm8L++7//uzx7hrhRqJHQjR/T5f+ohjJGhR2JmbJByh5EYf7EiXWLZRk1/5SfHAK0iW2BrVs/25kb3IMPPricm81BI7zTzGtUaRKBPiCQxNxxK7Upe5UJxMyFTCTmjos4sexUltiuADib4Tkzh5BA0sygOW+b08Mgb4xLy8SNVyxcG5bmaRhu8AVX8kZhi7Ey3DTw/V4I2nISxmV6Md/83z0CtIPtVedOmO1EW3uTu99++zV8cYrXpjZv3twce+yxS2koX6dlHoPCa/l0JwJrgUAS81qgukyabQPfzSoQBv8lBJSD8sskOfNB1MOLGw7ID5tlbJ43M3PmAxgsc/PFKt575hkhJC2JOpPVttIRH/MgTH/8IjGTLhhrCOMmIBIzcYyvjV+a6SEQ22RQKZShzWhj2/W0004rz5o5qlMzqD2zvUUo7WkikMTcMfptA38QMXdctDXNjnqjDCOxQopxBv3BBx+Uk8PYxR03iSFDPAjdi7S8SJu0zKNWuoZD9H79ivQwhKHA/+AP/qAst+NvXoRJ4ua1piBl4isiULcxbi/bCDf9wT7Ba1Pf+ta3ymtTytR9ZMWMUyAR6BCBJOYOwSYrlAYmKgaUv7NDlUkMLxF6/BMVZyRE/kOKkC315TkzB5O88cYbDa9WMYPmmTTL3hAqy9DgBEbIEx+bS1yFCb9oCCcus3Fm4cZDhvzd/GV5SJs4sT3qNGP6+b8bBGhHNo5NAAA6PElEQVST2Ha4vShB7F/e9DFTvvHGG5c+akEbZ1t2016Zy3gIJDGPh9tEY9XEHBNXgaB85sFYH23rhJs6QpqQMMvcHEgCMbPczSyaXdz8/+1vf1tkI7GrbFXSpq+NP8RMuihs/A0jHYiZZ83MnCFqCBmjzLzgL959tWmH2HbUw7aJYch4I8ZHLa688sqyAeyggw4qjy1sV3Ewjdrf8LQTgS4RSGLuEu0BeUHMcVNSFFNRqDhiWB//Wx9s6hTrFYmWcDCBhNkUxiYxZtJ8JIMlb2bXEDjK1+fQdVrgQzrmKTFj608ciFhSdgOYM+U4A+sj3vNeZtvWtsfGj3ajX7BCcsQRRzQXXHBBmTFv3LixOfDAAwssxsVh/Og379hl/WYXgSTmGWgbFIjEXBdHRaHiqMP74rb8g4iOelpXZJy1MrsFGzZtOZOGmN96660yg2YWze5uNo1BuMTzMi9sLsJZFveZNflBwMhDyC5nG68v2C5SOe0j9YoG/vQx/WlD/tN3mCWfcsop5dWps846q+zUFjPTs3/qNjztRGAaCCQxTwP1Ks9FJWaUIYrQC7d+KFaVJDbkiY2yZRYNMfMMmlk0y9u8D40/5IsyxgZXDGkRH7dL2ZIv6RHm5i+WxA0jbipsUJgdQ9vQJrSbfSX2H/wx9hVWo/geM+8w89rURRdd1PraVLbz7LRxlmRv/93bIefj4WWPWxPCYEaIjUKZRxOVKPWLCjQqVuTskvijiMVEN8oWvLyYBTOLduMYhM1VP4smHrNuZswY8yIPiNlZM0Qdwy178cyfqSBgG3jTRFvGfmIfst0kbmxutjiOE2LesmVLOUM7xjUOtn2N/2kSgWkhkMQ8LeRDvotAzFZXxScxq2gJV1lq4xfDdeMXL4iWmTCzZp9Fs8SNG3+fR7skDt7k4UVaNTEbRp5ppo8A7RHJ1/5jyQzDRlZith1x89rUDTfcUAiaNjcOaSCHwS9NIjBtBJKYp9wCKASIAtKIM2YVhApjysVcs+xRkNRRRarCHJQhsmCDnLL4MYPyeTQbfiBkNo29+uqr5QAT3ovmYxrIIKtiJy4zZGfLLmXjj7EdBpUn/aeLgO0T+wUlckZNuDe+vDYFMXNEJ0ew0tYrmewHKyGU4WuBQBLzWqA6ZJoMei6JGWWiotFWMQyZ5MyKxfpYJ/z0p+4YyXZQRSTUKEcaErXL0Mj5yUlOFuO9aJ5Hu1EsPjpAQfuMmd3ZpFeXUfegcqX/2iJgm9gOuL3w059+gLGfIMPNGKsmfG3qqquuKq9NsTN7mK9NmS7ppEkEukIgibkrpFvyYdCjQCBmNitJTiocoqh0+q4YLL/1iQrPMOrrf8PxiyaGK4Mfl2StDHiyEsEMml3bL730UvPTn/60nMvN7Jnnzc6WXcrGJp3YFuRvXrEs+b8bBGxf2iASbpu/JULWcNqStj7qqKOWXps6ZoWvTdne9iXTTTsR6AKBJOYuUB6Qh4pmEYi5hoC6R+WpAlQhRnn9kIE0cauglTM+theky2wYN/Kv7T2kZPv27c2TTz5ZzubmM5TMkFnGjjNm8kDe8pGHZTC/tLtFwPalHWyX6EdpbCNt/LzJYoXki1/8Ypkts5TNRrBDDz0UkVZjGubRKpSeicAaIZDEvEbADpMsg5+7eYiZ5bZIBioEZLh0D5PuLMqo6FCUGv1wWz8JFzn8rL8YKBfjmp62Mtik48UubTaHPfXUU81DDz1U/kPMXhC5cS0Hbq7l8jPftLtDwDaxXep+pT9yrpx84QtfKMvZp59+enPuuec269evX2rvuuQxfh2W7kRgrRFIYl5rhJdJH+UvMUPOkgFRUCgYFURx9PjHekQFGutnfcUAuVr5Wn39cRvP9JXRJpy0mDnzuABy/s///M/m3nvvLc+dnSlLyuZveqZvemlPBwHaw7bQxo/2so2xbTdtSosMN75s+Fq3bl2ZLV9yySXNCSecsJRmXSvjm1cdnu5EYC0RSGJeS3SXSZuBzwUhS86SAtFSMXxCuuKwDJQrBkHMEC/KmXeeIeZ77rmnPHNmA1C94YsEVciTyH/FAqbA2AjQPrZVJOaYIDK2I/2A16auv/76Yke5/J8IzAoCScxTagkUBUQMMUvOKg+K5H+UzSCFM6Wi9y5b8EMhxxnztm3byqclORWK2TR415jbDviTRpp+I8A4YzPgqaee2nz7298ur03RL+pVnH7XMks/DwgkMXfUiip9s0PRM1P26EhIOhKA8shx6TZ+2sMj4IyZDUDsxmbG/MADD5T3myXmuFpByhKxuOsePteUnCUEaEeImT7wpS99qdm6dWshZtqfFZO6nWv3LNUlyzL/CCQxd9TGDnSzQ9G7KQWFQThXGwHgV8c3nbRXRsBnzLw2xRnbEPO//Mu/lPea/+iP/qjMmOsbI9tB3HWvnFtKzCICtCPjjNem+AzkFVdcUYj54IMPLp+BrNu5ds9inbJM84tAEnNHbds20Gti7qgoC5cNy5XMitj4xWEj7Mp+9NFHyyckIWbCIzEnCc9fF5GYmTH7PvOmTZuaY/a+z7z//vt/5oa4bbzOHypZo1lFIIm5o5ZpG+g+84KgDbc4kkPtb3jawyMA8bL7mveWn3/++TJj/o//+I/y0Qs2fyUxD49lXyUZR94I8z7zGWecUT4Dedppp5X3mR1v1A9Zxx3+Mayv9c9y9wuBJOaO2isOdLLEDTHHE7+UIVxlEP3wTzM6Ah65yUctWMbmYtaMm1doJGZSFvfRc8kYs44AxMzO/D/+4z8un370feYNGzbs0+6MOcddEvOst+p8li+JuaN2jQOdLHFLzNgogFohdFS0uc9GYuazkD//+c8LMT/33HPlU5ESs+0z92AscAV5XMFYi+8zX3zxxZ95n7keh3mztsCdZkpVT2KeEvBki5LgmZfEjJ8EoTKo3cikGQ0BiXnPnj3N448/3vzXf/1XeYf5o48+KsdxMmOOBszFP/rn/34jQLtCzmwG5BhWlrGvueaa5pRTTtmnvZGL4y77Qr/bvY+lT2KeQqs58CVmltjiu5SEqwyigphCUeciS4mZr0s9/PDDhZj5z2EjbAoDe/G3bcR/LgDIShQEbFvImYv3mfkMJARNH7EPIJzjLjvNNBFIYu4YfZUDZAwxc+CBd/GRDFIxTK5hJGa+zfzggw8WYubzj35dKol5cljPakqMLcYUY41xx94O32fmWTO78z0Bjjrk+JvVllyMciUxd9zODHhnymxEwY3SgBySmNemMSBmli537drV3Hfffc3TTz9dPgOJcpaUnS2pkNemJJnqtBCQmGlfxp3vM1922WXli1O8z7zffvstjUH7QRyT0yp75rt4CCQxd9zmDHiUAq/uQND1nXoqgsk2CHjyDBli3rFjR3PXXXcVYnalgnCvyeacqc0iAow/b4wPP/zw5qtf/Wp5bYrZMx+4yPE3i622eGVKYu64zVEMHHSxe/fu8l6lJw9RDMJSMUy2QcBTYmYn9q233to888wzS5lEvPmvm7ZIM58I+D7zAQcc0Jx44omFmM8555xy8IjtP581z1r1BYEk5o5bCoX/wQcflE8OoiA2btzY8J1Ynn0RJjmrIKJfx0XtdXbiRyUgZp4fPvvss833vve9Qsy4693YyBKPC9zTzA8CcVwx1ljO5tCZgw46qHwG8tJLLy0kXdfYfhD7Uy2T7kRg0ggkMU8a0RXSY6DzPi2HXPCfnaHMmllek5wlB5JChisVwwrAtgSLIzbPkJkpQ8wQNO+y8uy5Nolzjch8uB1DtC//uSnG0Af4DOS1115bxiI3a7EPIIuJfsUjfxKBNUQgiXkNwW1LmoH+5ptvNv/+7/9eFMRf/MVfNDzr8itTdZxUDJ8gUuOggo14qTyjLISMmxsf3l++7bbbyrGczJZQysbRNj3i4Ke/aRqedj8RsB2xfTPipJNOKl+bYne2N2zK2f79rG2Wuq8IJDF33HIMeF7b+bd/+7eS8/nnn98cffTR5bUpyCNNOwK1okRh4hf9VaLRjxkQuP7v//5vWaW4++67m507dy4pYOIYzzQpAWnEMNNsL1369gUB2tG2pV9wwA9fm7r88suX/dpUX+qX5ZwPBJKYp9COvLbz4x//uOS8efPmZv369fucmT2FIs18lhJjTaLRPxIrFcLNrJgd2B9++GEhZl6XAn8+XsFzZuXKn/AT0w3e+bfnCNiuVINHR/QNVqzOPvvspd3ZPFpSzv7W82pn8XuGQBJzRw3GQGfpjE0nEAMnULHM+vWvf73ZsPcQ/biUHZWB/1UUHRV35rKx/uKhrX9bgcEXYma2/Pbbbxdi5oCR1157bek1tbZ4+Jmu+QySS//+IuAmMDZfMmv+0z/90+bcc88tN8rZ/v1t13koeRJzB63IIOfi/eWPP/64fBOYjynwPOuiiy4qxOyZ2RZHQtBWURg+qm180xsUf1i5QfG78rceltd8dRMOMTMr5vU0Hh+w4e6RRx4pr6r5/nhbPNMwLO3+I0Cb2mesDcTMzTLvuPPFKY7mvOKKK8qJYPaBOo5x004E1hKBJOa1RPf/02aQc0HKfEjhlVdeKa9Lcad+wQUX7POMOSoElILu1RbTdFZSNMPKrbY8k4jfhk8sP8+XUboc5vLCCy+UTz3G7zAzm8YYh//iE/3wT9NvBGhP29aa4OebEPjxhsR11123z9nZdRzjpp0IrCUCScxriW5IGyXA93855OL1118v7zLzwfbzzjuvOeKII5Y2f6kIsKPiwG1YSHbsv6ZFHn0yltfy12WP4RAvxFx/h/n9998v77ASrjz2chgrV+eX7n4iYHtiswmMZ81/8id/0nzzm98sm8A+//nPlz4yqJ/1s9ZZ6r4gkMTcYUvxmhQzNk79whx11FHNV77yleawww4ru0NZVovkgNLwjj76T6LIKhwV1CTS7CINy2v5Y56EcYkVxMtrUTxffuKJJ8pSNjNnZtAQdjxgJKY7KO2YV/7vNwK2N7Vw1z6bMNnz8Wd/9mdlFYsVLUxbfygB+ZMIrBECScxrBGydLIrg5Zdfbv71X/+1eeutt8qJQ8cee2xRAsycuWOPxIwyIA7EjJm0cjC9qKDqMsd8V5JriztJP/GwHJY/5kEYF2FcEjM3Qo899lh5j5nHCDxzJmwQMcc08/98IGB/sf9o48+4Y48Hp4Bx2AjEfOaZZ5bd2tbe+LrTTgTWEoEk5rVEN6SNInj++eebe++9t3n33Xeb448/vmwy4bkWCoFd2SgIDYqASwWi/6RsFc1K6Q8rN6lyDUpHLCyv5arlY7jEzKMDbog4YITZ8+9+97tCymwOM50Yr04z3fONADe/vC3BK3SHHHJI2Z39jW98o+zUtub2E91pJwJriUAS81qiG9JG8bMrmCMheeb553/+50UB8FyLw/RZToOYuZBFEbQRR0hyof6CB7gMItC2cImZlYoHHnigfFWKZWxmR2Ab8W0D07wIS8XchlD//GI72r7YrkyxisLu7K1bt5bNYMpr96/GWeI+IpDE3EGrMfC5fvnLXzb/+I//WJ5xXnjhhc0ZZ5zRsJy9//77L5EyBI0sioAL8sDgt8hGxSiWusUEt2H44ZaYX3zxxeaee+4pxMw7zcyOCJeYjWs87JhW9Od/mv4hQHvSzl64MbGdGXvctPEJSIiZJW1fqyNemkSgKwSSmDtAmsHPTJgNSP/wD//QfPTRRw1fsznrrLPKJhPeoVTGzV4Ua5LKwLSiQopVN1xbuSgzzf8rlYtwymy5cUPMbPJiw9ftt99eiHmlG5+V8pkmBn3KWxwts+2iu2ub/ClTW7ksG32DG7cNew/8YSl706ZNzZFHHlnece66vJnfYiOQxNxB+zND+/3vf1+I+Z/+6Z/Kfw4yYDmbV6V4NQNC9lKJUDSVRq1QRi228U1P23QM167DlZuWvVK56nDcvsf861//urn55pvL16VcgSCcS3esL/7RPa069zlfMIymD3gyTpkxsxmT1SxmzHzY4tBDD41Vyf+JwJojkMS85hA3ZbMRm4447evOO+8sBAwxM2OGmD/3uc+V5VU3f0kaFA2FxlUrulGLbXwVpLbpGK5tuLb+yndtm7/lqfOvw3FDzH6H+bvf/e5nvsPsUjZp+YzRdOr00708AivhNqjdlk91cqGWrx5j+ntTzKyZ8egmMF6f4rhO5SZXokwpERiMQBLzYGwmFvLBBx+Uk74gZj5eAVlIzLzDzHMsd2WjALwowKQUWlQsKCfyk4wgKMoEkSlnvtr6TwyUERMif8vSFtXyIcN/L+r29NNPl013zJz9rB9pKMN/sdAfO83KCIAhmHtFHIktxtorpzh5CfOmjPR9bG/KsHFTbuvgeOCNiS1btjSnnHJKeSyCf5pEoAsEkphXiTKDGcPgjyb6897yr371q7L5i+fM++23XyFm3pXkzpzXNFhGi3fzMa1J/Ld82CzXcTwoNm4O4fCkI5WP5Z9E3pNMw3ItV07qxE0GyhZc2Q3//e9/vzxrdjNPW5lMmzDxapNbZD8wEhtsLnBmpskF3pIzbUQ7uHKB27hiGDHHL7qVxY7+xh3FNg3TwW36+mFzMQ6pC99p5iQwPm7BLJr9Chrj1GkMchsv7URgGASSmIdBaRkZBygiDkr+648fXzPigAt2ZXMk57p165orr7yyPMfiE3PM4iTmmAbpYPAzvU98xvslHZQjH9PgWEo2umAgZjag+SnE5UhvvJwnF0sclisj9YQMUK4824eY77rrrrJqATGjYE2nLpn+be1Qyy6iO+IDRlyuwLAKYz8GG9pIUgZzNuMZR+xMb5Bb+VpO+XFt0sXU6eKm33DTeswxx5RNYDxrdi9IHadOp3aXTPb+6K877URgOQSSmJdDpyXMgRwHmn6I668f7pdeeqn50Y9+VIiZwy74/uvVV19ddn1yuAjE6EzD+Nqm01KUob1Ig1kMipIla5QOy+sQM2EoT8oAMUtcJj6J/E1rknaNj+XEn4s6QRT1d5iXmzFPsnzzlhaYgnGNM26JjD7Mf+VsC/ocN5/Y9EH9wcj0xKt2K1v7Kz+ubXqmbzr4c6PBSXzcNDNbhpi5eOxkPOWJP8ggq3ydz6A46Z8IgEAS84j9IA60GLX2140MJ37dfffdhZiZqXInzrMrXsfgHWZmEyg0yNOBrh3TifmN8p80IjFLWBCzy+eSMzNnSFoF6rLkKPl1IVvjI074O1Ojfu+880458cvvMLsq0EUZ5ykPcAXjiDP1o39AyNzsYSujHDLMlMGdfm6/Ij3TREYT4xGOaZNTflTbtMwHt/mYFmOCunATx000O7P5PCtnDhhPWePqr5tw/KJ/DDN+2olAGwJJzG2oLOPnQFNkucGmLEdB8roOz5khixNPPHHpKzYQITOJtpkGeTi4l8vHsqxkk4YzSc6LpizeEJBPXNJ22RHFS9gk8l+pfMOEWw6xNY5u60g9qeNrex8jgL/fYYYgqFua8RAQZwiW//QfbvQgZgjN9iF1wrloC2bMEDP/kfEyvfFKM3ws8jFPYnnDGcuLP27CrAtjgpPA+Bwkm8BieZHVrR3zIL3ojztNIjAMAknMw6AUZBxoetUDW39sBjiK66mnnmp4XYdnnQz4k08+ubnmmmvKnTibSiAKZLlMH8WH0V0cq/hRYWAzG4CUedaMQvWmgBsENqZBXihSlGgs0yqyn1hU8a5x0U045aYuHL+5Y8eOgjtf9eKVNeqVxDx+c4gz/ZO+QV9i2ZcLtzNickAWP9rDlQr+27dpK9Mbv0TDxSQf8rP/UK7aGG65GRdcbAKDmFnW9sYuypKO9dC/TjvdicAoCCQxj4JWkI0DMXjv81cCZKZ86623lvdoEeDOW2J2oKMouIZJd59MhnSokFQ6lA1S5oMOKFX8ISxmCJQJgmaGE8s0ZFZrKhbrETOKuFEPys6Z5MyWuSHi5ui9994r9Wsj5hg/ppv/2xGgHbjJlJTpT/SVSMzExA+8fbZfh7envi/RDZKZhL/tTlqSKn6UG1JmNYBHTyxls6TNJjBWuZQlHvKmE/0JS5MIjINAEvM4qO2NEwfioCSYlTJrg5g5q5mjITEQ87XXXlsGujM4FAGX6SIXB3n0J2xUQ1qkES+I2demSA8ZlCjEzLdoIWnz1R4130nLx3qQtrMv62UdKDvPl/0OM8/5277DbPmsH/HTLI+AGEFcrLpAXvwHwzbilZi5WRrWrHV71P0It/WyL0nMnATGbBlidhMY9ajl9dN/2LqmXCJQI5DEXCMypLtWHLpjdEjvjTfeKLM1Pju4a9euQr41MbO8pzLQJp1aWcS0R/1PWnXazHbYtQxBW34UKzcLEDO2SsbwUfNdK3nLUxMz+UEElH3Pnj3N9u3by4yZL0zRHixxg7emDRf9lEn7kxtRcIn9AUKWmMGINjFcWWwwd8asnO0ntsbTX9t0dCs/qk06pGE6dX7xhgIZVgO4Ucam7O7Q5gxtPtmqqdOp/XWnnQiMgkAS8yhoBdlBAzyIlKVUZmospfKME5L2GTPPrLgDZ2ZXEzNpkL5KSXdMe9T/UYGYLsQMWaFcKZd1oky+10zZkDds1HzXSt7yLEfM4P2Tn/yk4L979+6ybA9JGIeyWTfTExvda1X+vqULHmJD2ekvELMbCMVUOWTw4wJzVmGwCfdCRkPaGMKibZ76l8Axfkgn5mt+JqVbubiCRR242eOGmgNHsHE7NkwjltH0DEs7ERgFgSTmIdFy0DnganedDOHM2DiGE2KGoFla5Vkcm7+uv/76sjwmMUuMKoaV0q/zG8ZN2l6kT1k4gANihqRdjmTJ0U1g/PfGYZg8upIRn0gI+HGhNCGCV199tbw/znNmnjezMkBdjENZ2/COfvxP8+mNItjZd5wx03clKQgNA27I4k970M+xNbafbnHWX1t/5dbKJj/yMj/cXtSJscK306+66qoybrlxZVVGY3lxm4ZhaScCoyKQxDwkYg48B13trpMhHGJ4+OGHywakN998szzjRJlJzMyYIT4UWCRm0iI+l/nV6Y/qNi3yIk3cEDGEDGEx86FsKCEUKMt3XBAcbsszar5rJW99YvqWkfJSbg52ue+++wr+vDqFcqX+XBqxIC5GvGu38otugx19hL7CRd/B3UbMYCkxM1vmv/2vxrHGvSv8bX/qgIl9wzIyTqjn0Ucf3fz1X/91ec68fv36cgaBMl2V1/zSnm8EkpiHbN964NXutmR27tzZ/OAHPygfUeCkLXZAR2JmQ8lyxEyaw+TTlnf0Iw0Uj4pSJYgfNwSQ8//8z/8U5ePsB2KTnFGqyFqWmPYs/bd8EDMzNPDnKE4+YoFipW4SgxiomI2rf+2epXpOqyxgA37gCJ70G2526BsSmrhRRuS5JGdtZG2HadXFfCkfZbZ/Wy78NW4CO/DAA8tNNTfUfLKVbzUPMuIQ0xkkm/6JQI1AEnONyAB3PdBqd1s0vmYkMbBcjDKDmHkv0qVsiJnBq2JwIJt+W7qj+pEW6ZO2SpE0zIMy+dqUxAyxsVTHhUJFVvlR8+9anvJSfh4f3HbbbYWYI77gIM7YsW76W1fdXddh1vITB/oPROUKC/1FrAaVmbjEo13o79w4cZnmoHhr5W95yd8y1P2DvA2jjtyAcLPqJrCLL764OeGEE1qLaPoxjVbB9EwEBiCQxDwAmJW8HXwOXuX1x81M7ZZbbik2/t55f+lLX2q2bt1anlU5Y1YxmE5MN6Zp+Lh2TNc0UDyQM+UjL5SoChR5rkmWwXzHsWP56zIZJgFwY8SJa88888zSDE2ZaJOOaelfu8cp67zFARsuSEpipo5t+OmvjYw3TD5vxi3O2GKvbVzs1RrStJzmiR99PYaZT5ThP2MEOcrMSWDcWH/5y19eKj9hGOPxXz/+p0kERkEgiXkUtIKsA7AefPhDslxs+rrpppsKMbgczPJfJGb8UQ7E4zI94mNwc5lfKMJIf023LVIsM/+d3cRytcWblp91oaziIk6UCeXJjAxCBv9nn3229TUpZMU2poM/Bj/z+sQnf8EDYmbTIPZyRkyx6c/0J1ZgIGafOUcZsdYmbcOXy2eYMNIkLS/i4EeZaoOM489w3PHG2rcqeNzDTWxtYh3qsHQnAishkMS8EkL/H66CcMDpNnr0ZwBDwJw2xYyNJVV3cKLQIOYbbrihvC4lMXtHjiJACTCDJQ/DySfmGfNrK4N+2MjGuDHM/4ZjI++lv3LTsus66LZ8uDGWGxxZsYCY+dQm+EPWacZDQLyJTd+UmCUu8ac9bJOYE37cMEFiXPbrmG6Uj+lF/0n8t3zm0ZZmLYObce0msAsvvLBsAtuwYcM+m8BIK6Zbp9OWV/olAjUCScw1IgPc9QDTrXhUMAxedgFz4tedd95ZNiFxJjZxamJGSREXYsagvFwqhKAlFBRgzMPBH8vR5mf5+m5bd+tb11W3NnhCzByFyo0RzwchgzTjIRDxl5ghKvy9SJn24Yp+/MfQt2kDnzHj1tiuuo1T+xs+Ddsbbj7VyrvMnAJ21llnlWM66/LU5dddy6U7EWhDIIm5DZVl/GpF4YCL/myk4p1liJld2bw2xZIXRmLmGZWvS5EGRGIazLYhdokZcobAUWTIcJnvoKIabpqD5Prmb33q+uH2Aksw5P3lO+64o9wYJTGvrqXBFuxdzfFgETE3dWS4iaSvejOpDG5IOYbFeMRFdhaNdYecWYpnhzZvVVx22WXla3GWGTmMdY5uZdJOBFZCIIl5JYSqcAea3ioS/XFzJjNHQLKUzecGeYcZYsCg0DiowM1fDHIUFWSC0iMddnB/9NFHxc93iZ05m492rQD0RwlidBfHHPxYnzbc8QNLZnTc2EDM9957bzkKNYl5dY0PtvRP+in4elqc/c/UaR/awBtJw7ElbP1inLpdDZsVm/JxgQGGOpx66qnlzHs2gbk0P6geyKdJBIZFIIl5WKT2yjk4iVIrl5jMu+++W5ZRIeYnn3yywQ0BEx+FxveY+YiFn5FDkTHgvSBvzrBGCXICF+RMfGYb5FsrCPOO5ZOYDZtXmzpjwEXFD8ac9MXmux/96EfNK6+8kkvZq+wA4Ev/ZMYIMfO4hv5ZjwPag37KjSRkZXi0Y1FsP23kMNrKGq67a9v8KRcYUH+/q87KFyeBMUbbTF2XNpn0SwQiAknMEY0V/jM44wAdNOCYIXM2NsTA94AhWZQUik1i5rOPEjOKTFLGhpiZdfO/JmbIhzIQhm0ZsGP5qAp+hlvuFarYm+C6vri5wQFLHiVwNjb48/EQzsxmxkxYmvEQAF+ImP0PEDNXTcz2P/o6eyokZnK0H8bcY5/0v3Layhuue1o25XIPCCeBbd68eWkTGB9+IVwcKCPuui7TKnvm2x8EkpiHbKtaMTjY9I9uZmgsYbOUCkFwqhakgCKDmDmYgMPwIWZmw4SRDmSrzHLETJGRI44DP+aPfywXYbqHrO7MillPCljXE2KGDPgwB20AMT/66KOlDZKYV9ek4E6f49m95Ex/5UbR/mV70AZ+z9tcx+1/tve48c1/UrZjFAx4zsxhQcyYv/KVrzRHHXVUyUYccFB+6zCpMmQ6849AEvOQbaxiqAdZ7Y/7xRdfbH74wx+W5WyO4mTZC9JAsTEbhpi3bNlSBrQzCwa8gx6Z+IzZ58xxBjKImKmOigG7Lu+Q1Z1ZsVgf60lh8Qdjnm1yU8NxnBDzz372s+btt99e2t0+sxWb8YKBr7uSmS3z3/5FmG2BTT/9/Oc/X9pCf6uHO5rYntE//jf96Nf1f8vAuHOscrPnJrBLL710aRPYOHXsuj6Z32wjkMQ8ZPs42GpF0ubPe7P33HNPmTFDsigxSAM7EjMzZhQYikxSZuAzq4aYkedZHcTsDIT84mV5LEecwVA1/YesZu/ErB84SMzvv/9+w6lfEPMvfvGL8ozfzXO9q+CMFBh86Y/0TWaL9Y1h7JPcHNlf6dfRxPbSv+7DyhBumLLTsCkDF+WSlC0j443NX5xLwIlgg8ws1GNQ2dJ/9hBIYh6yTRyIcYDpZxKGceLU97///ULMKDAMA1hi5kPrfD6OJTCeS6HIkPNC+bEciwKEtJlVs7kEORRDnS9+zGIwkBNL4xK08patCM3Rj1hQP4n5vffeKzvieZTAxUYwN8/NUdU7qwrYctEfubGkr4E7V+xXtoXE7A1nlFPGeNpUhjDDrVwM128atuWwjNiMZ5b2OTCIk8B4r9kVMORjXYw/jbJnnv1DIIl5zDaLgy4mwQCEDL773e+WpWwIEsKQmHmP+bjjjmuuuOKKMpAPOOCAQhqSMrbEjAIkLjNm5VAG5B0HOnKkS1yUISTEDJE8552YI/ZgRd1Zun7iiSdKO7zwwgtlaRuyIDzN6AjQ17ggZvqZxExK9kPHA27aQIKiT9b9NZagjh/TiXLT/m+5GFMYxhV4QMx8ArL+HKTy1t16TrsemX8/EEhiHqOdHHREdcDh58US6ne+851yVjOE4AzWGcfGjRvLwQTcYa9bt66QKISLEmPA80yaGTODnvR9loXCk2hVEOQpkZM+xIy8S+QrKcYxqj+zUSTmPXv2NNu3by9L2WwCA0twSWIer+nog1z0Lz9dSkp138cNxvR5iNkNj/RRZesS6I8MRlv/Wn5absvluGMcMma5SWEMs5zNeD7jjDOaww8//DPFnLX6fKaA6TFTCCQxj9gcDlCi1YMNEmSw8v4yM2aec0KSkAKyEvOGDRsaPhvHUvYhhxxSZCRm0pdoIWYMs9/999+/yJFOzBd5lhfZ8IQ8ypAZNvIQOeGxzCXBHv5YZ+uCrR82bupOnV9//fXmJz/5SSFmSBoyoQ1Uqj2s/tSLDMaRmCOWYM+FH20AMdPvIWnDxqmA7Utc0pmmaSsL4x1MGJ9+DvKSSy5Z+hxkjDPNsmfe/UMgiXnENlNBtA06BimkylGcnNHMMmpNzISz9HXRRReV16W4u2Z2ATE7G2bGzLvP2BjIhmfMpoUCtBzYpBl3f7v0jcIgXNkRqzpT4uJd1wd/LvwlZo5A5WARny+DD2GRTGaqcj0pDLNDbnLoq2Ap7hQf/HFzA0R/5VoNMZOWZhb6r+WxLLidNVNO+hezZl6DHOYkMOuWdiLQhkAScxsqy/jFgYlYdEOk7KZmxnzXXXeV16YkU2QhbmQ4mICv0zBj5t1Hlp0lZuQgEogZG4Oyg2xJiwslIImjIEiT5VqJHBlmzBCzciWhHv9ExQjmXPh54ZaYd+3a1dx///2FmGkPCAWSSGJeXQdgRUZiBs+6TcCX2bJXJGZlLYHjRre2coPClZuWbb+jrvxn3HIxe2YTGMTMuGZXOuPWethPp1XuzLdfCCQxj9hecaARNbpRWhy/yYz5gQceKOdltxEzZHz++eeXAbxh77I2O7MlZgZwJGbSRwkwA4Gc254dQ/hsysHGoBCiYrCMJXAOfmJ9VORUS2LmPfK77767bL6Lr6tF2TmAodMqgDnETD+jr7YRM36SMn1Q8qKgNfaxDWNFlDNcW/8o2/X/WBbr5nI2N3/HHHNM841vfKM8a2YljLEa48xCHbrGLPMbD4Ek5vFwW4oVBx6zM5ZRmTE//PDD5ShIZq0QBgaFxqz2iCOOaM4999xCzOzQZnYbidkZMATNwMeg9FyiRvnhz2yYwY6N27KgNMiTMP1KInP4Y/2sMzcwfObxtttuK8QMrsgQnorxsx1ATMSxlrAP0b8gH250+C+exsOmj4I//ZP+h4zhdbp9d4uLY4+b4i9+8YtlTDNj5oyCQw89dKnPDcJZ/77jkeWfLAJJzKvEU8XDAON9WUgBYuasbF7bQVFJzCg0SPewww5rzj777DKI+dIUpweh9CRaBjmzb98Z1R9iRpY08TPvWAUHeltYlOvbf+pj3bTxs54SM6TAAS+33HJLIWbqibxX3+q91uWNWLblRbjkQx/1ZrGNmOnn9E1my/NOzGBl3wMfbgDZK8JNN6TMo6pjjz32M/3OOGIt/rrTTgRAIIl5zH7QNsDeeuut8jUpXpfikBEPtmAmgWHwotzYiX3mmWeWAcxGET68zjKhBCyBowTjEjXL4hAzs3ANA5uyeOmO4bWfYX22rRP15j8XZAApsBv+5ptvLm0ggSjT5zqvRdnBBVP3Z/MifFRidsZM3EHpmn5fbOshXpTbvofN2KavcWPCCWB8Pe6UU04p/bIvdcxyzg4CScxjtoUD1egMWF7Teeyxxwa+P+tyoK9WcGfNu48sgUHMDG6VmeTMBzAIw0DIPI/GVkFoozzrMhGHcNPEPa+GOnIDBDk/++yzzU033VRs3PiL07zWf9x6iUtb3yFNwlciZuOCNX3TGTNxDRu3fLMaj3pRP+sIRoxfVrtOPvnkckQnS9oQdfa/WW3F2S1XEvMq20bFwwBl01F8TYdla4mBbJwxM+vlbpqBe9ZZZ5VnURKzxSE9ZteetIQ/Co/lMmYkGGQ0lENlgV8sl8pD2T7bsV7Wg/p5MWthtQJiZuacilGUxrPBVdKhP9JPuWkUb/sdNv0TYqZ/Ska213i5z0asWFdvgPXDxlBPSJnHTyxhc7Lfpk2byuEjPIJSTns2apalmFUEkphX2TIqHgYczzbZDcz7sz6LQ0FBFhiJmeM1ebUCYuZzcTxzRumh8EyPOCgByJ14+JOWRFMXm3DK4MDHHf34Pw/GeljP2qaOTz/9dFnKpj0gCm6OlJsHDLqsA7gNImbKYXtgQ8w8bpGYY3iXZZ50XmDARR3BQqO/bomZHdnnnXdeIWa+JMejKmQx2sZJOxFoQyCJuQ2VEfxUTAw4CQEbg1+cObiUPSwxqwhUBqQHYWMTZt4W13DcxCEcv3ky1tl6RZswMObGqD7gZZ4w6LIu4EtfgnS4efQGUtxtD+x5JWbwtp7eZDsmdSPjjTePm3jbghtvCJpzCzTipjvtRKANgSTmNlRG8GPAcjFQ2fTFUZw840RJMVOLA1di5g6a51A8Y3YpW4WnAogDOP433HxjUZEzv0UjZuotvhAzr0vt2LGjvGJGW6QZDwH6FH2J/ik5g7N9MvbHeSVmx1ocX9FPZMEJbFgxgJwZ33/7t3/b8OaFRtx0p50ItCGQxNyGyjJ+KiIHGG7ulHn2xmtS7AZmCZUlvUjMyDFokWXzF7ux4+YvFB9hpGseFsO8cNdhyuCP3KIRM/W33uDHMz5ukOqT1yKGYpb2ygiAm8QsOS9HzDxPhZiIxzWov66c82xJWI+6XvgbZon1Y4zfeOONZZe28ZTRruMilyYRSGIeoQ844IjiQMMPUuZwEU78GkQIyKHQmHXwuhS7sVnq4tUKvk7Ds2TCo3HQxsFa+xGGH5dlIo3oF9Ps+/+6/tSHevPIAOLgaFKIedu2bQ1Hc3ryWsSw7xh0VX77E/2SPk7f5VpEYm7D3DFmmH2MG0T2mLCPZOvWrWWsx02bymPbn/UzDd1pLyYCScwjtHsciCotov/2t79t+IoRM+YHH3ywee2111o3HangOBGIJWzImd3Z7NJ2k5fFcYA6cNvc0a+WM51FsFklgJhRhu+//355xsyRqHzy0ZULsVoEPCZRR/HCtt9KzMygNfY7bJayISBs4yvXd5v6WCfqCgbY+scwcGI887Gar3/962Wccwwvy9u1ET/jjxpey6d7PhBIYh6xHdsGEmTA80yI+Wc/+1nDQSPsnmYpW8PA806aXdhf/epXy4yZu2qO5GRGQngc7MSt84tuBzN+0d88F8WGmMGaV8s4bY0Z849//OOBN0iLgstq6mnfwk5i3neFrB5vYgXehDGOIWbOJ+CVKW7AeWwVj+i0bVYatyuFm07a84VAEvME2pPZ8s9//vNCCBzJyScYec7m814GLhd30jwD5XWKv/zLvywDlnceuZMmrCbmOOBjMR2sbX7G0W6TjfH69t/6WD/KD87M0jiMhUNe2PzFWeVvvvnm0g1SlO9bnadRXvHCbiPm2A7+pw14xoytMR3dfbetK32OuuHWj7pFvFg9OPLII8sN+KAjOsXDNGq8BvkbL+35RCCJeQLtypIpRAAhQAacc41yYvDGgSUxs6x1wQUXlAHLclf92cdYJAaqCiD6m65+uh3Y2vor13fb+lg/6sMyNnjzfPnll18uN0jbt28vjxd87zvK9x2DLsovXtgrETPloV3mnZipIxeY0Oesd/QnDDf7HZDhRoV9JFdffXV5E0NCL5HDD3Ew4m7QIH/D055PBJKYJ9CuO3fubH7wgx8UYv7Nb35TlqVrYmaAuZS9YcOG5qKLLlpa3uITjfVzO59h1QqAgRsHrwPXauCOMrj1U6aPNnWyLpRfDLBRdqxQ8A1r2oIbpPhIAQyV72Pdp1Fm8cIehpgpI33ezXaWmfhctN0iGOvK+AU3rlNPPbX51re+VcY7fbWNnGt8SCfN4iKQxDxm2zuQGEAc/XjHHXcUQuBZMYPSV6UimTBjJvyYvd9t/Zu/+ZsyUHkOxV21xOzAZkAT10Ecw+OgtRxWAzfhypi/buX6ZlN+62odqQP+EC/EzCMEXlWDmHm08M477xT/+Ky/b/WeVnljf6HvxV3ZuG2LKAfOcSmbMMOVn1Z9Vpuv9SAd66Idw2I+rpDxHjMfteBZM6tjw7xONijNmH7+n18EkpiHbNs4CPkf3RABB4tw4hckwSWhkryybgqBmC+++OKylA0xM8sgDIXngDTOkMVbaDEIAWXHJjzagM1fvLr23nvvDTzCdKEBG6Hy9EduEn2HGbJpI2b8mDHXu7LnpT8PWw/lwIMxzQ0NJ3/91V/9VSHmDXtXy9jsqZzjHLd+NE/0H6G5UnROEEhiHrIh40DhPxeDD6XFbmxP/PLrOg4045GNxLxx48bmkksuKcTMYSPEUeE5OLGNi63/kMVdKDFuhHiWzGc2IWSIGYL2s5sQt1guFDATqCz9biViBluueSdm6wms9Xi0f3FDjlE3cEPDOQUsZ3NuwRlnnFG+2VyE9v4Yj/S4dBte56N/2vONQBLzmO3LAGLQsRMYYr799tvLK1P1e7MOLOQhZt61ZSf2ZZddVgYqgxZSqYl5zGItZDSJmRnyL3/5y0LMHIvKDNrX1mqFt5BAjVFp+u9qiHmMLGc6iv3IcW1hoz9huMGNMY9O4FUpXpniERbnaNfGOHU6tVy6FwOBJOZVtDO7r3mOySzNAy2cMZusA5gBJzEzMC+//PJCzHzQIolZtMazJWba4oknnijEzGtrbAYDW8JVeOPlsLix6L9JzJ+2v/3IcW1I9I8ky5in/6EX2J39zW9+s+zOJh5yMR3SaEtHWfNKe/4RSGIes40ZQOzAfumll8qM+bHHHmt2795dBiBLem2GWTEz5uOPP7658sorCzHzDjPyKD+WvzSk76B1oBu2yLaYiAE4Scwc7MJubJay+TY2x6QmMYvUeDZ40zfpuz5nxq2xb9IO9GM2fw2zucn4fbOpJ4Z62xfxi/6G48eY9opnZ7Pk7bI38sbnPybiqtv8ikD+zDUCScxjNi8DiVOmWMbmYgNYfKZpsg4m5CMxb9mypRAzr0oNImbSIL6D1DQX2RZPMQBXniFDwNwYPfroo6UteLeco1IhiZwxi9boNngnMX+KmwTquCQEP/1xG6Y/s2ZOAuOUv+uvv75sAou7103DuNgY4/PfNPmfZv4RSGIeso0deAwQDO7X9p6JPYgIohzyuCFmjo088cQTm2uuuaYQMwMU4kD5mYfpG4+4MQz/RTU1ruAgMb/xxhtLB73w34NekpjH7y3gLTHTf30dkBRjW9A/ucHkeSo3Q76VMC/91jFofXDX9RflOgzcOPGPTZ/sLeGYTj5kw015TCNialoxP/3Snn8EkpiHbON6gOBmufSHP/xhmaGx0Yi7YpRTm1JiAErMvNd43XXXlc0gPHtCnuUu86BI/neQ6x6yuHMrVisyKioxcxwnZ2SzesFqBjdBtkfiN16XAG/6Jn2XpWyIGaK2X5Iq2HLNOzFbV5Gs+6J9TH9s/MCOR1hHHHFEc9555xViPuGEExq+y65sHbd2m2fai4FAEvOQ7dw2UDhY5M477yyv5kDKKCxmZ/WzIwYfVyRmlrTYpensAuWnIa+YnwPc8EW0VWDWXYzwl5hfffXV5p//+Z8LMbNDG2VIGO0hnsZPezgEwJe+yXIsxGw/x982sS0kZmzGAeHzgnus63DIfSqFXgA7iJivyfHa1JlnnlmI2nQ/lf70Rgc/wttkonz+nz8EkpiHbFMVDINERcTM7Oabb26eeeaZMnggAK44kGI8lBuzOJ413XDDDYWYIQ7TtCimj5uwOly5RbJrTCOuEjPPlV3BYGMeJOKNkvKLhNkk6gruwxIz7eBSdhLzp+iDH+TM4St8wIbd2Zs3by5L20ot179jmPJpzzcCScxjtK+Kqj5YxNmZSUYyYHC5pAUx33jjjWWAtimwmphNb5FtlZOYauMvMfMBi/vvv7+sYLAjm2VX8V1k7FZTd/CVWJj1sQoByXgDal/Fph14NOOGu3leqbD/ia39U7e2+IAhfRF8WCnjtamTTjppaUXB+Nqmr9v00l4MBJKYx2hnl6SffPLJ5tZbb21eeOGFfV4TMcl6cEnMDEiImQHKwONSNsbFLwfmJ4iIgzhp4y8x79q1q7nvvvvKUjY7siGSJGZ71Hi2fdPlWIiZlZ8k5n0/ymH/rFG2n2KDIRevTf3d3/1dGf/4E9f42qZj/Nrf8LTnE4Ek5jHaleXod999txwsAhEwU/OM4OWSk5hPPvnkfYiZOAxAB6nu5dLKsE8RkJh5p3zbtm1lxsyJbOCdxPwpTuP8gxDol8z4uNFhd/FyxMxra8yYaZN5mjEPIsjaXwLVX8xxO/45nvPv//7vy2tT3uAYT3ls4pgO4W0yUT7/zw8CScxjtCXPLyFjlrIfeeSR8g1m30t0IJksg8kBhkLjuSczZj8DF8ORc/DV6Zhe2vsiAF6QL2TALnmJmZsnFCGKjyvNeAjYP4chZpdqk5g/IdUacW5seIXP8c+52R7hi6xjn/+Of23CYjgyaeYXgSTmIdvWAYI4Rz+y8YsTpiDn+BWjKOdgwo9LYmbGDDGzCcTBhuKLcS2W4W1hyiyyDT4SM99ivvfee8tmPInZGbM4LjJW49Qd3Oy/EAu4Dpoxg7Uz5nl7TQ0MwCL2I3EB1+jfhjOyzpg5K58jeXmfmbPyWW0zjYi3ftEugvkz9wgkMQ/ZxAwsDe/LPv7444WcmTl//PHHn3lfth6oxK+JmWfMmiRmkRjNBmcIASKAmO+5556ylO2z0CTm0fCspSUK/J3xjULMxItjB3cfDXUAiziurZdhy9ULGXBjQ+KRRx7ZnH/++WUpm0NHOC8fY/rImrZ+y6WdYfOHQBLzCG3qYGHJlPdl/bQgJCABIMNgwo2RcPFjYCLrjFliJg5ybYZ4GPNuk1lEP3Gh7mDN8umOHTuW3iv3hKpcyp5c75CY47N7+qWX7UBb+C6zuS96/6X+bqDjG+y8y+zFl6c09mvx0m142ouBQBLziO3MgHnuueeau+++uxAzz4zjDILkGEw+12Qw6heJ+dvf/nZZyiaMNCOBlwjhh/QcqMF7of+qsLAhBIiA3fF33HFHaRfIA0wJU3ahAZtA5SXm2N/pl162A8TMhVuT/bcpxEy/5MM1zJQh5q997WvN+vXrl8a3fVW8dItj2ouBQBLzGO3M8+WbbrqpEAAEzOCJNkmqrOIAq4mZGbNyyxHzGEVciCjgzgUBQAR86pHvYrOSAdZga7ssBCBrWElwlpghF3G1/4o1N0i0hV/1okiELboBP8Y42PEu88EHH1xel7r44osbjucUI+TSJAJJzCP0AQYWM2A2fH3nO99pnn322X0+88igQmFhkK0Ng5KlbI7lY8acxFwjNLobzHk1R2K+7bbbCjHTTpJFKrvRca1jgCH9l13F2Li5JBRs3LYF5MP/tnFQp70IbrHihpEbyXjQCI+2xBEskE2z2Aj8HwAAAP//jqxP9AAAQABJREFU7N33u6xFlT78nvSd4DiYFQMeFBXTBAUVDIAZREURRUCSzg/zL81lwJzAiGIARFAUdXTGjBFRjGPWyTPvuz91uM9Z5zndO/beu7ufqut6urrSqqpVVeuuXH/w/62pSVcbcgCb/ud//mfy7//+75N/+qd/mrzxjW+cfO1rX5v8xV/8xeRP/uRPJmHjH/zBHzRaMf/hH/7hIfN///d/t/CPecxjJpdccsnkb//2b1s4fusXGkkUt6Fd3Mau48sf//EfT/7f//t/k69+9auTN73pTZN/+Zd/OVQe+M9PymPs/NpO/vHPp/7+7ne/a/qQTuroH/3RH7Wy0C78/7//+7/Ge+G7mjR+4Invb/7mbw7JAbypdbTza9y15Q/WKkMH5k3UAWwCyj//+c8nn//85ydXXnnl5Fvf+tbkLne5SwNmDY1KgwpbA8zcA+ybAeZKB62YN5HUUXnBFwDwp3/6p5OvfOUrrcP0xS9+8RAYdGDeeXXAYx9g/v3vf9/01O9QTx3lT1loFzpM//u//3uoLOJ3rHp4Rg78x3/8x+Sxj33s5LLLLps87nGPa3VYXY0ffOxqvBzowLyFsv/Vr341ue222xowX3vttZPbb7998ud//udNAA0bVMwhz0ywaZAdmMOVresEVuUtcwXm17/+9RPAzD6gPAyz9VjHHQL/fAClAnMth8ohsxd3vetdOzAXpoRX+JiZs0c+8pGTiy66qAFzZt5KkP53xBzowLyFwv/JT34y+fKXvzz5whe+MLnlllsmP/7xjyd/9md/1gTQNDJpjNz8HwKzqay4cc8XQVjd2HV1cEYifMIPfDEyM0pTNgFmoNyBeT41JvUxMz7/9V//dWiKehiDsgkwW+LpI+aDHMIXCi/x8d/+7d8mJ5xwwuTFL37x5PGPf/zknve8Z1sWO+i7/46dAx2YN1kDNKzvf//7k09/+tMNmK1n/vKXv2yAABii0gBjjs4+gu3Rj370UWtL3PNFEAo7i17ojk3Hm/BJ3pkrMF9xxRVtxGwU3YF5PrUj9RHIWs4BzP5bnuGWclAu7ADzX/3VX7Ulng7MR5YBfmXEfNxxx02e9axntRHzgQMHJne7292O9LxmSvsPn4/y0C1WkgMdmDdZrBrIt7/97Ykp7H/+539uIG0jjJEaEEgDCrmYgQPFnAYJmC+++OK2+aO6E2r8RRAmXCPQfxoHIqDCX+ZMZRsxd2Cef0VJfQSylmIAs07mesBsKhtAd2A+sjzwMh30+93vfpMnPelJDZgtb93nPvc50vOaqdbzoxy7xcpyoAPzForWLux3v/vdbdfvr3/96wa0RmsaW21A/vvYV+ANMD/qUY+avOIVr2i7sjOq478D8+zCCD/xlGKmmCswm8q2K7uOmJvH/rNtDuCxD8j+53/+ZwNmdXkaMPNTp7JTTtuOfEUCpv5q74BZB+fud7/7RCf97/7u7yannHLK5IEPfOAR9XpFst6zsQ0OdGDeAtNsKnrLW97SBH9GAhVYkarAoTEGmLkFmLPpw3GpCuwEXVVodcF2kCPhQ0CimofArJxSLvFf+dr/b50D+Kh+Gi371GVtgD1FVybsrC3/5V/+ZQPorce0miHwBo/USzzSwbFz/cEPfnAD5mc84xmThzzkIYfae/i6mtzoudqIAx2YN+LQne4alk1fr3vd69oaJuET4R8SaXjMGf2mQbLLFNaJJ544ufDCC1uDDJ0APX9dHc0BfKSGAos5wOy4VEbMKRvuwzBHU+82G3EAD9VpgBxwngbM/OhsAh0j5/A/5bdRPKvoLu+RA+pqOjiWwWz60kF//vOfP3nEIx7RgXkVK8A28tSBeRNMI4AIJOeXATMAsBsbqFIR/BFC7NIYI5C4ZcQMmC+44ILWIDXO9KLjV/iujuRAeBNex5W5AvMb3vCGNqORsoge/13fHgfwURkEmI341gNmxwgBs7JJ2O3FvPyh8M2HD9q6/zrpeEOOAOaXvvSlbVqbWxT/XY2TAx2YN1HuhNBvf/vbBsxve9vbJl//+tcPHZPKyAyZNED/NaoqkPwn1JwDHQKzBkrI6UmnMaaBxozmmNUsfuDPEJhNZVPc8o2Zd/PIOz4qA4BixKxN+M+eirs6rDwqMAeM5pGOZadR+ZQ6/dd//ddtMyg97sln+Btz18fBgQ7Mmyhnu6+dYTZift/73td2Z+f88hCYCSaq2ieKALMpq5e//OWtp0yAdWAOh2brEWJDQcVcj0u5KtXmL4pbvtmUu8tmOICPykAHEjDbvASYqfCYe4BZ+zBiVjYdmA/yKHzGp8rLXDhkE1j2nMQv3nY1Pg6MDpg1iKo2U/F/8YtftOs3AfMNN9ww+cEPfnDo/PIwfOgP7ZkBs4sFHv7wh7epKw0xVxcScmmw0lfD+x+6Ne39/0E+VWA2lZ2bv/Ct8rHza+ccALypx3Sq8lk9BcRAOV8H5ul8xz8dHJtB7TlxNaeO+nCJbHrobrvKHOjAvIkeqRu+jMIAswcsjJ5zfnmzgp+/CLSHPexhk/POO6+NmJ331BAzlR0ADt3osV/lyrjVvIU3gBkI1Luy0Yp79K3S7/6nc8CIWQeTTuFveBxgTpkYOZsRYt/r8JH8jDzQUX/JS17SgPke97hHWyYLP48M0U1j4cDogHlWwUZopEFUsxu/br755rYr2/qyG7+AKYEToRT/Q/qVXhoiYNYQjZjrRQyZBh/S6OajORC+clEOOkpuY3vzm9/cOlHhZfxFP5pSt9kMByr/AHLuzE7YuGsHRsgdmMOZgzr+REZEN0vmJrXjjz9+ctZZZzVgfsADHtBuTYufUAl/Y+76anOgA/Od5ZuGkAZQzW78+uhHP9qA+Y477mhCieAJMCMR/8PqUukFmN2Re+655zZgdnWh0Z4R8ywaQ5rdfHg0jBcVmN/61re2qWxCDzjjf77Ot+1zIPUYBfUYMGfEzC7u6rD/ykS9NjWrrbAfc/2u/Akf1FGb6IDx0572tCYP7D9xhCp+8JZK+IOm/rvqHOjAfGcJpyGkAVRzbvxyFedvfvObJpgIHiODof/1KkwEWi6vd0zC/bhGewHmrdBbL65Vc6vlIW/45GMfEDCb8fa3v70Bc47zpIzC11Xjy17lJ/yjq8d5l3lYLsz84Dtg9mpSB+bDwBp+0bOR7t73vne7ntcMmgct7n//++9VsfZ4FpQDHZjvLJg0mAigmDl/6Utfmnnj11bKNcD80Ic+dHLOOee0HrI1pQ7MG3Mx5ZHyiS5kgPnWW2+dvPOd72xT2aYICT4A4etqZxwIv+mpx0bMw3Jh5scHmLO5kX387iwlyxk6/AsP6NlId8wxx7RbvwCzkfOBAweWM5M91XPjwOiAOQ0jDSWcnGbPzmekfMWdrxZZW84oLGGjV5qhF50bgWbTzPFra0oveMELGjDf6173atN9QCRTr+glXGiPXQ8/wuPo7LOe+Y1vfGNy1VVXNWA21WqqEGjH79h5uNP846MPXzOVjf++aTwOMGsz8bfTNCx7eHzCC0p7x0uzCh6wMIN25plntucgp/Fz2fPe0795DnRgvpNXaSy1QaRHaye2qx69XpQ1s7C4hqthYx+dG2A2kjuw1iO22UMP2QszGqYG2oE5XD1ar3zkGl6zB8xmHQCzR0Z0pDLVmiWHhD+acrfZLAfw3KeuZle2Oou3KY/QYgeY3ZndgTlcOajjFf74dMjxB5+8z+59Zsenhvw8kkI3rToHOjDfWcIaSVUaRnafAmaPV1jDzDnD2riEY45dpRO63Ag0wOwd1uc85zkNmG38MN3Xgbly7ej/lY9DPgeYv/Wtbx31+lcH5qN5uR0b/Md3s0Wpx9oHYIlbpcsugBNgru5j+1/rr7zjpU4N/vmPR4DZVb2PfexjG0/jb2y86vldqx9rFeZIRFpxriS7GkNVsY8dd6OCn/3sZ+3sspGY3dkVmPnVuCj+fUM6MXMj0Fwo8KAHPWjy9Kc/vQGz12UcmTKarrQSrhHvP1OFf9gSYFY+bmZz5tylMDaAccP7rnbGAfURHwEzMFGPAfOwQykWfn11KntnsS9/6LTn1EU6O7xM5wYwX3LJJQ2g5Zif+F9+DvQcbIUDHZgH3KoN6Fe/+tXke9/7XgNmx6Vuv/32I+7ITlBh0oD8r+b4oQeYvbua4xE2gtn8kdFH6CRczElX7MeuV34AXxdZfPe735184AMfaFPZOlRmJ7j1zV87ry2p0+qjDqROjzqbDmXqqZj49RkFmg2ic/fVctt5qpaTQuUFmYCHPndlX3bZZa3Dnn0s8bucOe2p3i4HOjAPOBfBoUH89Kc/bbdJufHr05/+9ORHP/pRW8ucJewjkJAUfqg0QgLt2GOPnZx66qmtAXrQwoPpOd4zDBdz0jWkOVZz5UeAWSfqwx/+cAPmH/7wh4fOm0fIjZVX88g3fquLPsAMSABzrbe1rvIPkM0wGTmnDGq5zSNdy0gjfMSLALMZiEc/+tHtMQtXc9ozoV7H7zLms6d5+xzowLwO79yJDZC9w+xWqZ///OdNyGSnbwRRSGhoETxpUDHzE2C24esJT3hCA2YX2LtQgIDjPqQZ2l2fzQECjCBzQ9vHPvaxVl5A2otg6UR1vs7m31Zc8BEwm34FzAAl9TY8TjtIhwkwZ60/cdV2Ebsx6XiFB+nkmN2pV3PqrOvU8Be+jok/Y89rB+Z1asB3vvOdyfXXX99GYAS9nb5GAXr/GlVtNBE0s+xFQ5gBYEcjXCRgV7Z1JUemOjCvUxAbOAWY3cp20003tfKyEcxSRMqrC7cNmLhJZ3wEJj7ADFDWA2YdJsCcDlKiSXuJeaw6Pph90ME5sHZaw3EpI2bLXW4F7PV2nDVjdMA8LOYIiGEDYO/4TdYsjZY1nqyXEUyUcD7+faETvdoHmN30A5TzMVdgrmHFUekyj1lVXoRPRmMAwFLDpz71qQbMbmurd5qPmWfzyHt4nfpMDzADFu4+9hQ95QKY00FKWuIv5rHpyT+e6diQLW78eupTn9qA2dWcOuxdjZMDHZjvFCSKP8LHfw3H9PWVV17ZdvnaoQ1YM40NmPkxeo5iDo2hkGLO9J+pa0ciAPPJJ5/cRtDTgDnpqHQT11h1vKDwM7xWJoS/PQGOtll68PTjv/7rvx5aehgrv+aV72F9Rhcg5zGLlEfKh55yAcqZzhYufvwfqwoP8K122F0yYsTssxelq3FyYPTArNjTSPyPsPffsZs3velNTWemhgKo+j/oY/Zvpv/cj23TF2C2CUwDrGt1iYde0zab8uq74DNehB+1HAAA4e+IlKcfAfMtt9wy8Vyn3dqmUbuaDwcq/wPMRs61PBKTTiveK5uUQzq08c9vaCZcdPb8rYJKHpOf6OzTYScXvDxHLjzlKU9p9x3E3yrwoOdh8xzowHwnr9JwwjoChIC/Yu0qTndlEy4AYKg223D4SwN0PMpDFhqgqSuXjAyBeRjP2M34p4xSTsyxUy4AwJqytWXlZq3ZmrMNNB2Y51d78D+8B8y5YY0dlfLxn11GzSkHbSBus8IMy7kFWLGf5J2c8ZnOdrRMJ92o2QVEjlLG34plv2dnAw6MFpgjQGrFj10A1DGpN77xjW0UZg2zCvgabgMeN2f+0SXMXChy/Np92Rrg6aef3i4cAcwRWpuhNzY/4XfKKPlnn5GZl79s0nMlp017dmlnpBb/XZ8PB/A9I2Z6VbWMAsx5ZWo4Yq5+0UCXXexT7pX+Kv2Xz4Cz6X4bvmwIfdGLXtSu5lylvPa8bJ4DHZjXBEFVGoqpOSMB65Vve9vbDl3FOS9gdi+uXZeA+ZnPfGabshKnXnPUWART8ruRHgEdvsQ/e8AMAKx3mr4GzB/60Icmt912WwfmMGqOOp77KjAPyyVmZQNwALNZJyBErVeewiZ8/M0x+QtFKnmlp4MJmF/+8pe3fSgLldiemD3jQAfmKcBMwNs4BJhnXcW51RIiYAglwoyQuu9979t6xs997nPb6BkwZ8ScxioO4XwRVFuNd9X8D3kR/gBmG+hMZwPm97znPW1aOyNm/rraOQfCR7qOZDZ/pc6yz3+xMQPm3ADWgfnITkl4hU94g6e5AUzHvatxcqAD81qDiEoj+fWvf92u3zSV7SYp06OZitOAtqNqwzMt7h1mDe/ss89ua0kdmDfHVXxMOQnBbKRB17GxJACY3/72t0+8z9yBeXN83YovvPYBEacVdDaBinJhT6WMmI2UA8xxq/5agDt/qn2lV/0s4/+al2Ee5YcdfjoX7sTG5Zdf3nZm63DG/zLmu6d5exwYDTBrGNR6lTzCxGjZOVjAfPPNN7fzsRHw22PzwVDoAw+CyjqzKSvPvNmJabSXETPfw5HFTuJdhbARbMov5SRfzPmYudlNb2+A427ZG7BeuQvX1focwFcqvKYHSACzupsy4q+WUaay6UMVfymf6Ilv6H9VzNPyiY86Orma0yVEqb+rku+ej81xoANz4VOEgXuWP/e5zx1xHlYD0XvdiUIf4KID6I2YzzvvvInLBLL5qzZY/mPeSbyrEDa8CD9SVjHTs9bsDPMb3vCG9n62fQF91LHzGjCN38BYhzL7I9RtZUDxnzA6omacAHPKa+gn9tETthFb4Z+aX8BsaYA8OP/88ycnnXRS2wxG9nQ1Lg6MBpg3KtYqCExdf/zjH29Toq7ltNuXcInQ2YjWLHdxRHihl00ezjTnuFTiSHqipwHPoj0W+/BhyBf2ABhfnWV2/hxAR3FP2Nh1ffMcmMZvwAyUfZnODp/5TxidowrMKYfqJ3abT9Fy+Uz+hnmu/MJHwPyQhzxk8sIXvrBd2+tefcsACb9cue6p3S4HOjDfybkIEQ3gm9/85uSaa65pwOw2KdNLhEtAc7vMHjZKwHzRRRe1YxEZMdc4hv63G+8qhYuAquWV/Ckjo4uvf/3rk3e84x1tStuaHQDpo+ZwaXv6kN/KAV8Bsi9LMdPqr86Sc8z0Wg5jqt+13oaXSgK/uLHLiNl77c961rMaMB+/dqzSxSMJv73S66GWjQOjA+Y0ivUquvXlq666qgl2LxRpMARKFTpbLejES/cZOQPmiy++uK0pdWDeKkeP9h9gNsvhjnMXjdgvgLfz6FgdHeM4bdJ21GHrzEZ6qb/cfLW+432AOeWQdhB/w3CrytnKO3msMoWc0ZE0SnYjoGs5rTe7Sz/hVpUvPV9HcqAD85H8aALFTV9vfetbGzBrLIRH7ekPgmzKGAHEs5EGgWb3JWCmi4ego9III7yqXfPQf6ZyQBkZMXuuc9pSBPeudsaB1E1U1NdMZ2dmgrsv9Z2eDpM1ZqNmYJS6HX/DcDtL5eKFTj4zQk5bT0rln0zQwXGXviNTgNld+h634N7VeDjQgbmUdYSF4zY2D1mj1CA0pjSo4n3bfzVAU396w694xStaI0Qs8fsv3qGZfVcHORBBF4HFHGD+2c9+1pYhjJh9zPPYvNd5f5gDqZ8AxojZco96zT5u8a1cgHKAmTl1u5ZjwrHzf1VU8ipPkSOxq/lPJ8ftX9aZXdl7+trNgAcOHFgVVvR8bJIDHZgLozQSjcMxqde97nXtjuwIdI1qXsKCADPCeOQjHzm54IIL2u5sIwn0xS8diS8NeF5xl+wu9d8q0GSEOQDgHPq3v/3tBso33nhjG0HP47jbUjNslxKP7wFmsz613ibKlIs6DpwDzNxrOfpfzQm/CnryBZijhvnVycFD0/4uIHJq46yzzmrHKROm6+PgwOiAeVisaTAEShqGG79e+9rXtt29dpMSKPNS4tH4cizC1Xt6xhqjRgu0pWmagJtXGpaZDr4MBVryg38Ev9GbqzmNlj/4wQ9ObutXc4ZFO9Zrewkx9bk+ZqGMqlIu2lAF5rhXerPKNX6XWQ9Pah6Tn+qm/Zv6d20vYD733HMnj3rUo+K16yPhQAfmNRCkNI4AJmB2QYVNYBrIbgGzi0Ve8pKXNGA2fSUeDVMHIY11JPVwR9nEKwIPABBqeAgoLEnYxPeNb3zj0EhtyNcKDDtKxEgCD/mVdhNgxoYhj1Mu6ndmoPgLrRqGnW9Ig59lVfLiS95qvuWpumfGzKwCYL7wwgsPLXUta/57urfOgVEDcxoKtmkcppdzRzaB7gnBnL/cOmtnhwAc4jp+7SjE85///AbMdl6abg0w19Bp1NVubP/xgNJpoWJuhjvN7IBA3OwReMtb3tIuGmGfL+7KP/QSbig0Q7/r0zmAlzq0ZilMaQ/5x92Hv2YztCegg+/xGz9iYOdjR0WP32a5hD/Jh6QnjzUb+EMBZjIAT53aeOUrX9nkQ/wO+VDpxk/Xl58DHZjXhAClgrtIxFOBRsxeJ3LRSI55zLOoNTy7Lx/84Ae3d1f1jL3J7CIBbuk190Z3mOvhRYCU2VcFFTMBlzVN55mvvPLKNnIGHPjKjZ8Ix4Rnlzhidzj2/m8WB/BMnR0+ZhH/3PMBZnXcrIayUJZxo1Mpl5ijr0qZ1PzUvAaY8UQHR8fdaY1XvepV7TyzeivskA+hF353fTU4MBpgToUeVuRq//Of/7w9fGDz10033TS54447Dj2CsNPiTjzoEEqA2UUCZ5xxRusRHzhwoF2/p1Fyp4ZpbZb9p3EgvMFXH3PsCH4goGPlXWZrzbfffnub3jaVSgiGxxGIiCZ8yip0O8tncwDPAHMdMYd/4WnKZgjM8Rd3/tlVvg/LZHZKlsOl5if5l3L1MHkPMFtbvuSSS9rVnOqtet3VODjQgbmMmPOWL0EOnN36RZjore5U1UYIFByXcj7xyU9+cgPmhz/84e2GH/YZSYgz4dKgd5qOZQ1f+RBexI4eOzohp9wck/KghbVmsyDK03KB8kxY/n3VjEd1ZL6sPNuLdOMdYDbCAyj4Fl6Kn3v0Csyz/PE7LM/Y0Zdd1boWPrGLPbsAc+7M9pjFMccc09bnlz3/Pf2b48BogHkz7DCN/alPfaoJctOgv/zlL1svdZ7ArAECZo3vPve5T5umsivbhQIuFsjVhvx1dZgDEdaVLxFs8RXhBpiNLozifvSjH7URs6WJ7373u0242YSUMh0CcOgHONAK3cTT9cMcwBv1OcDsf8rqsK+D//A9mynD95Rh+D4MMxZz6hh+ZM3+oQ996KE7sx2f6ndmj6U2rHVo1yrCwUXW8eR5Zk4JblOfRlimPl3HSYBHOM8MuAkHbNb4IsgAMCC2jmSN2Q0/Gl+92nATZEfjpfJPpofVNoI9/pRbAMMmsHe/+91tlz1/yhNIpCzCRGYfGqHP3NVsDoSH6q3OptFzyqCGYleBmVvn82EOpd6xAcw6Oscdd9zkmc98Zuu8H1hb6up3Zh/m16r/68B8ZwkTEvXxCtOgRlzzBmagADAAs+kp01WA2ZS2qe0It1rxaqOt9mP8H6DMiAsP2MU+oBA7/L711lsn733ve9uFMTpbwANIcKOEqbr/odcc+s9MDuBT6rO6C1RSBgnE7Aswm9Kmwvf4m6bHz6qUxzA/yVfs8UD91NHJndlm1Pqd2dNqx+radWBeK9s0CueWjayMmOf1eEWqjjg0wgrMd73rXScH1nrCgPnpT3962wyWqewAjzC+pDH0xqpHkGWqOfyJfeWT6WybZixR3HDDDW1KO894AgfuNZywtZzwuNqNlefr5Rv/ADNQzqdsUi6Vh4DZdCzeV76vRz/lGf/r+V0Gt2F+kq9qj5+AOXdmA+Z+Z/YylO780jgaYK4Vv7KPfdy+/OUvt8crALOePxXhHT817Fb+Cx9hRXARYs50HnvssQ2Yn/vc504OrIE0ez3mCsxbiWdV/YZ/yV8tj/CVW7U32wEEfvWrX7VLRmzqc0Vndttn1Cy8cL6Aig4Ue0KS8r+rozkQHmkv6q6OZXgYnoW32lIFZu4pL3r8D+3FGrejU7BcNslv8hO92kc+5M5sHffTTjttcmBNPgxVwsU+9GLu+nJyoAPznQJZ8dnBe8UVVzSdYCbYKzAPG8FWilzYNBoND/gazd3jHvdowPyCF7xgcsIJJzTB1oH5aM6G9+Hh0T6OtlGGyg9gAGfl+/73v78tWSjb4TKFOBKPsJSyorYSbwswkh980XlRZ/HZSG+7wBw+o5lyiL4q/B/mp+Y1+cc/HR0d99yZfeaZZzb5MKxWoRf7VeFT8jNWfTTAvF4Bp3I7IvXqV7+6CXDHajKiEjZ+1qOzWTcNz4e+xueGH1dzOjJlxEHIdbUxByKEUjbR2dcPJW522r/nPe9pa80ABKAA4HzxV3X/E4//XR3NAXUZLwGzTUv+6/RE4b1PJ0l9N4uB5+Fr3PlPubFbRZV8Je/JI/vkHT/JAPLBPhTy4UUvelF79Cb+o8+it1n3+Ov6YnGgA/NaeajcGoOzrv/4j//YBHem3OZdXGlIdMKJsHJU6vzzz28NL2vM84531ehNE2zhbQQcnR2QAAYuHLn22mvbHgJvNrvfGf+5Jww+CVNprRrv5p0fvKrADFQCzOEjvQPz4Q7+tPqrXFJn02lUbwEz+fCYxzymudfyC3+H9OJnI/f46/picWC0wFwrrEZg6uhzn/vcoVelct6y+ptX0YVmdA3OZfV2XhJqOglR8RPzWPUInvAj5ggy9r5qj1fs0gH6xS9+0Y5MmdK+5ZZb2gtUlhOASKUbmmPl9VbzjXfqrBGzkwzrAbMrbuuIObweO/9r/vGfTGLnA8zebafjV+p4Ladh+LjNso971xeTA6MHZsUClAmUaa9K7VbFRjdTVgFmZ5qHoJz4F7P67F2qIoyG/Kj23GKOHjvga/ratavONbtwxA5tozh+QzdTrDHvXQ6XNya88gFmd2YHmMPXuON17p6vsxRxxwFhEm55ObL1lONBzTs5kFkIcuGyyy6bPO5xjztiCaDGIjyFRlWz7Kuf/n/xODBaYFYUqbTWxWwOAszveMc72uagrIXNq8jS8EIvDU+nwJ24ed4NMEQJk2/Y4OJnLHryH36En1WYzeIFnoavQOOrX/1qOxb3la98pXXKlEUAOfFEF09X63MgZbIZYLZ3w4h5M8CcMl4/9uVwrXlRt2bVq7hxJxvIJh13r0y5mjN1OfUzuR/SG7rHX9eXgwOjBmZFpEI7s+yebJu/7No1kgLMNl/MS4mnNhZgACQIsxNPPHHyspe9rK0157J6/utXw84rTctEJ/mvPJH+ACr7qpgThs4fMAAKyveaa65pa83KnfCrG/0qnf5/cxzA7wAzQAnwplzo7NTvAHPKTgzxV2NjlzKs9sv4P3lJfqblV764c/PhoxmIPGYBmCMf+Ast4Yb0qhv3rpaLA6MD5lTgWnHdiU1YA+brrruuXUhhys3U224p6QDMplcf9rCHTc4555y2huTsosbHPd9upWGZ6U4rx/Xyo7yVJ1Dw5raz6s41f/azn22PW6S8K89TR+iJb704Vtkt+Q9Pklf27HyA2YY6egVdfvljF2BWFtVP6IfuquqpS8lveBdz8s2cETP5cO6557YR893vfve2HDAMxzxNhe4s92lhut3+c6AD81oZuH7TrV+A+eabb24PH0x7hWjexQWYjdaOP/74yVlnndWA2cMWRutG1BpVGta84x4jPSM2I2M8z0tiedwio7jwJXwHHlTMcR+bnvwPBTz7gAQgyY158RedvwCzMsgMRXUfA0/lFy8qP2NX88898uHA2sUizjFbY/Zuu857+JYwQ3Psazyx6/ric2B0wJwiqRWWkLZTFzDnecChoJ5V8UNvs3qNNw3PZfXPeMYz2vOPD37wgyeu6jTqCDijPa/4N5vOVfSHh+GjjTXWmt/1rndNrDUrCypTsHhPdWBubJj5oz6Hr4A5I+bwOTp/Q2DG66i0i5hXTa988j/5De9iTr6Z1Ukzag984APbzV+A2ejZpURVhcfVrv9fbg50YF4T1q5o/MxnPtOmNl3LaeeuHn0VHPOq/GmA6KXhuZbTIxYanvVm01W5ACPVa17xh96YdeVqSvW2226bfPCDH2zT2j/5yU/aSFqHDIAoJx+++1JuY+bbtLxXHgWY6VGpt/yNHZjxpPIj5mn1C790Ht1rYBbtpJNOavLBkSmPW6Q+hl743fXV4EAH5jWh6+KJm266qQHzt7/97bZDewjM8yru2qDS8O51r3u10TJg9jFXYO6Nb+fcDw/xHzBnrdnRKWvNzrD/9Kc/PWJzDb+1vHaeitWjgD946wPINiuZ7YmqfO/APB2Yw6uhHvmgo/7IRz6yyYhTTz21PXYzrJcxh0b4HnPXl4sDowdmxeUdZjdCEdC5ESprYPMuzggydE2XEmLeWfX8o1dkjJyNoAGzEXVvYPMpgfAR/wGE8s1as2WMD3/4w60eAG0fP1QEXsLPJzWrQyX1GX/U1wDzkG/hezZ/DdtX/K8OZ47MSfKXejQ0H+n7oAkw6+y47MgSl8csLHnZkxI1pDe0j7nry8WB0QKzYkrj8A5zpjSNmoCiXaMEdPzsRrECZsJMw3vQgx50qOFZc64j5t2Ie2w0azkC3ZQt/k8718yd0MtXw4+Nd5vJLz7hpYt6dDbxy1eBIyNmsxXTgLn630ycy+Qn9afyQ/pnmdkDZjy1EfXe9753kw82ibpTv4b1f0i/eVjHPu5dX0wOjBqYFYkKnccNHKH59a9/3XqpOc6RCr8bxQeYNT5Hdby9qkf8vOc9b/KQhzykP2YxZ4bXciT0fMoYQJgxsTtb+dsICFwCHPFbw885aStBDp+AiFmIunGRPd75dHamjZjjjhH8r6JK/an1iV3yW93Dh8gH9dSGUOvLHrNwrjnhwqth+I3s4971xeTA6IB5WgW2K9eNXwRzRqoZMc272Gr8/gNmIODRDA3PecXhK1P8DRvivNO16vTCv/BffpUxoWeznzqQc802ggEQbvGf8KvOp+3mD3/U5QCz/6m3dN80YA5/o68qn2v+5DHm8Dvm5D9+8NF/MoJ88JiFKzrjb1b42Hd9OTkwWmBWXKncNgC9+c1vbkemNATKtFvcm8WcfmoD9F+vWDxAQMO74IIL2kYPow4jEH58u5GWOWVpKchU/qUMMqUNTFw6Yq3ZjWAumyEIAUlUDR+7rh/mAP5oOzq2te6yTx1Wx3V48NaH/ymL6KvK55q/8OQw946eio4f8kFYOvlw8cUXN33Ip0q/0u3/l5MDowNmxZRK7L8KbqT8+te/vj1uUAGZW74aRritKnTQCJ1q1ujS8C655JJ2N24VbluNq/s/mgP4nrKsrgEH/DdqvvLKK4841wxM4qeG6/+P5ADebhaYrTEP+VrbBVpRsY95WfXkI3Uw5ug1zzWP3HXQyQPPw15++eVtk2joxO9GdOKv68vBgdECc63IgPm1r31tA+ZpIyWNIP63W6yzaNSGZ4oKMGuAAWvuO417u2lepXDhYQRgdHk0MgYW9Q7teq6Ze8KvEk/mmRf8BMzO3QIRu4nVYfY+/Js1lc0t/I3/pC32MS+rLh/yRoUf/id/cWNXFfes3XvM4tJLL21HKodyaiM6lWb/v/gcGD0wKyJri69+9asbMOfO5L0sOkLMdKqzil6ZsgksIwrCjUrD28t0rVJcEYbAw38gETsjYvy21uyCGR0155qBM8CO31Xix7zzgpe7BczqPvqrqNKuh/mr9uSDDYkuH7LU5TELJznUzaFKuNgP6ca+64vNgVECsyJRgfO5hhMwf+lLX2o7pKdV+HkVYxpKbUBpeDZ9veQlL2nAnIYHmJPOeaVhjHTwHR8DzMMlC+Crc1Tfa3bZDPv4TdmNkX/r5RlffENgDq/De52faWvMtX6HlviG9uulYVnd5JGS76qqfTruD33oQycvfvGL24jZ8Sl36g9VwsV+SDf2XV9sDowWmBUL0DNNBJhf85rXNGDOO8yEMRXhsNMKngYTuhkJo5uGd/zaxQFnn312A+Y0PP4Czi1B/WdbHAj/h+XIXO3wer1zzduKfAUChUfhY7IUe/pmgVnHNzNCaV+hi05oxk1csUu8q6LXfNc8VftMZbtk5NnPfnYbMbvr4JhjjmnySbjwp4ZjPzSz62rxOTBqYFbhrYmZtrT5y+afAHMERCr2TosydIbAjC6BZrTmkpEzzjijbe44cOBAe0VGGjsw75T7hwVU+K88fDGLwegYaLhD201gprR/9KMftWlEQMI9aigIY7+q+nr5jZt6an0537QRs8syAszCpV1Ex7/Q8z/lVO3Yr4pKvof5q/aRD/e///0nT33qU9uI2U2Bru6t/vBkI/Oq8G3V8zE6YK4VlwDxTJ0R81ve8pZ20QhgtrFi2FB2WhESb4CAOXYZabic/glPeEID5kc/+tHt0hGjae7xu9N0jDV8+KdcfdWMJ8zKRtn/4he/aHUBMH/qU59q4JxzzfwKPyzHafTil77sKu0h+ZyWH8CsI6ld6fAGmPkVTufGeX3AHP6FzpDuZuJL2FXXIx88ZpH79O1D6Y9ZrG7JjxqYjVJ/+ctfNmB2TOYb3/hGGzETzvNWBA9hMxQ47DU8AOz2L4DszmwAfd/73rcJOcKuq51xIPxfj4qyAR5ARb1wrvkDH/jAZNpacy3HCiqxF89m4lwvPYvkJl/yk7wyVzv/A8zqMh6qt+wpbtpV9k7EPnkM3cqz0I+fserkg86O5x7zmMUpp5zSnoMM34b8HCuvViXfowZmOx1/9rOfNWB+97vfPfnWt761a8CcCpMGlAbFPsDsAXQbPPSGTzvttNbwXNhQBVzodH17HAj/AcUQBIziMpJTJl/72tcm733ve9sSB6ARJtPZ/vsoNIULbXa1fJmXXcmbPCVfzLFL3rjVEXOtt9wAc0bMlVfCh/bQPrTHrEc+uJbTdb067qeffvrkwNpyV8pjyJ/wMe4xD/1182JyYNTAbBrbGuLnP//5yfvf//52Z7LjUgRIKnIVvvMowtBNg0FTHISYuE1PAeYzzzyzNbwOzPPg+mEa+B8QSBmwq8AKfNUBz4Fed911beT8/e9/v72cZBqW/yEwCxPaYgvtwzEv97/kLflijp2c+Z96nKnsAHP8BZhr+xI25RE69K4OcwBfzUJEPgBm8uGEE06YWc/wnKrldZhi/7foHBgdMNcC8WDF7bff3kbMNvsQxLsFzBqIxjJsMNLDTa/YNKqpPsDszuyHPexhh+7urunu/7fOgY0EVEbK/PkPPExnW95wzv0Tn/jE5Ic//GF76acCy5BuzElhzCn32C+bLv3yUvMTO3nJfwAyDZi549uwfQk7pMuuq8McAMyRD2bVyAfHpkxrD1UtH25D89B/Ny8mB0YNzASv9UObv66//vr2FrNdo1XwahQUwbITNauBRKAlHqCQO7O9IkPIaZQJv5M0jDls5V8ty/yPrhz810nC+1/96lft4pmrr7564nlQ5WN0PBwhh7fi8YVe4o05/pZNl/7kTdqZYxcz91nAnM4OYMbbyo8h3WXjzW6nF3/IADwjmyIf3BQ4VPxS4e/QPPTfzYvJgVEDs4cLbr311jaVfdNNN03uuOOOo0ZEAcxU9O0W46wGgi43n8ZHsGlwl65dvedqTtOBAebQ2G4aerjDHMBLvM+nnMNfdoCXYmfUbKnDrWC/+93vWhkNwUWY+G9/VuxH/vCi8ih2spr/6qsOTZZguAFl/AIqOr7+VzpDusJ0dZgD4Y86ShYAZvLByHmoKl+5Dc1D/928mBwYNTD/9Kc/bRt7rDF/+tOfbuvNERz7UVxA2U5xI2V3Zmt4hJrGVYFjP9K2KnEGQNPhwl8q/OXuYw+cgckPfvCDyY033tjONZthsQQyPPITuqvCp2E+5C8AwS18qoLf/2nAHD7ipWNnzMNw1TyMu5sPcgBvdXh03F/5yle2o1Mph/BoyMehOf66vtgcGA0wT6ug7kJ2JGbaO7y7UWxD4Z00JS7A/Pvf/37i8oCXv/zlbfelqT+CLKPm+O369jiQMqi89z9mgBywDjgDYpeOqCcf+9jHjljySDipCe38jxu9um0v5fsbSvrlI3ka5ifus4C5XsW5ETCH1v7mePFix1snSRypvOyyy9oNYDo7qa9SnPJJ6oflFPuuLzYHRg3MdmQTtkbMdEenpvXo5yEoZjWQCDvuAWZHpl74whc2YHa7jzQB5ozyFrtKLXbqajlEiNUyIORS3nRmAtEUtrvUHZ+y/ME+fuNfzkO/2qEf+8XmzuzUJT/h2TA/cZ8GzKau1eHc+IVvlU74H/6F1uzUjM8FTywRAGabvi666KIGzLkQKRwJX2MellPsu77YHBg1MNtl+9nPfraB8he/+MWJNefdBmYNpzaWCCV2hFqu5nz605/egPnA2llF5xeBdgfmnTem8D9lEEFW7f3XEeInIxJ21ppdOAKgbQpTJtV956lbfArhV/iXFDOrnwHmesEIYM6mSqPlzQJzyiRxjF1X38gHpzU8duOVqbvf/e6Nt7U8Ukb4Ve3Hzr9lyv+ogdna4S233NKA2T3ZrmIEzEPBoXLXyr6dAh7SSINBNwIIGBBobvw6+eST2xqz9SQ3gmV39nbi7mEOcyDliP8pA67V3v8AM1DJZ3PgzTff3Naav/71rzdwBjjApqrQit2w7GO/jHryVnknH8zrAbMlmazLV37k/5Du0LyMvJp3mtNxP37tsZvnPe95bY352GOPbR33YXl0/s2b+3tLbzTAHLbWCuvSiE9+8pMNmE1POj41DZgTdh564gf+FLMvgk2vWC/YOrPNX67e0/gANrDoanscqACQMmAXUMVb9ikXsUTYsfOZzjbL4g7tj3zkI+3cezYLco9/dDK7EXt2iXd7OViMUMmDvPqqeRYwm1XIlOu0cJU3lYe1DBYj9/uXCjxKx/2BD3zg5PS1m79cNGLZy1Wd4VtSWMsldl1fHg6MGphdKOKYlPVlZ1Rt8hlOZc+7KGuDqYJNPNz0il0y8oAHPKAB8zOf+cyJJ94yNTjv9IyFXuU1PvvYAWY6oQdY/PcBVCp2zPyYuXBsyhWuruwc0hGWXQfmw3dlGynn1bbUNzyiwq9qZj80sxuzwo8As9sBn/jEJzZgthHM4xapt+FR5184sZz6qIHZTtuPf/zjDZgdg/nNb35zCJgVZyo3XcXfiZomgGIXuoS5xqdzYPraiNn7zHrFHZjDpfnoKdMAMHM+MVT7mNn53Kl+zTXXtItHfv7zn7eyAfABef4DzBGYaK+CSj6G+WKW57rGrC5TgNkd2UbOUZVO5Ts6VHVPmLHreEsOeKudbDBi9nkOclge4VX4GXPXl4MDowbm7373u+34ixGz/+7OzohZ8UU40HdawYWfJoBqNeFOuBHwpkhdJHDeeee1aW0jNQ0zKulJGmPf9a1xIHwUqpbPEJj5s9YMXH784x+3vQmmtO1NAM7ApwJzyqXS31rKFtO3fCVP9JrPCszO2zLzU4G58lgOQyN0Qzt0F5ML+5OqzNjc7W53O7TUdeqpp7YZNXwLL4epC0+H9t28uBwYNTB/5zvfmVx77bVtxGwjmDXE7LLdqyKLAKqNhx0QtvHr4osvbno2f8V/gIPwi500h0706rZXeVrFePATz4Gzs+aO2gFmI2czL1lrHuY95bSq5VDrWQVmu4eZtadMZeNd6mvC0fHG53/s8XFVeTasI5sxh0fkgqUu+06Mmp/1rGe1GbXKt9Cr/JvmHn9dXzwOjBqYTV/bxEPA2tRD4BIeEab7UVwakMaXiwTcAGbkTGloBBuVNEbQsauNL/9r4+Snq+1zAM99eK6jZLScteZM2+J7eC+m+n/7MS9+SPnEF5sXjZYBM155dMEsVOph9CGfag4rz+K/uo/1P/768NOomVx4wQte0EbP4cks3lX7+O364nJg1MBsrdCrUoDZCAgY7hYwp2GsJ2jiFmC2M/tlL3tZW0eyecZUKQCIv8WtVqudMoCjnhgpf/SjH21rzeqPjp0RYqa0lRNBSin/1IFl5I60y0/qXjX7L8/yag0UKOOFOvvgBz+4jZhN9wNs/vBPmNDAD3aVPjNV+dcsRvyT+oSHjp9lqcsVvrVcKl+xi7mr5eLA6IH5Qx/6UANm64a7DcxpPLWKpNFEKNEBM+HmUfTnP//5DZht+NAYuRFWoSV8aKAbOtWuxtf/b58D4S3BaNTiQhpXuurYeaHM3et1Spv/CiyrUCa13uGk/MlXgBn4akf2aziPbw3Uxi+zU27WA9zC8C9c6A2BOObwfBV4t/2adxBca33CH8B84YUXtqWu8BGfKl/Hzred8Hw/w44OmCuzHZGyRkiwujcbGBIYKv1uVeg0IOlII/I/AogOfAkw5xVPO+20Bsx2Zh9zzDFtqrCOmiPA0KAq/YM2/XceHIiww1//jZiVkbPvwNlVncBH54kbtWplkfykbUQPf7M5yWjZzWgnnnhie4wFQGtjLmUxy2AvRzbLhZ+hxRw7dKt94hmzrlPjIyO8PufObDuzh2UzNI+ZZ8uY99EDsysWCQ29+b0GZhWG4PGlIdEj4JxPzJEIvWOjZmt4GmX8pxPBHLtlrIiLnuYAREaI4bt0f/WrX51cddVV7XxzyiYdpoRbxbJJ3cUD+UuHMtPZ6u4//MM/TI5fu6kKKOvAuALXfo7wLzSGfEIvbqFPH7sKn8kqwJxXptarb+Ht2Hm3TPkfNTDn7mPAbFpSZd+tNeZhpYigjvCJmT/CHwDb4GGkbPflU5/61HbpCKFHAEal0dXw3GbZJ1zXt8+BlJnZFfXl9ttvb8fu1COX1mRESFimXFIe2491f0PW9MtT8oUHFLM6qw1RZg4As6lWeyVMbevA2NMBpI2q1eNZ7S30a7yN8Eh/8CP1zsZD/HO5yOWXX37olamURVgUHjJ3PoYry6F3YL5zxAyY6+aU3S6+NLRhPBoQYDZqJtyMmgHzmWeeOTmw9qDFesBcaaYh1sY5jKubt8eB8Bao2OzljnW3gDkPn3e9M1WbGBIm5mXTa/rVqdSrjHyZA8zWlNXVxz3ucRM319krQeWmPR0YRxXdtBdgrvT5DX3/h27sxqbwAx98+KzzZ6kgr0zhuTo3VOFj5+GQM4tt7sC8ATDPu2JrIKFZq0bsMsoCzISWna2A+dxzz508/OEPPwqYQyPhewMMR+arh686TVFGKICZoAQypmrf9773tVeolCP3ClwJt4x66pf8UMy+8IVuBGzE7DrZpz3taQ2YvYTkLmd8M2q2yRKfHFN0qU/lERq+0BZP6Pvf1cHd6wFms2l5ZcpNgTryUZ1v4cRy6h2Y14CZoLDGPG3EHIE0r4oeOqGbahNzgJkgY8dsLemCCy6YOBZB+AHt+E/4ru8uB1JuFZjZVWDxEApg9oSo612VFeBOme5uCnePurrmk98KzGJMPeQmv9rQCSecMHnRi17UprLzLCG+qbf0bLp057jNc2aBwsfQD5/R9SWe3cvlclDGH8BsKttRNK9Mef5RZ8jzsEOFd10tHwdGB8xp4CosAWHzV4BZbz8CIkVZ/cduOzo6ETLCh25oxRwhHkFG2FlLMmUFoKO4CzOkyz32/ifO0GfX1Xw5oM6YRrSpyVS2KW1T23mtzMzHqqrUK/UMYDgqZYr1/PPPbzM9OT6mvqrbeOFMs/VmfPrUpz7V7hBw/Ewnhjtaqd8B6sSzqnzcKF/yn7ZMJuCzUxtnnHFGm5nQGTIzQfEbfiXMRvS7+2JxYPTAnONSzqBOO8dcK/hOim4jOkN35oxAbJ556Utf2gSdqW3CK6MP/tL46Mz5pDdu7LraOQfwMyp8DjAbJTsOBHBuuOGGiWdFs9acckjYVdRtStKGzOy4StYSTPINaMMn/oDzl770pbYZzCZM9ZlSt9M5ZQ6/x15/k3/8iFzIK1PW8l3faz8KlXrpf/jvf1fLw4FRA3NeCbIZxdrXbu7KTsNSNSJs8n9aQ2JnBGJq8Pi14yZnnXVWmxrUGK0lcSPsotIAQyvx9RFHODQfvZZdKIb3ysO0LMBxfMqomZsy8E0LGxrLoKdOSWvyEzt6dgs/5jGPacd4ADOe5JP/jIgBsU7MjTfe2PiVu+q5A/CoZedZ8rFTPXxGB+/w+l73ulcDZLvfTz755DadzZ3f+Me/zkNcWS41emDOzV+5kjNrgrtVjLXBiEOjGTakxJ2esfUjx6U0QJtpHKPSMDPKCJ2Eq/Q6MIcr89Ej5IbliHpGhDp81pp1+ExnK6uMBOeTiv2hUvMcgR87unzq3FpyedWrXtVuplKHfelEqo944bOb3ZS2NXk3p1kKCN3ochqe70+uFytWfMZLHXMXDpnC1gGy2c6aM5UySco7/8KJ5dFHD8y5K5tQMA23W8CcxpFGQ4/w8T/2qk78Al4jsOH7q6asCEECL+FCK1UvgjD28Rf3rm+NA+FfOjpD/qIGmNUfyyKf//zn25R29i9YQwVGy6xSL+UBP3yx8199BRiA+dJLL206M/v4F1YYvFB/tTng/MEPfrCdb1bf8RYvw2thxq6GfMY7r0x5i1mHPa9M4fM0lfDT3Lrd4nFg1MCc16WsCQJmOx0XCZjTM/ZCz/Fr09kaoJ6xTR/TgFn1SgMUViMl3NjNarCLVyUXM0XhX8AisxV4m48bwAE26hNQ9qyoKVtA40v5LGYu109V8okXqV/JT/jDDJhtVrTWHGBGOeH8xwu80t6cb77uuuvaDIN1eWd0uaXuohn6wm5WCZP0bTbMovpLPsJD9c/GOhu+3AroTn3HKaOqf3Yxx73ri82B0QBzGnatoC458DqQKUdrXIA5AmHexZZ4k47Qn2XPn29aA3R+0chCr3moQi/AEeE2jHcYrpvX5wD+4S1++l+BKTynAxzuAMlI0JS25yGVF3vuoSFGdhQ7KuZmuPOHXeKo9vvxP+lUv2q6mLUd+x8AhfO1Ni3qQKYu8o9vFD7kA8QAWTsE0IAaYNe2GL5M4wO7oXvKR3qr+37wbJ5xymc+/LEZVEcIv3WEqGk8mmcaOq3d58CogdkFB9dff30TCISBCxD2asRci3bYkNLwohNgdvdqgHZnO44SgZew/FIRQtVc4+r/d8aB8DsAEzOq/vtSXurX8L1v9Yt7lHJKOHYp89BdlHJMOiswS690cgO+6qh1T8B8zjnntPXPdCDjL3xDx4cX7NRnm+Wuvvrq1qGxVo0md/42y4fwLcDMHDvpXQWFFykP/CEX3HNgZ/aq5XUVyms7eRgNME9jjinGj3/8420tkBB1e9NQcE4Ltx27NJgImOixj452Gl78xKzhvfzlL5/Y9UpoxV4Y4as5wr8KKP662h0OpPyUAd4DKZubjJYtlTjfbOc/eyMdflJmUpT/Aa7Qq+bY7U4ONkc1IJm6FrPZG1OrdgoDZhdfuIoTMKurSXvqo3Dsqm7WCp8sAThCZeNc2mP8iZeq9GrK+aOSvuo/Yar/ZfkvHzX9+JgPvy+55JK2CSz5qfmOXdeXhwOjBmaPD3ziE59ogpMg8FQdwRlQm2cxplGlwUSPffTEyT1+CD0jikc+8pHt4gY9ZOkUpvoTVmNlT/hTAfAh/ebYfzbNgSGv1+MncAAojrrlzWa7/+1pEI57gLkmoJZlAEZ5UuvFV2ns9v+kI3WT2X9T9+5rthnJLmGbkewSngbMNT/C44X66hy45SW7tLVL7ZN75VeNF52Yo/Pvi1u1b5ZL+iMfyZv/6kXkAnngMQvnmasfWQ0vljTbo032aIFZ5dZDv+WWWxowWw906UGAed4VOvQiKKLHPjWwmuOH0DO1Z23ZFKFNYDZ92OnLLWCMhjBoVMEeu8TR9e1zILxMOTH7qNjR07nTMfKakilao2frqQRqgDlhQiN0Un7MNQ7mRVDSJO0+9U89rJsUvSPumF+mspO/YX6Z5dWHDv/4ZZe2NmkjHR6GX6HDf8Lix6wO6DC+ReDdTtKQ/OCVzjq5YAatvjKFN+FT/O8kzh527zkwamC2c/Zzn/tcA2a9dKObRQJm1UEDI8gJqAc96EGTZzzjGQ2Yj1/bpe1u3OFaszC1MaaBsu9qfhwIj/G38ph93ICJ+qQD6FXqZXsAAEAASURBVCINm5uMmuuSSfyGRsyhE/vo88vBzihJT9IakNBZNKuj4/ikJz1p4jIcQAu04z9hkp+YgUn4ZSPYDWs3p+GXJSYj6Uz/11QLG4CWhtAc+mGe5lb9LcP/8Epaw3NyAc9f8YpXTE466aS2GcxsTfJbwyxDHnsaD3Jg1MBszU/jd+bU5/ypUWh65yp1KvheV5jaoDJl5TwzoWeqkM6cqULpFCbhNFwq5r1O/6rFN+TvsF4M3fEfaABmo2TTstaanQLw3+5lYJPyCb2Y8Y9dta9ui8Rfo1X1UH30oELqqPXm1M+kd708DPmlbTpuZmMmPlZwxt9ax4Wlwq/Etyp65VvyqMMDmF06lFemdI7qK1Orkv+x5WPUwAyIXZ9IYJrS/slPftKAeZrA3OuKURsiwQecTRUeWHvnFjCffvrp7TwzwcdNYxUm4arQYpfGvNf5WJX41uNvzWP4r8yAhbqkLEw5qmvvfve721StMPzqBFK1fEKDXezZxb4FWKAf9c96+rHHHjt58pOf3IDZyQEvS2VGR3JnpT95rPxSr01lv//97286+vzhJ39DYA5/QivsiXlW3PG36HrSLz8+ZnxXr46/88pea8yzXpla9Pz19B3JgVEDs6lrRzSMlm+++eZDr9wsAjDXYtIQNcLhhQL1PHMEUMKlIcfc9flwAF/xGjD4DyRilxi4pzy453NVp01gWTYBPmZouGeNFI1pdEMvcey1Lk1U0lHNRm4Aoi61HFjrQOpIcpO3oQqd6OERusm/Ke1PfvKTbZd2XQLQPqn49R8dX00X+6jYx7xsuvQnj/TUGR0WfD99raNupoJMMGruark5MGpgdpzF049GzI5NWQvMM3WKNY1hv4tYQwQEGqMpPccjnGe2tpQRSW200s0vxb6r+XEgdWKzwMx/1k7NyNQ9DTYbpr6hFyVMvpRf9PjZa116qKSjmgPMB9bA+Mwzz2wAYfTs8gugLG8JV2lUuywfsUs9d0pC+3R8CkBrn/z5+JGG1PPEUdPVErz2E7uYl1GXB7xJPZFvvNX+88oUYPZEbF6ZWsZ89jQf5MBogDlCII2UWcO3fmXEnLW/CMr4W4SKkgYZ3XnmCy+8sF0ooKHmq3mcJbAWIT+rkAa8Th2JnnxxS1koBx8wMao0S2Pt1BStUWDu0OYHnUoLjQjioVvi2is96Uq+qjnAnFMDllpMY2tLdSZAWsObhE/6Y+buv1GxsHj25S9/ud2gZrc2O4ofX+o5u6Qt7nSq2h+0Wd7f1Af5DjDn7DhgtsbvyFryHL4ub47HmfJRA7Obvrwq5WWbD3zgA20H6HBTziJUC43MZzpbD9lI+WUve1lba65ToRptGmL0hI15EfKzSmnA3/A2uvxVAco+H3trp1deeWUDHOVJZe3UfzSr7n+l3Rz3+CfxJ22Jnjlrna7gPO+881q9NFq2O1h+a5j6PzQrLf/DK50ZNJxt9tiMkbMNmzY8ZeQcv8KhHfrVPm70ZVc1fwFmr825JxswP+UpT5kcd9xxR/Bh2fM8xvSPBphTuKnYzBq46UTA/K53vWtiDRAwEwYRGvEfc+jstS4dEYBuVHJpvZGJaSsjE6MWfpLOpHuv07nq8YW/8onHAWD2+bjF3n/2GTUDYLM0uQrW9Gx9tIH/lGPCxW7RyjTpUS+tl+swupnOUos2JM8B5viVp6qYufGX/MaP8PhlyenWW29tS072gjjmqENa22noZEQtbOgtKv8qH7bzX161e69MWWcGzM985jPbjWuz+L2deHqYvefAqIGZMHFGEjC/7W1va41fT986btQiVfAAc95ntgvTUQn3Ext5RbhJu3T7IuSSn67vnAPhaXgcPrOP2xCY2RvlqVs6g0bNprQ/85nPtFFgHTFLYWgFYAJwO0/9fCjIc1RGbtY3vSoFmKnKn/hPvmIOjZiTX2Z+8UU7dfbbpjkzW9adQyf+mYUJn6p90pK4llmXz+RHXgGzjnmehj377LPb6Dn8jP9lzvMY0z5qYA7Q2ZDzhje8oe3Q1vsMMKdy72XFGDakpIF9Rib3vOc9220/eshPeMITJve9732POi9a0yxs6FT7/n/zHNiIh/jLj48Kv6OzBxbAmTC1jAJo3vve97Z7oeNGr+FDr1nu40/SkfxEl6QAhL0PF198cXtUAVj7+MvHb/IXAEU3H/f4jV38swfI11xzTVsCsD9EZxQ/40f4qKR3GE/cl02X//BE2pnlDY/NHJBbZtDOPffcNnPBnQofmqH/LA0HRg3MEShGzK997WvblYnDEfNel+SwIdUGphES6u4k9iZzpq5yJzHgrv73Ou2rHJ9yCW/pKadqn/zHbeifvS9gYnr2Pe95TwPoXNWZkbOwCR96ob8fetKQNEWXlqTVnc1uoHJFJNBUH6t78s9uCJgB14B5/NIz02A/iEcuzDQ45lgfuWgR3fmTsNKFHhW7O72shCZ/+ChvwNlMRR65SQa5dbV8HBgdMCuiKlRUbLuyX/Oa1zQBmbUr/tKY6TUMt62qhE9DiR77Ib2hO3M6Ehphntd78Ytf3KazTfd1YB5ycbHMKVNAowytlQ6BxmwN9/jdKAepP7P8b+S+Ef313NH2AdUAw/nnn9+eJXW+NqA4i4awSXf00IxZWPzQYbEnxJEzxxuNnG9bex0uu9oTh/BUDR+3ZdaTHzKAYg6v6Ox1jMxYAGju8RP/LWD/WQoOjBKYlUwasP964EbMdn0SMARNKnb06l+YraqER4+qjWYarfhLOH78j7AjqEwdEoQeSGcft2n0ut3+cqCWZ4DZdDZwUf+co3ehBrcAc8Ksl/LUj1l+N3Jfj/ZGbqmP2ox72wFCOoqAWUdRunxJx0Y0p7kLjycUmh4DsVmTrs6jnTabeMKP6LGfRn8Z7JKPCszSLV94oGMOmC+77LI2kzaLH8uQ157GNXxYK9jDuzhGwJFkV0XPf4D8xje+sY2YVeiq+Kt+q9s8/icNoZUGGHN0/uJXQySgADJgBtBpiAmfBpz8JGzodX1/OKAclImOlf85p2ut2fRsgCZAlHJLPUyqd7NOJo6qD+tV4re04iSDs7TWOOs7zOroPFTyjid4pzNz3XXXtY60WYff//73jZ+p60lr0jiPNOw3jeSl1gdpYlYGgJkcyPOP6dztd7p7/NvjwKiBGctUbBcYvP3tb2/ArJIH1LhHKKRBsJunGtKNUJkWR/wSeAS6HdmegSQQXX9oWo8f6Y/fCKuYp9HtdnvHAeWgjAlOH4B2TtfUrA6i+9uVLftaF+p/qY15r8o18aVtMPufPQ/OzqqHjuv4DyjSyZgHd8WHX6b6XdKSO+5t3DS9nSWAxMW/b6/4k3h3S09ekh9mitl6vjpjbf/SSy9tl4wM+bFb6ep0d4cDowPmaWx0o5BNOARj3e2Zxj0tzFbtakPaTtg0zAhDgs8GsDPOOKNNXTnbnLuJ60gl8W41zu5/vhwgQGt9YgY0poEdnwI0prQr0ABnKmU/LUUp3wjsoZ+N3If+Z5mThsSjw5cp1Fxw4fieRyzcPDVvYBavOAGOzoB2il8eBbFb25Eh/KwdB2meV/5n8WW/7Gt5AGbr786RuxHQ7V82iOJV8r9f6ezxbo8DHZjX+OZqRDcL2VSSqbG61rw91h4ZKg0kgu1I141NNTzgJfgcm7KuRyCefPLJ7bKRrO2FYsLF3PX94YByVxaZwQBq/qtnyuxnP/tZm7FRD42g4xfY+C/8rLoT92k540bNCjstzHp2yQe68iDt6qHRslMCQCHH92oHcT2am3FLvDor4Ymz4O985ztbpwY4AWXpSp7RjXle+d9MWvfCj3zJky/APHz+0QmTyou9SFePYz4cGA0wp2Gmolaz93Fvuummtjtb71tvPFNB8T8fdh9NpdJPmqLzzZ05dhkVAGYNz+iEQHzOc54zOXDgQANsI4qoSj92Xd97DtTyEztQUzbKM2YzN+7QtrRi3ZQf9RCA1zoQWsJtVL5xr2FahFv8SXj0QhPwAmZA/MQnPrHVQ9OpXjfKiDn+E36L0R7ynjjpeKZDY7PcDTfc0DrU3/3ud9vZcOvd+CVt4vQ/YQ8RW8I/4d+0vGjvprIPrLX/5z73ua2j7iYwJze6Wk4OdGBea+i5L9uI2Wf0Yr02PfPdLNra0DS+NMDEyb3aEzRGBgQfIeQVH8DsVR8Nk30dqVT6odn1veeAMlQWyo9ShuyYjQIr0JiiBTRupUs9TIprXWC3UfnGXbidqIQP0DEDBMDsJrrTTjut1UMPWeQmunQ+pCHht5uGmg/tUofFOWadGW3W61Pu0dZZ5T4mYE4HSTk87WlPa8Ds7mwzGV0tJwc6MK8JDZtJagM3na3hZ41vHkU7FEwRNEPa8Vfd638CPQLRCz52ZpvKPuWUU45Y20M34eihO4yvm/eWAxWYxaxsAs6A2I5jex2MBM3kpB4mXMoxesp4t3MhvqRVXMzqobVNF9yYsdFBtO/B+ia3TC3H/zzSKN7wCyDhGX5lrVkHBzBHSbMv/Ir9suspD/nQAdIhN3Nx0kkntXKwxMXc1XJyoAPzWqN1D6/HBFw04iF7jwzYTLJbwLyeMI0AiZ+qB5RVNcKHEHQlp2MSJ5xwwsQmHOtNdaSSahm6MXd9fziQ8qzlAWh8gAbQWTu9+uqrW2cRwFHq4rSwe5WLAIE0+FIXTaHaePjCF76wAYJRmrYjL/zMU4Vn4lf/8cx/x8yuuuqqttYsPeKt/JpnGhaFVspDeuRXu7eEYCnBer+lBSPorpaTA6MB5lnFo4KbjjMt5mpOx6asM+fO7AgXAmA3VIRNaNd46n9gS9hpgEYk1pA8GmCkTDBKL0EVYI7QQncYR+Lq+t5xQFkqh5RFLVupSHmxN43tfXB3aTsKBGyGI0FhQsv/qNCNW/TYx99OdXQzc2PaNM89qofSqt34Ev9O4xuGlx/gKy4d6Y997GNtStt/15tmCSBp4H/ePBimaTfN0h5e0mte5FG71zHXQQfMT33qU9tMRsJU/7uZzk57PhzowLxWyQEecAbMV1xxRRuxuMlIo1ex0xDmUblDIw0muuKMW/QUcUCZ2UjBhi9TVW760UP29KPGGeD2f0gjtLq+PxxQHqlLUjCtfJStqWt7HMzeWDs1TWupJcAsXA1b609ylriY417DxN929eQj9a0+9yj9OhkBxPidZ/yhFX7hjw1z+OW1Lp2ZHJ/ajfxvl287CZcynZafyAedIrNoOU9uvX+a/52ko4fdGw6MDpinVVRCxEcYuprTmdJMZVf/EQjbKZph2NCNHvfo4uAmXRqeHrHNXve73/3aurIH0fPkI2HIH0GZtT1hfaEXfTtp72HmxwHlkDJHNeWi/ACaUaD1Qm8Q2wTmmUPvhLPnni/hQit67BPP0H67Oan0QlO99OkcXnDBBa2jGPr81C/pivt29UoHL4CzTrWz4DoxdrU7/jhrbX678e53uMp/aal8SDmQWaazAbP32s1kVH/7nYce/+Y5MFpgxqJhpdWwczVnhA8/+TbP1uk+a3yhH30YB0GdDzUCyMjY9LXRso02dmRTaFRg1lDZ+YZ0W4D+s28cSB2o5S4xMStnfphz8Y2OorVn5co94FzDJXzoR2fvi3m7GU+aQq/GbY+Diy3UTWlUF6u/7cZZwyUPw3zgBSXe3KFt9MxMhV/zTk8jvoc/lf+iDR+SL/nVedN5B8yWFmwMjb89TGqPag4cGCUwp5HjXyouO5tIcgOYDWFGn2nYc+B1I1HjYyFein1109DyaWweQj/xxBMnRsp6wtaT9JBrmEzJCxf7Rrz/7DsHap0bJiZlRedPnTN1bUPiJz7xiTZyNgp0vp7wTZ2Mf/RqPWIOzdizm5dC0ycOabGk4rlBQKDNqH/AeS9U0oAveJSrTS0HGElnCWA3+LAX+RvGkXzU8k15xK+Ou+c36V0tJwc6MN8pDFVum26uv/76JggdVfH6jykxwicNYrvFLHwa00Y0Mvrlj2Bx7OERj3hEE4BuVspIOXRCN8BMZxd7/naa/sTV9flwIGWTelHNRoHqnc6hjYhmcm6++eYG1PxVYJ5ParZGRZp90qHTCACM0HQYLbmof3tV38IP/KrvNdvZbjkgm8C2lsPF9R2+pr5IaezwXcdIR+mVr3xlm1Vb3Jz0lK3HgVECcxiicqdS051ftoHEZ33PppI07DSE+A+NoZm/+OVn6J5w0/T4NeKwzmhEDJRtrnEHMcHn7DL7oRKnhimc8KE19NfNi8mB1BnlBpiNAJWnKWxTs+973/sOvT4lB+uBMxop/9THmLeb+5o+tNQxbSPXwp599tkTm42MUrlV/9uNs4ZL+kM3Oj/4hR/ONOtQa7ten3IzmLaCl/GPTv7TQ3doj+40N/b7qZKm5CFpYQ+U7eDXUfr7v//7dj3qLP8J1/XF5MBogTkVOxWX7siUe4ptAnP8wlRiGvZ6xRca/KCbj32+uM2iE3+ZAiRsTF8DZT1gFwfYjZ24hulnJhAzYsk6X/zNirfb7w0HUg4pv/Vi5TdgA3Bs/vrgBz94aIc28MuUduhWeqlL7NChNhNv87iJn8zo2AXsrGx2AbtoZLeAeb1khV86Mo5KmWFw4cg3vvGNNuM0BGa0hPGFL9Fjz0/s6OwXQSVN09Kj7bvK1Zp/gFn51zwtQh56GjbmwGiAORV6PZbobRolOzblIXYC0RV/ppMTfj1BFz+1IWT0yi6NRBr4zcfMnV8jXtODNnoB5VNPPbVNYxsps69xCFdVBKaeMyHFL7pdLS4HUj4p15SZupJRcR64MBLUafQ0ZJ3JSVi5RM8XuyH9eXBCPVXH7HNwMgAwOzer45iOofiTl3nEWfMR2qGLV7Vt2QTmPgIzDUkDd4qZGvJpln3zvAA/KdOazmGy8N4Mi7X+Sy65pHXm1RMdk66WiwMdmO8sLxU/U0GE35vf/OY2dVgrdhqzINMaCLvYEwT+15FrBIjwsU+YhCOMA8p6vllTFjcVfzE3yzt/0Aw4a6T+T/NXw/T/+8uBlE/Klc7Op76oD4QtMHbhyLXXXnvE61M1fMLVHFX3ar/V/0kfepmZude97tVmc5wQyKtSAWZ1j0qaEn6r8cZ/zQdaoRf6dABkrdm6fN3EKU111Fxphg49cdBjH7/7rSdNSWfSWvlMfqkr9qOcf/75rUzyTvt+p7/HvzUOjAaYh2xJw0sF566SEzqmwt70pjc1Qcg9AjJ+hQ3ocRvao8XOl3iGDYo5bhF0Ruc2dhkpP+lJTzp0zaaRco0j9OlRQ3rDKcX46/picWBYrqkT7GvdMgNy6623tnPNRoSmbNkBbn5DZ5i7Sm/othVzpaO+ql/O1Lt5DjCrs87Q1tka9OWBSvhm2MZPwiefzDXfzHhh6emOO+6Y3HjjjW2t2ayXTXTZnb2NqBciiLzK4zDfFZjVB8Bsrf+cc85pwGw5zE2BXS0XBzowr1X4obKj01Q2gLahhLDRsAmZNI7aQCIs0Il7FRqxr/Hwp1H50NWjt9HLWVAjZdODBB9/VOIYmrklzvgjOE2Ja6hdLTYHhuU6LF91A+Cof/Y8ABybE+2FUDfVm4CznA7DD83b5QY6qdOZWXLL1DOe8YwGzAcOHJgYnXFT/xLvPIAZrdBLGpKP0E87MmK2V8TRR3z69Kc/3XZr15mvhF0mXb7Dh8qDITBbjsujImYx+vOPy1TKh9M6WmA+zIKD/9Lwmdy3631mDVuPu77PnHAax1BVu0qPv9qw4gY4TbPZRKMBWRvyKIUeb84pD+OIOTQq3cSjsQaYa8NN2K4vDgdSZ1Ke0VOWdMALgB3fUzfVS8f67EDO5sQhneSQfepI7LajS1doAV8jswNrYGw3thGzTqWZHXU6dW478cwKE77UfCY9NQygNpp3VErH2m5255ulTeeGqvwIPfaJI3llt2gqaUu6w2tmHSLAnGc4vTpnD0B//nHRSnHj9IwemNMYwypmG8DS4/bOq2NUety1Ycc/PY3F/zQYdqHNzsesIeXL1JvpayPljJYJuY1Upc1vNWughCch6eOWNGxEt7vvLQdqfRFzyjGpSLmpK8oVIJrKdvWkm8EyOs2ouYZP2Gl0Q3+zeq1DAWZC/9xzz22zO0bLRqu1viXehN1sXJvxl3yGf9ETp3RYk3/b297W2rK2m3VmfofhE26a/WbSs1d+1uOluqBTQn54XUqHyezbZuTJXqW/x7M5DowamFXyaQ3RkYM8JODYRd2dnamzhNscmw/6EgYoExqEm53WNmoYKWtAxx13XHtk3igoKvFUwcNtlj23xJF4mIUf0uC3q8XnQMqOrv7dtvZms+N8RoTWU9VXwMNNveAPUFPKPnY7yWmtb+qVkZl1ZTd+WXYByuJPRyF1rcYfu+2mQ3iftNSPnbhDny7/lqQAsytNpYsadmAShlto+l/tmfdbVf7PSotyMQNXN+WdfPLJbbf8rDDdfjE50IF5rZFTGqJPA1DB9TxNGb71rW9tDTxreRF4acRpwNEJotBrf+784Z8b2miZvgbEppsAs+lrQD0MmwZZ7RN37BJ3C7z2I57EpaESSvwM/cV/1xefA8pO3QPAHmwANuqno31eUwowy0n8+h9A2mnZpx7S0dSx9HiFqx+ds6fi5n/iUw/ZM8eO+3ZUpRG6SVeAmR980lFwjjm7s63HZ3d2OjDSUNOEVuhV++2kdd5hNkoX95QLOeIyIh0mV/iSM10tFwdGB8zDCj40K74Am3OQHmA3JWaEwD7TYREMEQgp9qE9+j72QNnar52SAJlgM2J2/tPOScKVqgIo6Qt9bqEZv1WvbokvwBwaXV98DgQYavmra0AHwNjgBJzz+lTqYcKlniSnsY95O7q0pH4LD5AvuuiiVo8BtXqW+jeP+Goa0UUzX/giPVFx00a1JWvw9YpdO9lrBybh6MIm7THHrvrbr//JrzRVlTRyj4zxZK09K4DZ5jzvtXe1XBzowLxWoalhhWdn56sH641MXO9nylBPnHCMQBCuhq32aDDnE9ZanNGxNSBTgdaXNaQ0PGFCj17tq9t69tyEJSizCUzYrpaHA6kDtZzZBYDZO68LmAF0RoTqZsImt0Nz7Leqi1OdkgZ7Llz96Lysx1VSz5LexBk99luNM/4TXtxVsY+buHx4AIDNJHzuc59rx6bwyExD2m+l4b9w02iF9tD/XpuTjvBzWvzkjPKxFKbzD5if97zntQ1g0/x3u8XlwOiBOUUzreK71EGDduGIYxc//vGPZ+6CjVBALw08gKyxGL06XuKGpKwn2y2ZXbVJx1BPQ5yWvtgJM/THTvxDgcm+q+XjgLJWxkaDwMnn0YbPfvazba3ZhjA7kQFSBedp9WI7uUdHfVKPgZtTAwT/C1/4wnbe3tIPtyj+Eze7WlfjZyd66NU4Qk/+pdGsgs6LjrVXurKJEw+HCh00K93YDf0uqlnayRp1wFKZjpPNeQYAXS0XB0YLzIqpNuraIFOEpr4IPw3bXcWOXWjUvgg/wqrSQpOdBoIms6MaLl8wsjj99NNbD9YomfBIGhJ/4p6lx3/cEy721SwNphgJTGmKW8J2fXk4oOyUsXrnA8yOT5mutdTy8Y9/vB2lCmjTUyfkch5lH2DORTiA+TnPec7kwNqxqWEHUPxVzSP+0EMr/Kh5jLu4gZMd7DrT2q/nIL0epy1uBMxohu480530zVNP+uTZf2Uk7fIImG3OMxDoark4MBpgTgVWafO/FlUaYuz4AWgEDsH3zne+s929C+z41fCn0RIugKixEASmro2UHYdy3SZQ1nC4o5G4p6Ur6aHX+BIm7glb7TXSAHM6CvHf9b3lwLTy2WoKUrZ0dUf5Wm92tO/qq69umxSzFyLgvdU41vOvDmkTlmOsWwLmpz3taW09Uzq4JZ/SR0kju6R9PfrruYUGOv4P4xnaaV/So3MNmLVfm8ECzMP0VLr+xz10Y14vjbvplvQN4wgQV36z8wFmd2bTu1ouDowSmBVRGnaKa9jw4s5egyb4NHDT28A6a1VpuOhoDAFua3DHHHNMW0O2yYsAO7A2sggYV/o17mqP5kZmfqihP3ZJTzoKzF3tDwemlc9WUjIUzOoR8NVBdOmI41MeufDfSJo9d6rWr63EOfSrHgFgSzBGYYDZq2duqEsHMPmUPv9T53aaBrTQCJ3QDSBxr3HHXpodK3P3vel+7Tad4mH+qjnxhG7M1c9e/hd/8lfjjV3yiy86JMoJIF9++eVto2kN0/8vPgdGA8w7KYpMZ1trdjzFGeesDafhoq9BWGvLTV6mrh3yN2Kud9bWRrabDT5pky6diXQapJVbjTsNnF1NH79dLQ4HUm4EcT53QQNkwAygbVQMAAFn5TkEsuRoaJ96EL3WEfVH/QbEucDCUT9ADQi4J30JFzqJby/0xI0/Oij2ibzxjW9sM1/cMpsQf0kj89BuL9I7jzikWz58OknKya55zz86AZJ8zSOuTmP3OdCBeRM8tuPVRQ4E34c//OG2VpXGXRs1IWCqjOByjpDQ0mvd75t30mGgV1Uba81HGnn12/8vBgdSTkBHOdGVqylsI0JXULoRjB33AHMNl5ywiz2/Pir2dPSjEo+jOLkj273Mlma4BZj5D73QD43d1msejIzNXLloxIhZ+5VGasgXdkmz/+FB6LFbJBW+Js0x0wGz9XUzda961avaYxaRV4uUh56W2RzowDybN4dcVHSCT8/bTWDON9ddqBqHiu88MiB2NpnAAtAO+9ebvA4R3cM/hFE252SEVAVOGrUk1YbOvvrbwyT3qAYcUA4pp+hAMx/vNjd5FtKeCJueCOdM26YcQ0c9QKcCLzf1mH1AtrpH4JsBshvbbFBOFgDm0JSWxOf/XqrEKw8BZq9yeZ/ZlLZ2K29DYE646ML7mH3+L5JKepLemjazF8rebmxrzB6zyNp69df/Ly4HOjBvoWzsyv7IRz7S1pq99KPy26FqxACAbYgxbURwuRbPpSFp2FuIZu5eCSJClfD0UUlXgLraRSjFjt7V4nCgCmUAk88Si86jkaH9EM7xcgt4p8yFVycobuzVAzr/VECWHSVMOqiWaHIVp06nMPynLvGbcC3wHv4kXmkIMDsypUMNmK2/Ay5p5pc/KuFiV+1jt4fZ2DCqmr6hZ+XkzgWzds6Z2wdgv4vZg66WgwMdmDdZThqCc6LuzdbAnYu0tue6uxNOOKFNW/vvfKc15qzxpcFvMppd8UZgBpw1WuYqgBOptEYI1YYfu/jr+t5zIOWRmFNW0dkrW8ADnE1p27RIBZijswuIskM75tCjR8Vdp86I08avSy+9tM0OCZewwzQm/F7qSbe0BJhdFOQiFu3WJSNmv6YBs7DJQ/TwI+a9zMu0uGoaq3vyzU49sBvdACHvMltO6+8yV44t9v8OzJssHw2TULLebOTswhFC0HobYDZtZJQ8VLXBDN32yizthCfBakrbfwKZilBNOqc1/Gl2e5X2Hs9BDgyBQZkMy0yZAiMjRMBsStslGwQ1+3TGwtOEZ049iFvqh3jz6dzxZ1MRYAbQmRpOuP3WkydpDjDbGGdviJmETPHLn4+/yktmKnro7Xe+En/Sk/QN7bmbETBiru8y+2/U3NVycKAD8xbKiWBS6fVGjZ4BnalsI2RfporSeJCu/7cQ1Vy9asQ+6c/u7ESQBr4I6Uyaun40B1I+gFGZxQxc/PcFbExhGx0CIrpnTE05c1cHqIQ7OqaDoBSg5o8Szn9gZx+FqWydUcCsHSQ90VOvptHfTbsaf4DZJSzXXXdd44clKB1qbvFLz/+kO7q0xm03071Z2klLTd8wjTpiZgXseTnttNPaGrNpbfsBuloODnRg3kI5aQxpEMPGHHvk0nhCemiO/V7q0peOBUE6zMtepqXHtTUOpK6lzKLHng40A7b2PhgZmtIGSDaFxQ3gxj+9KubQrsDMTt2xPGPUNbyKM2CPVmgKsx+qxh9gdnysPmZh1osbnlDC1HDshumPO7f9VEnHeukDzDpMeZfZvhezG/t9OmQ/+bZscXdg3mKJzWoQ1X5a44ndFqObq3cCFChruP4TvhFOiUg+klZ6zVf8dH3vOZAySXlElxJuPmXpU67K2LEpV8k6RmWUqOwDSAmTnIRe4mEfO/SEzfl8I2bHpeypMIOkLsVvwgfYE0/cE99u6YlffBWYcwHLbWtvWWfEbGqfv6Sx5jnpS7pDN/aLrCsr5WJpDSAD5v4u8yKX2NFp68B8NE82ZTNssENziMyyj/te6oRlwFnDZSbICZ2kM3qEVcx7mc4e19EcUA4pE67MtWzipjwBDlAybWuToiltG8FsVrTcMlxrDj06OlUXhzqjvrjv3bWyRsxPeMITDt34tSzAbKd6vRkNr8LD8C/mxoS1n5jDl9gvqi692rWOmY2oD3vYw9qxtv4u86KW2PR0dWCezpeZttMaahqDQAG6mQT20SHp1KPOJrChQKr548bsWxbBtI/s3bWoaxmkvEQW+/yPG1D2mdJ2ax1gdszPlLbp6ABzDa/ehg69lrf6Ys3SufxTTz21jcCsLwPqzL6gVcMBa6rG1Sx2+Sfplp46Ys4as/Vme0RcBiTPdWRfk4ZO5U/oVj/78X/I56Qr9vR0wDPDoSPV32Xej9LafpwdmLfIuzSANAjB0xj8X3RglsYAc4Qnu6hZ+av5jd+u7w0HlIlPGeRLzHGLmbs6CJSoTGm///3vb1PawFr5p56GLjM1DajQEM7O3mc/+9kNmJ1GIPgrMNe0pW4tAjADYxev6KCYRbBjGX/keVp+8UFeqPA35ma5jz/SQyU90WPPLcDsUhFXAVt66O8y48zyqA7MWyyrNIA0iAQf2scc96H/2O+VXtNDaJqaJKCrvbTEvN/p3Su+LGs8s8pH+XHzAR7A6DrZz3zmMw2YXE/pCJUpbaPG+BUuZY8n7JkJeeBrhsWxwBe96EVtKtuFOmioQ/zUeCutAH6lvZs8l25KfBkxm742YwCYzSBsFZh3M707oZ0yGtKQd2WifF1+BJiVm1mOrpaDAx2Yt1BOQ+ESIVBJDP3EbZrfuO2FnnRJB2AmbAlV/7klfdXfXqSrx7E5DgzLp4aKG7tafkCRcLYLGTg5OuXdZiNIgJ1PeOFq2NAi4NUT9YVgd5OUc8ymxDPiTNhp6VgEYLbh60Mf+lADZkfJjP6BdtIr/fkfvsYcnsR+UfRZ6WMvzdo13us8AeaXvexl7e7sRUl/T8f6HOjAvD5/DrnOaqBpIDzyE3/sq9shQvv0p6arClsCl1sEaJLHLumnJ3zcu74/HKhlkTJJOdUUsfMFPM2QeLfZLm2jZuBEeGdKN7QqDf8zGqbb4XvhhRc2AV9nW2aFHdLaC3N4IU0ZMVtbv+aaaw4Bs/Xy5LumSdhFyktNW9KV/EVn74s5eVC2lPIHzBdddFHrUFWa/f/icqAD8ybLZtgwhmZk0kj810DSWJj3WyW90uE/QQuU6+7smkZ+kv409ure/+8PB2pZ1DJNWSVVMdONjI2cra/edNNN7R5t11Tapc2e8I7/0GROPRHeBSUE/Etf+tL2SEu98St+E3fVK71qv5v/k54As7x6T91UtstWpH0aMO9mmuZNu5YXHsccHTBr43TldunaTW02gXW1HBzowDznctoPQbTZLCRt0Y16AHN615ul0/0tDwcIasALiKyt/vCHP2wAZc3VFG92afPnS93wn2BXR9xu53IKgv25z33u5Pjjj595FWdohA5OsZu3Qh/d0GaOXeIKMLvf/r3vfW/Lt86I9XKdjYSN/5ijJw9DuvG/n/qsNFZ7ZacTYunB849eA6vuNf1D+5irn/5/7zjQgXnveL0QMUXYSAxAziYwQpjqDbKxYaV+lCkgUvaEtYtHjCBdPAKs1QPgXUfOGJD6YaOXF6UI9lNOOWVy7LHHHnW1K/+pO+JJPYsd93kq9NEO/cQZs7gCzO4Of9e73tXW2F0uYqZomFf+EzZ68pC4+NkvJU01j9PSKG3s4yafliy8y/zKV77y0LvMoVXzkjDJc8zVT/+/dxzowLx3vF6YmNL4CF6Nl7D2PwJIo6yNN/YLk4GekC1xIOUJjAC0ncmf/exn2wgSOHtxycgZkNWRZAQ7IH7yk5/cjkkBaECdO9dDuyZIfUkdi3vM1d88/qNPJc6Y2cmLKXiXq7zzne9swAyo1PeaT34XXclXzWPyGb5Gj738pPwe9ahHHXqX2WYw5TxLDekMzbPCdfv5cqAD83z5uTTUNLhMVRJUGjE7DTsfc2+YS1Ok6yZUmQIja8ou2LAz2+tTN954Y5vSVhf4IbQBOBXBfvza1PVZZ53VgNklI87HZm9C6gq91pdal9BKPfJ/N9S0+ALMZgje8Y53tI5IOhTLDMz4F76Hr9HZU8zKz0a3RzziEe3Rkcc//vHt+BRwnqWm0eE3dGeF6/bz5UAH5vnyc2GpTWtw7IyUAfNGgrY3zIUt2g0TFiFOB7qZojbF60asjJqBVgXm1AvHpBy3sYkor1RxU38qbeZ8qS/R2c9ToRua0ZMW8bADvkAIML/lLW9pI+Z0QLnhRcIO08Y+aa9xDf3ttTnpTV5jjp40MweYc/4cMLs/256B+Nso/UO6G/nv7vPhQAfm+fBx4akMGxhzvghgApuqjX4YbuEz2hM4lQMpU44AydS1F6hMaTvf7CiVHcv8pcz5M8K2echubFOiRtb54q/STp1it5sq6UwaxDVMR4DZ8bA3velNLZ+ZGciIuYav6Y19aMZc/ezH/6RjmK5qL13M2rUR84EDBw7NeDzwgQ9so2bhN6OGdDcTpvvZOQc6MO+ch0tBYVoDix1ANlrKKEiG0nDjJ+alyGxP5FEcUI4pQ6BkZKzMrS8bMRs5G0GzM9ICYHe5y13a/dg2fWU39nAX/17Xj+RDXvwfxp88spdPI/wvf/nLkze84Q0NmDFGh2PVgPmoAl+zCDC7PvWMM85om78e8pCHtDvOp/nvdovDgQ7Mi1MWu5qSoQCrkQFmwtg3a9QcgVfD9f/Lw4GUvxRXYGJ2K5gbwbzf7KyzKzvVBfcsOyLl2cCTTjppcp/73OfQpi80KACOtvpR64j/iTPuLcAOf0KzxlXpV3vgaypbvq644ooGzOx80l/TOExWjWc9f8Nwu23eKF3JP3+AWUfL5j276ZWjWQ/l2tVic6AD82KXz56kjnDViH0ZLW0kuPYkYT2SuXMgIEaA+4CUzWDONwOwG264YeLcrynQ49c2fZ199tmHNn1Zm6z1Q+KGwFyBYZ6JR1faKzDNop80yJspe5vcXve61zXd1HyAeVZ49puJZ73wu+VW0xWeiCt5Trz8ZSYMEFtfNvPhs4Gv0kmYri8OBzowL05Z7FtK0ogB83ATWBrwviWuR7xrHCDMgZQyVu6urrRL25S2883HHXfc5DnPeU7b1WvkqbOWGRX/hQPMVIChgsU8Ex66qY+Jb1Yc0uczZW8N3YhZxyPHwmqap9HYbDzTwu6mnXTJe/I/LZ2xU1bK1fOcRspGzE984hMn1pnjJ3R2M82d9tY50IF56zxb6hDTGiQ7X3rYEb5LndGe+JkciDCmAy9K+Rs52xBmKtt/zzo+9KEPbeeWU2+GRCswoxd/9BpP7IfhN2sO7SGdxBE6iTfAzB4wv/71r29r6dacdUaihuFjv+h60h1+DM3Srx2b4firv/qrVo5Gy6eddlp7vnMYbpjfjdyH/rt5vhzowDxffi48tVkNjn0aspFzBO7CZ6gncFMcUL6EdxXgMQMx/5V56oCrHNkDZ6NOdaLS8N8XVenGPnb02MX/VvVKo9JKHKHHjV3AV37ckW1Xtt3ZzmDLT2gMw4fOouuVH9Iac82X8gTMNvE94AEPaPsFvKets1X9TcvrRu7TwnS7+XGgA/P8eLmUlGoDTEMmhAk05mUVXEtZGLuYaOWsLIGt/8qXnvXWKtjZxz97n7pA+U9xr6qGj338xjxPPfEP40i65UuabX4CzG9961vbeWbAbJ25hk/apS/ha1qn2VX3/fyftCUPNV/yry2bJbjnPe/ZzqE///nPb0sTG6W50tnIb3efPwc6MM+fp0tFsTZA/wlsjbmuNS9Vhnpip3JA2RLeAWZlTDH7qoo/dgHwuHOj0AvNoR332Pm/G0rc1DAe9vIDmOXRWvkXvvCFdiWnqzkrMAub8MlP0hq32Mdf3BdFH/Khmv3HAx0RMx922L/4xS9u680bpb/S2chvd58/Bzowz5+nC0lx2NBiTmIJHnY+01+AmVBeVIGUdHd9cxxQrgEbITIC9j9lXPXUj+j8VTWkx41d/AfsYxfalcZW/m+FrrgAs3rsNSkj5quuuqptarOzPCNm/pJO/Khp5eZLvFtJ6274TTqkqaqhPXNNuzYsjza9ubnNDW4etRjSqTT7//3nQAfm/S+DPUnBtAZcI05D5U8v2xRgHS3FvYbp/5eHAxHYUqwsUx+ip3yjs69hktP4D53qn13cA3iz6ITeZvVpdKeF5U/cwNc6udvMjJjf9773Tb797W+36yi5RdX0Jw5usY+//daTtmG62A/tkn5u6XDgiRvcLrrooqZPC7PfeezxH+ZAB+bDvOj/1jigMQNk4Jwvjb825vznRkWPffTYN0/9p3Ngzhyo9Uxd8xktO97lJak77rijAfM111wzuW3t/elMZddwwySlzsbP0H1ZzMlH2rMR86WXXtrOMicP8ZO8xhz32Mfc9b3hQAfmveHz0sSiYfoCyqYD9bo10NpI8z8NOXrso8d+aRjQE7rQHEh9Sv2Kzj4fYLbhyZEvYGzEfO2117YXtdgbMSdcpvSZfaEfPf4WmilTEpf0cwLMZsCMmC+//PIGzMP8Jp81nLCx97+rveNAB+a94/XSxERYpZcNoP0fNtBq1pjToGMfPfZLk/me0KXmgPqWEfNvfvObNn0NmN1o5rpRwOy4VK2fwjD7Vq2+yo82DJgf+9jHthGzi0bwyPR28ht+pPBn2ce967vLgQ7Mu8vfpaSuUQJjX0bMaajJ0LSGzE/sV1HIJe9dX1wOqIMBZhel3HrrrW3E/MlPfrJdOzpWYLbe/uhHP3py8cUXtxvAcgNa2nXabUp2ln3cu767HOjAvLv8XUrqGmVGzQFoem2ssxryMMM1zNCtmzsHtsuB1KuEr/URMAMeL2e5htOu7M985jOTn/zkJ23teUwjZvzRuXb3+Yknnji54IIL2r3ZLh2pU/rhY9cXgwMdmBejHBYqFYSeL+Cc6eysx0ksQViF4VBQJkOxr37j1vXOge1yIPUq4Wv9CjD/9Kc/baNlU9nA2Q5tm8K4849G6DDHLjRXRQfMNsI9/OEPn5x33nkNmO92t7u1af3Kt1XJ7yrkowPzKpTiLuSBwALEvmwE878KMtGmYcc+eux3IWmdZOfAuhzIVPaPfvSjyS233NLA+Wtf+9rkF7/4RRtJjxGYXbTiKs5zzjmnAbMnPI2a0057u123Su25YwfmPWf5ckSooeYDzHrdw+lsORk27N7Al6N8VzmVAWZHpW666aY2WvaUpctGTN9WYF5lPiRvGTEfOHBgcuaZZ7Y15gc96EHtcYth+405Ybu+PxzowLw/fN+3WGcB5zT7ADNAzk1gsZMBjTgNOeH3LWM94lFyYFj/1ENryKasv//970+uv/76Bsy333775Le//W0D5lx+Mo1hqcehO83PstnpWFtj9tzjGWec0YD5hBNOaM9BJi+rmO/kbRn1DszLWGo7SPOsBriePWDW69bA63S2ZAScE34HSetBOwe2zIEAaOofPcD8ve99b/KhD32oAbPnLK2zchsjMDsudeyxx06e9KQntXPMdmibzo4K/8LP2Hd9fzjQgXl/+L5vsc5qgLPsJRQw13XmCs69Ie9bUfaI1ziQ+pf6Swe+jkW5gvPqq69uwGyHNnAyjT02YM6M173vfe/2kIXHLB7/+Mc3oO6VaDE50IF5Mctl11IVARaBlohm2XMHxBp3AJrZRw3pNMv+0zmwRxxQ/1J3RVmB+Zvf/ObkXe96VwNmt4CZ9cn68qzkhdYq1WttVd7vfve7tyNTgPmUU06ZWGfuajE50IF5Mctlz1MVgZSIq2Di5gPMGjhdY2dX/SVs1zsH9poDqb/q4//f3pv/aHaUZ//V66weLwNeYjDjBTAYzJYQIIEQR1kUJZGSnxIhpERK/q5AAiGEfKNEkbLwoheBAih5Cbax8b7NeOzxLPbsa2/f63NXXeepPvM83T1Lt7ufruo+T1XdddddVXct16k6dep4Kfu5555L3/72t9OTTz4Zs2XaLLPlldpsLQc++ze6PDczPcrNite+ffvSAW0AA5i//OUvh/tmptNk3TwNNGC+ebrc0pL6A1B/8CLcd950csAZWp9vSyuhZX7LasDtl/ZoYH7mmWfSN77xjQBm2i5mOwMzr0fde++9Acy//du/Ha9PbdkKH/OMN2Ae8wpea/E8sJl/GOD2gdmDHXGG8VtWs5sGbpYG3M7cXm0jnzAuAzOnfn39618PYAaQDcqW4TjYlmPbsuyHZ6sa+ik303xZ66677gpg5rUpdmbb1DqB5nL36eZv9vpqoAHz+up3y0h3R3SGh3VIOjgz5XpJ2/zYw+LU4c3dNHCjGqCN9dsqMqERxgUw874ywPzXf/3XAcz1+8t1O7XbMi0HmYSZjn+rGvdbjinlOTNL2X/0R3+UPvzhD3dFsh5McLn7dIc3e3010IB5ffU7NtLdUbEBZt5r5i4cv8PoxK0jj02Vb6qCuF25rWHX7c10z4wBZ54tA8wANO81Q7OcTVW4dc4MuqHPUv7du3cnvsvM0Zwf/ehHu77rLFg/1qf9Dm/2xmigAfPG6HnLp1J31BqYcddhrSNv+arelAWgXbmdkUHc0NzeHOblangA5q997WvpF7/4RSzjMmvejgbdMGtGV+gAYP6zP/uz+Ayk9Wa99PVpv8ObvTEaaMC8MXoeq1S8NMYObS53+roT293v+GOliFaYDddAvz3V7Qw3r0PRHlnN4cMV3/zmNxPnZPN8dTsDM3qz7gDmr371qwHQVKDpuGt91n7czWycBhowb5yuxyYlOrIHPx/V6Q7tQtpfd3qHNbtp4Ho1ULcntzHLws+MmVUcPtoAMP/DP/xDeuGFFxowV30WYP7zP//zOAEM3aFT6xUdctV+67fZG6eBBswbp+uxSMkdlsIwAHKakpezCesPlmNR6FaId10DNViMygygzIyZNnny5Mn4qtS//Mu/JD5gsZ1nzOiLvskqwqVLl9Kjjz6a/vIv/zLOzLZe3a/xm0Y83M1svAYaMG+8zrdsiu68FIAOCyCzlE2HNzi3jrxlq3dTZ9ztym0QP+7aDyhzcSb20aNHA5j/7d/+Lb322msBzGx+2s6G1S108/GPfzz91V/9VfrlX/7l6MfWJboZpuftrLN3q+wNmN8tzW+xdD0Akm13Xj9rBpjrZ83wmB/euuMT1kzTwI1qwG2qbmeAMs+R+YoUX5N6/PHH0/e+971wM2NuwHwlcTTpxz72sZgxA8zohJWGvqn12g9r/vXXQAPm9dfxWKQwrKNC87NmgJlZM8a8uBswo4VmbrYGDMy1XICZd3VPnToVH7AAmH/wgx8kvsvMRy22MzCjL2bM3LTwmtRf/MVfxIzZr5HVesTtPky8ZjZeAw2YN17nWzLFfke1n8IAyN4EBlDXYQ2Yt2R1b7pMu02tBBQG5nfeeSdxTjbA/OMf/zgdOXJk2wMzFcrNM5viHn744fSVr3wlvjC1d+/eWGWwXq3nfgNweJ/e/OujgQbM66PXsZPqDusOWvsB4/pZM36MecdOGa1AG66Bur0NS5xwgJkZ4IkTJ9LPf/7z2JX905/+NJ43j5oZDpM1rjT6KM+YP/ShD8UBI5/+9KfjJDBWE9xXree+Dhzepzf/+migAfP66HVbSaUzM2vmWTMz5wbM26r639XCAhi0Py6WqgFgNn4ByLwuBUAD1NAB7u1q0I93ZT/44INxJCfAzDeamTUbeOHD2L9d9fVul7sB87tdA2OQvgdGA7OfNVO01tHHoII3cREMzGTRM2aWrlnCZin7+eefj2fObAprwDwfr5Id0Kcff+/3fi/eY37f+94Xn4M0ELf+ujkaewPmzVEPWyYX/Y5rPwVY7Vnzlilky+im08Ao4KjbH8DLsuzhw4fT97///Zgxv/rqq7HhCWAetvt40xV0HTPkGfN9992XHnvssQDmBx54IJaz1zHZJvo6NNCA+TqUtp2jeCAcNlC2Z83buWWsb9mHtTdSdHvE7aXsgwcPpu9+97sBzG+++WZseBr1WhDxtosxMPNN5i996UtxwAjPm/fv379dVLBlytmAectU1ebKqAdED5jkDhrgzADA6Uu46/DNVYKWm62kAbejut3hrv0G5ldeeSVxsAjPmI8fP54uXrw48n3draSDG82rgfmee+5Jv/ZrvxbA/JGPfCSeM9d6JB37nab1b3+z11cDDZjXV79jK90dt99hoTMA+PUp891sRTjd9ZJ/s/Pb5N2YBkbVt+ufcAPziy++mDiKE2A+ffp0tEWWudtSdj6S8+67706f/exnYymb4znvuuuuq4C4X1vWf5/e/OujgQbM66PXsZNaD4CrFc47tAFo3PXM2R3c8mxDHxZmWp1mzYvsWob5ahr89ju82eOnAQMzG774eAWffWS2TBsEmIe1pfHTwvAS0f7RA69MsRMbQP7Upz4V7zL/0i/9UkSCx/2k7mO1xDq8ptu9Wrj5mr2yBhowr6yfFlo0cC0dDl6DMwMBbky/s8NXy60HTofVtJKVsDz76QMz/I7rNOt4zb01NVC3k1ElMDA/88wz6Vvf+lYAMzeHxKW9jGpLo+SNG9198o477kgsYX/yk59Mn/vc5xI7szH9fjNMX/16GOW37obJcFizR2ugAfNo3bSQ69QAnRXAZFCsZ82Io6O6s/YHAodju8ObZr/tWoZ5THP8Pi/0ZsZLA65z6ppZMe8r/+IXv4jvMPMOs1dr4DPveGlg7aVBF9wo33bbbemDH/xgAPOv//qvp/e///2dbtxnLHUlncFr/lq/o+iW2ezVNdCAeXUdNY5r1IA7pu/QsbnqQXIlkXTyusOb13Ltx/bAYRua49buOhx6M+OhgbpemRUzawaYv/GNb8ThIp4pw1fzjkfpr60U9D/64e7duxMbwD784Q/HedkPPfRQYhbNhz5s6j40Sm91f6z1O4pu2c1eXQMNmFfXUeO4Dg3QOT0QMBistKRt8cTxIGC7psG3WqcnvJnx1QDtoq5jtxNKjBsgfuqppwKYn3766W43NmE17/hq6OqSuc9Yb+iI97rf8573JE4B42tTbAbjWbN1ZF5LM91+28P4oNH3Mb4xMn+z16aBBsxr01PjukYN0Dl9sZwNMGPXph4szVsPALihY0y3H9vxzWcZNX9Ebj9jo4G6rl3Pbgf4aQNs+mLGzMzZZ2TDs51N3Tdw0xfRDTNlZsy/+qu/GmdoA9Z79uyJG5paZ7V7mB6RiYGvTgv/anGHydvutAbM270FXGP56w5YRx1GN80zZgYD7qRNrzutabb7ndl+hzvtmu4w08zT7PHRAHVLPdd1DY2ZGW2LG0CA+Zvf/GZ69tln4yQwZofbuU1QdusNHXk2S6uAzlnZd955Z2wI45kzs2iWu/mEpk2tb2j2O9z6HUU3X7PXpoEGzGvTU+MqGnDHc0e0YkbRCWcgAJS5AGkuG+RwOb7tvnz7HV7Hx+3BxnwOb/Z4acD1SztwWwCUuWhXly5dijOy//7v/z7Oyea5aQPmwawVHaE39Eif4bwB/Dyb56hODh5haRs3s2nAmU111nWt/7plrUaveZt7dQ00YF5dR42j0kC/gzrIdPvdUfETxgUwe0nb/PCZ1zTLGGXD5zjY+B2XARpjmvlGyWr0raEB17nr0/VL7qEBLLSvM2fOxMEi3/nOdxIHjTDzA5ibWa4B6w8h8tbVAABAAElEQVQbgOby0jabwr74xS/G5jDAmfPHbax/+/s28jC24V8tTl9G86tNS4Ftt0xrCWvWgJtLv7OZbkHDwrlbNzB71tzvuH05ljfKdjoMLLgNzPiR5fBR8Rt9a2jAden6xO+LOgd8mf29/fbbMWP+53/+5/Tyyy83YC7Vi64w1l8hh0VfoT/6YhMYz5w5hITXqljmRr/MnGszTJbTsQ3PML5aTnNfrYEGzFfrpFFW0EDd4Wo2000b1hn7wEwc89nuy7E889Z8uO1ncMEwSMNrv3lGybX8Zm9uDQyrf2hcAAbAwSlfb731VgAzZ2XzZSkvZW/u0m1c7twP6htYp04YfRRd3nLLLTFj/s3f/M149nz77bfHzNk6d79y3FG2++eo8EYfroEGzMP10qgjNOCO3e9wpjtaPxw6YOnnzNgGT8dZi23gZQDB4Hda5AG3Bw/C8ZuGv5mtqQHXLbmv6xM6bYBnoefPn0+HDh1KP/vZz9L3vve9cAPMLHNvd2Oduc+536A/DOEY+hV9k9UH3nX+/Oc/nz7xiU/EzJmjPNGl4zpOROz9rBTWY23eIRpowDxEKY107Rrod3BLqOm4GRjc+bHx1zyON8yms3MRj69XEc9LbPVAYHnIcJyaNkx2o21NDVCvzJgBZp4vv/TSSzFj/sEPfpDeeOONmOU1YB7czLi/Aa5ctUGXXO6jnjk//PDD8f1mjvHk1DA/cx7W52oast3v+vQ63ea+WgMNmK/WSaNchwZGdcCajpuLju+Zs8HZSY7qwDWdu3lmR8hhkGAA8Z2807O8Zo+3BqhvgJmNSydPnkzPPfdczJh//OMfpyNHjjRgLtVP/3Hfg4TfF/6635jPM2eeOX/hC1+IIzz5fnM9cyYupo5f91XTa1qO0X5X0kAD5pW008LWrIFRHbBPx8/lWfOwJe26E9fxHY9XYvicHzLYdctypQ+ScIaR4bSwa5nmafbW08CwuvSMmY1fnPb1+OOPp//5n/9JR48evapdbL0S35wcozdMvx8Mo0PzzBqb1Yh9+/alj370o+l3fud3EjNo3n3mhriWZ1nD0onE28+aNdCAec2qaowracCdsu6o8A+ju+MbnLGhmZd4yKn90DDwssmH2RE7vJkxA8wMFAwgNo7PwILp5wsa8ofRHYY9KpywZjZeA8PqzMB8/PjxeFUKYOY6duxYA+ZSRe5LXr6233bdzqGZTnTPnPkK1Ze//OWYOT/wwAPxnjO6d9w6jmkb30LGI8UGzONRj5u+FO607rD4AU2Dc3/mXPNROPuxAeZTp07FYRL4Aedbb731qkP4ScPxrCD7PSPAb5pt583pQh+Wf4dbNvawNIfR6jjNvboG6jqoudEtjzFYMWGG/N///d8BzhzHyQx62B6EOn5zD9eA2zuh9BX6Jzrev39/+vjHPx4zZ9539kpVze9+NExyzUd4n9fhpvf9w2SOI60B8zjW6iYs07AOBg1g5mL2i20+iuDO6eLg5+IZM0vZFy5ciAGDwdfA7OW1Gngdv5ZJeO2v0yIPDvcMo5aB2/ms45mHsGF0hzf75mkAXQPM3Jy9+eabiWfLTzzxRJz6xaqKgfnmpbj9JKFj+qYB+sCBA7EZ7FOf+lScEEbfs6Hdr9T23W9qfruxHW4ZfX/NO87uBszjXLubvGx0Oi46PXfknjX3O6M7KcXBDYiz+YuZM8+boTEw87yZA/gZjGuQHybPMrGdD+wakM3TV6Pl1XTz1rIIB9idRs3f3NevgVqf6NszZoD5Rz/6UQDzCy+8EKsqPN4YdXN1/TnYXjHdpukb9Cv6GYeO8BrV7/7u78ZHMKgTt/W6fnCvZPp9aTX+lWSNU1gD5nGqzS1YFjqmOzzA7Dtzd1g6at1ZccPD61IAs2fNnjWxSYXlNYwHlFoWdMt02th1GvDUg7njQx9l6viUhwuaB6u1yBglu9EHjwisZ/RpnRqYDx8+nH74wx8GML/yyiuxqgIw8xzUvE2X16cB69s3vPj52AXADEDffffdsc+jrh9Swj+M5lz062UlXsfZDnYD5u1Qy5uojO6I7oBkDZrB2Uva+DF1x8bv+NjMlnl31e80MwizCYzZs2dKyHEcp2k/NwLIwA+Ye9kTvjqe+UnfxsBNGJdlY+N3/hswW2M3ZlvH1rP1i9/AzOEiHCzCUvbrr7+ezp0719Up8Zu5MQ24XaN7Lk4He//73x+bwX7rt34r3X///dEP4LO+qR/3iZrmnLg+7cceFr8O3w7uBszboZY3URmHdU6yB527cS9p+858WMeFH8ADxM+ePRuzZtzwskMbYMYGaIcZpwWgM3jjJ04NzsPiQXP++8Bs/j59VP7N3+y1aQC9o0vrcxgwv/baa+k///M/A5h5h5nVFEDbdbK2lBrXShqgHrjop9QFfYx3m5k5symM7znT99xPXGeOh2zXYd/tdPu8Nb95xt1uwDzuNbxJy1d3XGeRwdbAjO3B1+HuoO7sXtJmAPaSNsuWACzPwQBbBg743dlxEw8gZykcYMcNHxdxuYjLoO40Hd+2B3v7sTHQ+3Ggm4a7mevXgPVoveP3jBlg/vd///cAZs7Mpn4bMF+/ruuY6Btdc+Gmb3Lh5gtULGuzpM1BJMyiXU+2kQUvpqYFofcDX827Gn8v+lh4GzCPRTVuvUK445Fzdzxo9azZHd+88JkXm3D4WY5m5ssMGD+DsYEZgK3ftSQ94gH8DNwshbPLGwOosgRuYAaoiQu9BuJg7v0MyyMspIVxvsPTfq5bA9aj9Y0gAzMfrfiP//iPZcDs+nO86064RQwNoEd0z0Xb5kL/PEJi5vzYY4/FQSSANTNnjOtqpTro89hP/JXiET6OpgHzONbqJiyTO1rdyUwju3WHNzhjc8HneLbruMx4613ayANgAWUu3ICswZVw4gPIADrAjgwGGeTDx4DOVc+iGYDq9J2vPg35TqvOJ/Rmbq4G0C/1xM3UwYMH03e/+91uKZs20a/3m5v69pHmNk5/xNiPmzqg77CM/bGPfSxmzp/5zGcSR3kS5j5Qx6ndfR6HOV4/Pfzjbhowj3sNb5LyuZO505GtYR0SGp28Bmf8NsR3PNwAILzMllnOZjBmNgzdMynPgusZMHHhA5SJa3BGFumRBjJqYGbwRxZ08yDHl/PuuM5zs2++BtC528EwYObVKdpDA+Yb133dvmtgNt39j5tgXqPi6M7f+I3fiBl0fSIf/LWx3/VImGWajzDTTdsOdgPm7VDLm6CMwzrYqA4Jnc5eXwZCF6XfgQn3Zi5AlrjIgc8ADbB6UxjgSjjxaoBGBrNn4mOIy8APP/F5HQtwrvMOH+GYOt06j/A3c/0acF0iAb1iXAfUD6Dwmp4xeynbm7+oK8Kb/kNl1/1jnVuA9Qkdt9s9/eDee+9Nn/3sZ9Ojjz4a33TmtLBRxnJreTXvKHrNM47uBszjWKubsEzDOhi0ml53UugGTTo9F34beM1vG4BllgQwewZMHAYLgzPA7MGaARs6abGs7ZkzbmQ5PeeRwd8fjHc+4CH9BszWyPrY1EFd56TieqmB2UvZvNNMW3Bdm3d9crd9pLqdu2+45OiXPkof4uaVs7TZpf25z30u3a/XqOg79DUb18eoOnWfrvkcdzvYDZi3Qy1v4jK64zmLdYd0Z6fDA5TYGMeB1wMFdAYLDw4GaAMsfFwMDlwM2J5BM7DXaTBjZoABoLmcroEZcEcW+fAA5XzYT35cFtzN3BwNWKd1G3B98u7y97///fiABRvB2HFvYL45qW9fKbW+h2nBfQGbOuIRAuD8ZX30gufO99xzT7z3PKz+kAeduHU65h2W3rjTGjCPew1vkfLVHdJZdkcFGL28bJr5AUR3ascDjD1rBli9sauOw8AB0PIMDIC2MbgbnAFoAzN85jcwOz8eRJyG/Zbb7PXRAPXAjRX1yStSfMTiZz/7WeIjFu+8807UbT1TW59cjL9Ut+u6pHUbr8Ppf/QbNoNxnjZL2syeAWf6EPXVN+7DloO/lt/nH3d/A+Zxr+FNVj53PGfLnW8lusHSs1rPSus4lmPANJgDzAZpBgzicMHPIMGyGzNgBm/LMA/pOA5hyIYP26bOg93w9mXZ73jNvjYNoD/Xi2NCoy5cLwDxs88+GzPmn/zkJ4nnzF5Cbfq31m6OXbd1JFq/dV/lZokbWb5CxWtUH/nIR+JREP3N/M6N/X25fb/5x91uwDzuNbzJyueO5mz1O2Sfjp847vD17Bd6LQ9ZvohHHM98/cwZwOYingcOP3dmgLe8fr76/prPbtt1HqBxOT75aub6NWAdI8F6pt6YhbEjn08/Pvnkk/HaFMvZ0LngGVYHljcs7PpzOX4xa/24Tdd1QDh0+hwXxjfHvDbFs+ZHHnkkvkb13ve+t1t56ut/NX8IXuXHMmCr843fYX06YZvJNGDeTLXR8jJSA3QoOjozWGw6PzR3NNvucLY9UGATlxm0Z8EM2MyoeA7pmbBl9uU5Y6bb3+yN04B1T93W9YubusRQtyxj/9M//VPY3JgRz/Xr3BIHukGklgkPYTXNaTt+s5drwPqEiq6sW/TLyhSfhrzvvvtiWfvhhx+O589spCRebaznPr3mwW0+083vtB3uGzL7bcPvOCvJs/yNthswb7TGW3rXrQE6OaDsC3+/I9adzW7bxGOgNjDTaRmwuRjY4UOe5ZJRx73uTLeIN0UD9YCKQNcLdYWh/rhYBXlNr015dzbvMzOTrus4IpQfx6ct1Ib0SMPpOP2ap7lHawB9WWfudwAxoMzSNtf73ve+WNrmlL66/yHVeh+VgmU73PxO1+HD6tXyiWM+y7FtefZvtN2AeaM13tK7Lg24A2EzmAKudHiDLELpTO5Q5q/p0IiD7XA6ri94HeZwx8du5t3TgOvD9WvbdHJGPQLAp0+fTnz28ec//3n6r//6r/jSlIEbHuLW8RwX23TbToewZkZrwHqy3mwTg/5Kv6NuAGGO6+RdZ47w5IQwztb2Pg+n4Ph9ufabr28Tj2sYHzTLdTz7CRsWpw53nI2wGzBvhJZbGjesgbqDuKMDylye9ZCIO5f5nbDp+Pth0IaF13x1OPzNbKwGXBd1PdRu2gB+ABgQYJb8wgsvxOtTbAgDrHmMATg4Xm3b7XQ2tnRbP7W+/mo94uaiXrhY1WBp+8CBA7Fr+3695wxYM6NmMyaPlyzPtuXZP0xjTocw+Lgcbxg/NIf3+Z1OHT5KxnrQGzCvh1abzHXVgDsgnZylaexh4EwmzOuO5g7oDDrc/r79bnXMfj62u596qOuuXy+ufy+Jwnv8+PH01FNPxWawxx9/PDaGAQrw1Ksk6NbycNfp9MPwNzNaA+iu1iWc9mPX9QQAA8Qc48nzZ2bQvPN81113xQ0UdeS4yK1Nn26/7boOoZmODMuq82q3+Ry/9tfpr7e7AfN6a7jJXxcN0GHo5ICyl7Xd6UnQnQ++unOZ7o4Ir8Oxh4XD08y7qwHXjevHdWa/6x4/s2IAmK+H8W4zM+Yf/ehH6aWXXopDR2gvBmiXqi/PdMt3uOnNHq6BlfRlHVJXdd/ds2dPLG3z6UiAmWfPvGZ1yy23dDPoUTdS/fSchunY0Ewn19AcXpei5jOP4w3jr+PebHcD5put0SZvXTVQdxTc7uCeOdfhZMT+fqZq+kZ3un5emv/aNeD68wCKBGhc0JgVY7hx4xUqdmrzzPl///d/04kTJ2K5FHCuDfEAAAzgjSz8rX3UWlqbu9aZ68q2Jbjvwktd8PyZGTSvU/EMGqDmgxh33313dzAJvMixLPwrpeVw85P2MH7TzGe/87rRdgPmjdZ4S++GNNDvOPjp4AykXLi5+oaO5rjYXO58tvtx7K/jmtbsd1cDrkvqpq4/1z2ACjgz4HM8KzNnwPmHP/xhbAzjZCp4iWswthvZtCVMA+brq+e6TlxXtpHocOqgXvUijNkyYHy/nj0DzIA0s2fPoL1RrH5sYdnIxV37TavTxb0SH+EY5zP7Nu63AfPG6bqldAMaqDtaXwxh/Q6OHzodyxfxTLeMOsxp2Ibn3eqYzl+zswaoB9eL7WF1Z305DNttg5PAnnjiifT000/H8jYnhfWXtB3ftuU4TdO3m40eanOt+iA+cXxZHjc+0ABnh0GjXngGzSyaTWE8hz6gzWK8bsVS92233dZtEnM88tevrzrdOhw38WgbmPoGbJi8YNrAnwbMG6jsltT1a4DOgnGH7ktyJ6vvvt3p6jiWU8d3uMNsr5ReHb+5118DdR25fqCZXte1aeQKXmZWHCJz7ty5dOjQodgQxmtUBw8e7MCgLoHlWo7Tq3m2m9u6cLmvVSfEJ04dz3quZRJOXXoFjP4MQPPpSF6rYoMYNudwA87MrnlGzSwaMLdMp9NP1+Gk6bRwN2BGC800DdygBuqOZ1HuaHRsP3PGbV746JjXYhz3WuNdSxqNd3UN1Pp3ndSxqGd4GGAx5jENOjy8MsUmML5C9cwzz8SHLtgkBp+vepAmTjMDDaCj2ljPptk/is86HsXv/oocX8RhQx83V4A0QAwoc9TnBz/4wThFjF3dvIJl4/SdH9Ntjwrv0+13vI2y24x5ozTd0rlpGqg7W7/jEEbn7s+cHcf82KbZdlid0ZXCar7mXn8N1PXjerHt1A3MBlSDLHH9zJnnzT/96U9jWZvnzmwGIwzemh/Zvuq0ndZ2tPt66Ovf/lF80Osw15Pp1rd1C73uz9xYUUcscbO8zQYxPi/5gQ98IGbRBm6eR+P2c2jL69vOSz/f9sNvnn7c9fQ3YF5P7TbZN10DozqM6XQi3HVnBqQ9AJAh8+CGt45LmDui6fA1szk04LohN65naAzWpkGv+aDjZ5Dm4oMmgDHPm//1X/81NoPVnyOs47oN1LRIaJv/9PVhPY1Si/nNZ7vmh8f16P5ax3OfJi71yNI19cYyNrNolrvZKHZAz6JZ8mYDmZe4nV4tj7Txc/XDCTPNfNgbZRowb5SmWzo3rIGVOorD6o7njmxgNg92fdUZc0eFZv46vLnfHQ1QF3XdkAto1DH0YQM69LoO4eGCTjxen/rmN78Zu7VZKmWwxxBu4/g1zWHb2e7rw3oapRPzw9fndRhxR9UjYcSj3hyffs0M2m2AWTLL28yeWeLm+88sb0MHuP0smrq2jDpt0rDf4dAwpmff+v82YF5/HbcUboIG6o5SdxLTaxrJmY7tiw7cv8znLFqO6bZNN1+z3x0NuB5cL9jQ+vS+37ll4PfMmWfM3/72twOg2WyELMKIa/mOt91t68N6tW29ONz+lWx4Hd82/LWMmseyahpurhqo+7NoAJlZNLu4WfIGsAFu6MTtG+fFsgmHZnqffz39DZjXU7ubUbbb42BSkHM5ih6hDsTTj5ijj/qtYw7jydLEVTraEnfECxlAw16SP2gaOGVjouMs0jELn9yi5n86XMjizjrnVpx6T0pkZkJTmjXtmE2zWv6anJpOiyXdEFz9uOMqpow6ZxU23Jk5h4f1qUVqHSUS6LTRRTDL6ul3UUY4LInga5c2LEYtcUSiN4mslOoMLOGpCJWTBKO+4egySFuRvwyyPhns+eefT9/5zncCmNkAxgysATMavNq4PxikbJvT4faPsuFzXNvmtQzb0M1jGn4u++u4gDQ3WNQjmz/ZLMaMmZkzwMwGMZa6OZfbM2hAGj7LRR6yLb+mO62V7DreSnyrhTVgXk1D4xLuQYoRCgNIVWZZg1KQ2WNEk8/cAW6dbyBgMAgOaMiIMbSQQmaXvrIgesgVwOrWNy3Sqa7os4yXr6Q5PQfEjo52RYdBXLmUFue0bDWvIzjV8RbmOFBE52SrAxJvUWC+JPriot6HxMYPoCObjragtNQBZ27dl26556501/33p93qtAsLeocSvgB38UzmksadeOSPZ5caCEoZbE1cVeDC4fKVGKjZcbFzNOlTnmUiQhk5bXQML1qvQSaHOgfZzvXmEAat5eGFS8K4qfGgOGBy3gaxBmGmQZkoFWn5OX/mkF3KXdd3Fdo53c4g5JScZxTSsVlcJkhRExOqI/4WYdJydNLHKGQ7vaVQZnAUPi1xywUnf2SPQdYzZgZjgPkf//Ef4yxtgJm25qXuQU6aazNrgDrF0K58eVWMMJ5DU9d+Fs3rVWwaY/YMWPMsmlevRt2QWX5fB27HdbjThxd6HdaPv5q/AfNqGhqD8BhEY+CUq4x/udGUkZBGXcoZdJHd8AggtLR/Wpw4YSCCYxWeIiNGQYEdgLcA2AKc5YrnvQLXRYHnkkAUQBajbNHgFTDPAcyXBcx6fjQvAF4QIC8JnA3CC4AzoByyAeYMxgBynl33gJnZtZKY1EaR6Vt1/u4v3ZPu+dBDad9dd6dp7e6cVOdlsI+yUV7pYzGAjM6VgTnKFOVzmW1LF6ik0wUCaj/uYAhydomiNJZFwxMEgYhtkaJmnJRZZNcmqlYEACjL6KzChhSAGRPCs3Po7yB84BJjDcwKqLKUpZiwLNLyIHzOK25YI8+SRrOyCFw1X76DIf/iiHzArCVn/cWNIt6InyXkm7EBMJPWkhho26sBMzz11fUDhDTzrmkgxiWl3q8P050xh2P78gwaP6slHFjCu9Ds5gaYmVEzg/b53N7NTVuxPOTXadV0hzk9+2t+aNdiGjBfi7a2KC9zjXkBDcMzM4i4GIA0WLmBMTAOBm1xlhlkjJgKi2FRdsxAGP9i5ERi+SvTv5hwMmMVqM5dvJQu6/N7l8+dT1fOnEtXcGsmfOXCRdEvaFYssBXfkgA2AFp5ZGkZUIy73mJHUpEBpSVP5JnyEFAugC5K0NFyHl0+TYVVPF1ayp7ZuyftvnN/uvV996b9Dz2Q9r73PQLtXSrqVFqak1zdKCxIvlQVA3lAM/4iO4of5Y4U6bED1UHKWens3EHFg0AurJLfYIK/mj4T3EUO90D/gFEOLwHBKgH6D3qRY3GkjfhFlR17uSk3BwpZLjNzWgZZXRADIJjTQIrzMaBZhm2nhfQATsAxcgFH5iINXLSiMLI6d6ZE2WiPxJ2MBiYOVkaIE6Jy3UYpaCfwic6qBjckSA5gFjP6YHBmFvXcc8/FUvaTTz4ZO7UZwAmvr5DW1RW+ZjajBqgzG/d5255BEw7YUv9cADBL2cyYefYMUHOymHdzw2MZxHW7wI0hDNkYr7SY3/np+4N5DT8NmNegpK3OwtA0r7VchqlJDdD5T6VaBsyMZNC4GB1xyKjBM6gGTmugy8As4BR4LWoZeV6z2XnNZudkL2gWK0fQFzTjDWDWOcVXBMxzZ3XJfVlgfUXLhpcFzhmYxb8wHzNIEs+DbcmLrBhsGSy1dJkzGLkiW+UiLIcELXyFU2XIpciDLZ5Y6tYGn8ndO9Keu+5M7/nggwHQu+7Yr+fOe4TdSkcFXmDtWxEmJTQgTbIA/5BYyY2UyIDSLRrDU0wEyK30USJ5K1ZmUIz4J+YgdkiSdyBRu4iLqBgccuT4DXJEd1mzrMIeOqLWFrnpQEFVOggAvDJv/Uvi8pc8IDG0IVLmqsRIF2HCQkfZS/vJTv3m//APUqHeqJcqevHEoCa3bSKyuILRfZVisULCZi1unhQo3iVuuqI9I1V8yFKYWmnOh9iIiUyWLVnaBJjZ/AUws7vXwMwgG9zIKMYDrP3N3lwaiLZSZamuL9z2U7fUs+ubKD6b+8CBA+nDH/5wPIdmVs3zaS5euaLN9NsFMvvAXGUhnE63n78+X9/fgLmvkTH0M0TmAUpDtAavPGdmvNSAr/IyZnVjUAxgzIyzI34ZfHVnGEChqQhLxgtabmY2fOHkyXT+5Kl0XucOXzp9Jl0+e1aArI00ALUGz1gSJu68UpLN8jbgGJuu5I5OQ1qkwVXSjXwytuqP36UlBsvsdl5p7H7WS8zlBnnLKcQmDf6YAU7t2Jl26Gs2e+++J+1/8IG0795fSju1MYQl70UtoYMGeSae4/AbaUpuyLL4SCe0I/E5MOAusqsfSGCI+LsOGgIkseQnsgYjPPE7+AHU41JILrs48r9i5Di5XCSV/7IMwmAkHvpTrQZy5rxmOiwKVxg27NnOEuQTidJIluuHRwPkm7rUM3o/yw+bOzjq1Ty0sELLqeb8RJpqS6EPDZZLuIW6E5MaANkZLXfYgKTytaA7E3B4UulOyDEZKxgiyAaglQ1yGLyUxnoOWvzkYsFSA/O3vvWt2Pzl124884EP08mJsmda+938GnC9kdNoq736A1BNp86ZHXOz5rO5Wd5+6KGH0ic+8YnY1c3sGh4by0cGxn6Hj6I7fDW7AfNqGhqD8BiqGchkYtDSLy6aFFTs7CuDm/yTDOAMroAoz3w1253XF3l4thvPgFmO1tnDl06dThdPnRJAn0oXBcyXBMzzWq5eWOTrPBpE1ehp+FMCBhpvzNoYhHUpgIR1iU4Dj0bOwMsATJDgArBAUjUbijj88C9msZYLVzF2Ej1kITcTSSuWt+TVCzJpp473u+PAB9I+LW3v1cawnbfflmYE2pPTAojgYcYYWoykI18kU+RF4uHnR2SlGSmRttOXLtFx7sDoIVhzuUN29i//zUzkIYsq/qIT9IbpZJXIkTY5yMEqAzmGMZeBbBs4owzQiRQ2gXiwsnuCGxTqU3bwRLvQwMaqSYAwQOxLsjpgBjiRoRsz0UIpZIR86wpdlHbQAbN2ygPIkxoEsw1IT6XFKe0DEGjzuAH6tPYF5GVtBlhuEFRDpFVkh61yB6kkSZkwBma+0/x3f/d3y16XIk+5jjJv+92aGujXYbQNFcU2pTKPn0Gz+Y+LGTKfnrz//vvTo48+GhvFmEFzDCgX4Y5ru9ZSnUadTs2zmrsB82oaGodwjU55QwzAABhqhpLH3lI6eRhsATkNlNjMSrQ2nZYuzwX4ntaXeU4fP5HOBgCfjeVpADsGXGbQuubFz3J2bOoChPQHsPqPJANEPPgxKCuUfw2v9JoYvDOAEktBEZ/8k1V+oBY54dKPSOKI0ExS3GDTT/yX8qAHGAAqZuDyLIjGwD+tu+VdWrbae+d70208e37gQNp9x+1SlV6pkpB58S1KR5icP7lzpkqOcs4i2eAa5CinStysEzKXJXUikBqxcqlJYyBJHmUZDSlWLli2cZf6lKO4sUtc24DiguqF+hSYLrH5TgMQjyKWtNmO/QCL2Pi1UsBqQfCKTxUrmvYBXL6geHpUgQ65AF+1kdiLwE0Huoj/bIdu5AxiVzq8Qczlj/zl/EZxC0gza46lQwBa18TOHWlSu2knd+/RtTtN37I3zWp3/fSunSq+6pF6Ud7Dlji0rBJHGjRjdBqqIkzpe3bEe8wcMMJStgdTD7T2S4ziFn3iaWZLacB1h02deqaM32GmO4yJRL2Tm2fQvAvNMvenPvWp2CzmlZVaDopxu7ENrc8DbTXTgHk1DY1DOIMhgzMGUGagyeMjw7mceaBliZmZLs+Mr2g2PK9Z8uL5i7FcferoW+mMjjE8d/K0ZsV6XqxnxULiNK2Bc4olSAbQmAFLMI0+EtMkp7hKck5WPPwXLlkOx9G5I79ZUNwoFJmdVaLDvywODJGHSESpABx5RgXIkqtJzbyYicbMWeADUE3PzKZdWtred8/d2hR2f9p7113aKLY3Te/cndRTVUZe0Yms6zcDlBzhVo8MV2QpnPxkWgRUbmMuAJLJRWrJM9WTdRPSQs7ipEAQcFY6kRQ/dgNM+GVHOHYAZ8mjyqZljgDWmOXKz4Y7wHgZMOMXwKELwBseHltoI4H4LmY/5Y70cl4i/0o757T6VXYGtx9RoKIGxc+uXA5iUmCZ0As60DXJ7FjtKS69dz6pDXuT2jlrYOa1N+pmivOQVTcMlI6DPLKYNxLKof+4ByzpGpg5J/tv//ZvY8bsQdp2f2AtUZu1xTTg+nS2c//JLbAOq+sbN+MCs2e+280MmaVtThMDmA8cOBAz530aK9jNDYhjatlOD5t06rTqsFHuBsyjNDNOdNohAzeWGokNLoZJ/gRNsVQ9d+5sOnfseDr56qF07ugJ7abW7PiiNnBpYGYZmwHfYBaNWaMps2KWqmNwZAYnE8+QkUy6JDSlYRo7BnWAkisH8UvDdd5itiNecqzhPwb4qYpX5KEG/jByUKZsgDjcBdTwoYNYFlUYNyy+xMXmOJ49z+y9Je167/50y/t0UpDO3N2ndx93iBZ3ytyAyIRUlSOWUiUjyhqZz0AVHVJ85ICiE4E4gwuXQggkT7qQjx0dGVox8YidtEgngFOgqZkss90lrVwsarPdkgaRhbj0KAGbWbB4AdYJuWMFhPgAN1NJ7O6Sn7riv9SRHFEm6ikqi7xEeYkPIwE2pYwujsnFVowod0dWY8ilK+2i+LrwSge0m1jJYecXAKxl7qnp2TQtsN6x/464Zt6zP2bSk6JThxN66Mz+BjY9qhTdoxHkeymb7zL/zd/8TQAztKivSuddXppj02gg+kWVm2iHQ/zD+Or67cczP3RfBmf6pJ8/A8YcVPLxj388gBo3y9vEJx5xMNGPS74su3jXZDVgXpOatj5TjKOlGHlApAEy8OoTiRrUL+rZMM+IL2sT17m3jqWTBw+ncyfe1itOF/Juaz30ZUNODGBMP2iIkkdjZIjlmXDs+A5gJkyNlAsgYGQXMGMAZEXSJbd+uuefBdADvJGri53IyMcAhUVC+Ps/HubNj4QSdRlrDPLIZfCWnW8QyIf4BUi8Ix0zLaU4qyVTDiNhBs07zxxIMq27Y5a9p3boGSfvP+s5NGARcvVDmuQldBJ5zm4KlEuSbfSDyTZ5xa8rQFE6Q29lY1XcOGgJOpaVy+w+DlsJUNbBKwLhJdUh4Iybi13x+b1vZrza9c6yNDIpZ6QVyesHJeDONrnNfofLS92UG5ku15Fd/TguEmp3V1qXcWBHGk6kiyOHxFkvpB5JhKOUXW01iw3GNKWZzKwGxVmB8qweQczIPb2HWbR20Qq8l1QvGZZVv9Jr3Agqk7RhZjlPPfVU+trXvhY2s2gPpvVAavdynZGpZt4tDbhOSL9fL/bXPDWf67im4Ta/49d2TETUd3hch5ul7UceeSRerWIWfe+9evSloz/ZIFYDMzItx/JJay2mAfNatLTFeRjgNCzHoJYBDtBk5sty5pV0/tiJdOyFl9OZ199Ml945GZu6eP1pXs8lF8qGH80nshYQJieDdQAbjY8/DXwExTNlApQQFJ7LAv4BgEhQWNdIi8hANcIwHWjk4ZvEkBPAlzmu+h1wEoRQYmDFb6axdE3a3EEolGV77FwsxSmgmkGZFQTNsrhTnubkIC2X6vnmrJZOdwmsd92mVyjuuDXtuG2fwPsWgYEOKWE5S4M7m5NCN5JHTrjxIBuCRFLL6SmAUpF+3Bypw/P8lrpY4N1uPSaIy+95X7ycJrXZLmbGbLgSfxzawjNjZs+xMQvQynrGVgFDdk5UQZ0ClW6nl8hRl6fIHplWpLBK5OzT61ZQcwAsA7eIkEkCk6WSzsDn8gZDiCnMtBWZnEap6yBkffHLjvZp3aTwiQnYEbsoIu9mc8MwOaMds3rVDWCeufM9aea9d6QZ7Q9g2TvqQ+VlZSTaoARQrwAxH7EwMHNCFHS3zb7tAZasNbPxGrD+b7ReLMcAbX+/RNBjvCjt0+CMTdupN4h99KMfTb/yK78S70IPkwOtltXnGeZvwDxMK2NGYyDjdRKGNICZjT1zly/Gc2R2VJ8+/GY68cIr6cyRt9JlHQSyyNLnrABGs8HYLathV0NWjIhe5jQAMzZiOJAjGjkNmf9CB+gAAgbXwMQy246RXD8FrkI2chg8EZCXuQcDfj7gQkERDudykzkjaQUoA5Yc5SZDGZg1jitId75shkJW5EeZBUAjPzlPzLSYoU5ppkneFzRoT2mmvFPgvHOflrlvvzXt1HPOHXLP6DnTlDYiER5LqTH70gwsbl4ku+jEwBXPywHO2IzFknRZlgaIL+lVMwNzzHyVT+1ynwCYWZpWPF9+jkxZKTKdP4NL1k2MKfHDjL7kI/RBOI7Ok+MXOYSiBRvUlNVOIjk0fsNtrmwPpJaaLfWVVTCQiaCBKFw5xYjVscknN+1mmvZDEqqvRTWOBS50wWt4Uuz0xEyaUj3MaGl7Ro8gZu7SDJrd9bs1gxboshJBCuiHi1kzm74AZgCaGbSXs0nmRgEAGc3cPA0YQG+0XixnrcBc8xGXvuf3oJkhs3ubTWFf+MIXwmY2DWjbOL0GzNZIszsNMLjlBiKHBjRefbp0/EQA8rGXBMhHj8Y7ySxps/kL3gwqGjxjRC0bxhhK1TBjGEWUHOGWzEV5GFTzzFAu0bLJoD6ph6QGT+jwkq9sOkfIy1L9WzhiVC7uQcQSf7lFngaxJRtE5FIeNSZHLhcCmBd1YIUAW0P+YgmHh/ixs5yZp8rB3zxZjPga1LVTe4rXegTAU5pRT2nTGMvb0+qofBxjRiA9refUbEqamNEpQwKG6VmAWnLZVMUmKz0XzpeWoTVTToBzzH4Vrtl8Bl3dHnDDI50zs5aDzPNf6pNSFq2WfEelKBzl8pcNZdcdiXiWGQeHDLgH4bn6zECY0jaH00JYV88RXFLM8eKXfJCu79QyUdFyWpEl0bqUK7fbC2HczBB1TvW3oCsOXEE27VEBtNeoy0nVxy7t3NbseYcOkNl93706H/1WFV3trwAygy3t2sDMkjbAzEzIxgBgf7PfXQ3UAHc9OanjGyShAbQY1zd2TXdbgWYZ2IAzhnA+isGpYbxaBUDz3BljWXYHcY0/bca8RkVtabbSqDhhix3X599+O53S5q53Xj2Y3n7tYLyHHNMRngNz8V/ALDdYNdYYQQnSKCh5WDFgxg/agUcDZkCzvPBgkCXh/HmgjUZOGPnClkGMTUnK3mwHsXDLGsRczmZfliGpRPElJ/hA3G6JPgAj7+JVT9IAr1ySZzosmdJzdTZe0YHJdyyHElQu0gtQEEBPa/fwjMB5Rq/3TPOKz2x+Dj0lcJ7FLd4MzHqEUICZ5Ws2ZyXN/Lqd52QAZrLvC1SHVrRIkUTRJSJ5JqgynY6j8AoNnj4XEURDmEwHzPIv5wyNBQchZA+TrRJZ/s5F3cNU2kDI1QAW4QSZsbAREO0KoeHG73Sck3xrADDH3oOQJmbqRNFCXaqTpTkNmICzlrFnNXve8/570g49f57ad2sANrNiD7ZPPPFE+vrXvx7PmJn9EIbxIB2e9rMpNEB7xlxv3Ti+6z76h2SabrnYDqvT6/Ph965tbug4IYwd23/yJ3+SWNquV18i49f404D5GhW2NdkZwBZ1RvWFdOH42+nEwUPp8DPPptNvHYllUjYHseE1zyo0zKlxaozTxZCXB/0yrOZGG4MifIyj8IQzbPMPBt/cocoEScGZnwE1h5RotkqwvdlWHsxsu+MzQZwdbXlsfAAqnLJKumKOvJTOqQB4OLQCcCZsMja7+dkjqwga8zXDZgf6tK4AcWSTgAyHptDxkYE7XvWRnM4WT6Svn3ifGJsbAIjEl5KyLNIPUv7B7SscpcxRlppxECeKJm+IFksA3zDWENULKOIH0gyGg2wtjzGIEDd0ywNDTCnioFhEQTclkVw78pgROuGlILGiIW6pF6bQWx4saYGZLwZL6ZO2O6HBclo3Qzt0g7RDr73t/OCH0qyWHRlEPTgzYwaY2Z1dn+zkND0YY5tG6s1sPQ24Dl2P9UwZGuGub0oHzXT8/fj4AWafGAcvp4R95StfSZ/85Ce7RyPEvR7TgPl6tLbF4sTpXVq6Pa9d1idefCUde+nVdPTVV9LFM6e1zCqQAYBUpljUFeAwO2ahhgEuxk/ZAHMHboUaszkNiuZhgGSKx2DLbwy6CmTQ5U8CIkQ/V5syQsMBa2foIHjIDAEhIjMrKNP4LfGhYAbjexY2uLEglAFeG7UY5YuMAGW5Y8GANAFYzaCmdOIUM2JOQgOIuROeUhjvbxuYI1ssteoKbZB4ZCCnTYo5/+RTiegfOOHiXyMAP3ENfuWtTLBU/tAnyVS05c6iN4ih99Gcy+PJ12dVpnLJyF3OqW3nIwIiTOlmNpOyrWe82SiwCreztBCxZL74laAczo0ibp4l8ytulvu7Ss5hNBGtRcTyP2lR59PimdGpTTsffCjt0LuoO7Vhb1qPGzg45kk9W/66Xpf6xdO/EDBrlaMsZWdpSNCyeeSHmnJOM32z/VoX2HaTRwCjtsNT0e0fdxud1GBrHXGThunrraY7HNtg7WfNxONVKk4G4xWq3//9349nzd6zQJzrMQ2Yr0drWywO51ZfuXBWy9aH0mv//bhehXpdS6kXNYDpuaaAWbiTdH5FmhK65cP/BcwazDMW5oGS7h1dXF7GeQ+k8axPITHLlK12GiYsBlEuPAItjIe3wha0johPAbmT5E4AKEZ4b8BxHA88+C3TnQ6bJ5OALu9B0wVZFaDT8ToN4OoDUqBRBl9iDN7If+QySw8/YfxVhUEfXeEr/r4z/PrxowH7B5qpXYNQl7ejlMIWqyPb4azZf1X8LqDnGCGwf+PTxRrCH2kPfnp66WIOdVwlritIdvDL5TruCyF+tJ/gi1uffLynnvvv1DPnW/TRkp16J31idld68ulnYsbMQSPMrKd49U3NlM1mM2onyJrjYJdoQ9T4tRu3z1H5XavEfnwDB/EJAygMFp4NEhbtWm27a7el0TpftuFdyTh982ObZpv4Drcsh/XpDu/b5jfd8Ww73Hafz/5RtuNZnm3TV4pnHm/+ghdQ5vnyF7/4xQBmPifJsjZ6R7blj5I7it6AeZRmxog+r52+F0+9k469+HJ6+Uf/LzZ9zYJS0zpqckYdTCPOpGY0AHOcbSV/vEwUiDpQBANTJuVBioErD1uKr4GMcI0RYcJiEAi6bAUw03FDzWwBZ8EfjTjiiyZefz83loThgMafE0A0f5GGgs2THYwQJYybDRVVZQvQjeXmDMgBzBqMObmMJeoOlEMuAmVyRiPtgTsHLf8VY+FdTm++jdZAroZBfeRX0ub1zvOt6ZaHHky79N7p9G13pKdffCn97Tf+Lj39jIBZA2w8Y1b7oiXP0Cn0DzDnm7vc5je6LHV6XdsXMfoLbV/GgMwrX3wpiZn/nE5wY6mVy+/fGryJY1m1nOhLBMrYbTtTB7+j6AOO63fVebMUp+cw24Q7zLwr2Y5HHC77Hcc007G50B024eiXGbE/GfmRj3wkfelLXwqApg68VwGZ8F+PacB8PVrbYnHm9BWo88ePpRMvv5pef/ypdPqNt4S8ekdZrw3NTanBqe3EbFljmeBJjaks4cnmUJFoW7yPXMpNY+NISwLcYAkCtBnU8h84lUGf2SFXgCwyixzkuQPoBjPiBQ168AyYAXUxZ346CH/I1IXpOo86EDQ6B7uhd6gDzZTlZ4A3530A0vZjO1+RVEgNycU1CM95y79XsXWE5ni3NNDVT6kiXtmjrfOu+c5b9JqbnjnveuC+9Nybb6Zvfeef0jPPPq82wk57PczRXRztYCrauwZktUvE9O5RRxbN7blmoG2t1azEa9nDbMCXV3VYTuUkqjNnzsR1Sq9DntXhQef44IxeuzNgw4+caPfKXz3DMw27pvfL4HDouG2Q6zyaht2nOY5t85rPdPtrGQ6DVrsto29bhm3Hsd9yoEPzTQw2uuIGBwPwcpgIs2S+PsUBI+zCRvfcFFlfwawfp2P/Wu0GzGvV1Bbm4zOMF3Si15k3j2gn9iE9a35HuMyXorTEvSiAZus/u4KZNWspjw1JvCMKFGvCK6OhiYGKBotbjXcKYCakDGAKikbIUrjmnzH7ZITjPWhkMSDQyOUdNNbSAZAfXwqqOjdpMCAil1ExD5cGZpFIXIaGH27Sx6+L2e+M7mrpROyGxk2HAZhhyHwDoMWfDfL77sgA2ZEZcJLnyKDZm71pNJCrsKvIqNP8rFjtVn+zer9554P3pRdPHE//37//Z3pOrwxOTaiNcBM6TTtRe1O7JmLeE6B6HzSMFctZD/Q14/UO0LWM2k06XMil/9K/PvCBD6THHnsssZx6UX0eMD6pz7IC0jUws2GJy7Np4huAcPuqwSn6PmNC0YPTjv5HH8wdpM5iuEfRzej49o+ynS7hlmnbcWoe0+CB7st0bNNGxYub+zKOMJbwfjLg609CPvjgg4mL58s2Lk8ts59P865kN2BeSTtjEkZHu0xH5DvJmj0v6s6Zd2bndIDF5UsX0mUdXjGna+GSDhbR6yYLeqd2PjpunlWz0WZCJ06xJJgPEpFiGBT0gBmoAjbjLGeBXywLa4Bjg1TcPWoGckVL6ed0M3BFB2fQf6PxBrDlQyJCFoII03iYwwswi48hdhFEF0P+E60MnKQO4PIO66w6UcyQeXVJs59InxgKn8y7ukgiGwYYBC8zFaE4TSHfy4wDlhGbZ7NooK6eaKVUINsc1Bfia1XvuT299M6J9G8/+Ul6UQfsLOkVKzVePY/msYwutS/aYn4/Hwm1xPUtZT2o91OiTdeGtg3AAsTM4v7wD/8wfexjHwsQIQwABrQNvoAtfmbP5zUWeDaNmws5ppsGLx9zIJ0+WDsv0WeVnu3oe0P8Lht8GPPbb3mjbPM7LjYy66uOCz9h5Ls2ptV6MQ1AZpc+IMw7yndqTwI3OwDy3To3HxphvgBt4mLq/JlmejCs8acB8xoVtZXZYjxSAWgoHKw4SSMV0MamMD5QIcAEnBcucdCFgPmKgJkjOfV+LZ9y5PjKKeLoYuYRx2wGMFZQyXjBMqBAmbGDbsd5zpd11jani507eizNya2Wy39mgEcyM/TKI+MglsQx5Jkmv0AH0xXL0QpTw41OwCDKTcCswHhWHSQvXWtZUjRxdTt0i7iQGT/Rj/ST/zt6TrXzNscYaIB2oFZJY9KJb9rwqDaadu9Mh/VWwk+efyG9qLZ5UgB2STee+YZSN3q0L/3lE/Oi2W6IJurBfFiCBjzzAQQG5gMHDqQ/+IM/SJ/+9KcDQACO2sCLgR+gvaDXJwHmGpyhGZiZZeM2MHvVCzBDBhfuGtyiP6Nn+nVlRz+WfxSNfLlM5oVWG+fftsOG8cMz7AJ00WH/4rkxYVz1BysAYcCY5WqAGZDmi1J1Hpxv8mN6TavpzvNqdgPm1TQ0BuFgkPpEABy/0WgA1gDbwTLWosCaJbw8G82vncxrsGJpOwYqBGkawasrDFh4M/wBqPgUV2Meu70XtUzOV6qOPfdKOqsl9Dktp8UXkMTJPx8YCFsdiJjZMBhi8qAI+BIY51dnZzR8lsuntWmLJWrAGFCekX9as+YOuOmYWWiUVzkLHRSSQ5Z7wzeINySwkbagBpj5TuajwrTyIo9uIDm17YwOeTl04mR67vjx9MSxN9JxgdCspszxpTRWWGToE5hRA24EVj/mM6nvN71v9wfyfrj9lgc/F36AEfDkYwrsDuagiw996EPxLNTxapt4AKcBFsA10PbtPugSDx6AnTSZYdc27vpixg4vfLjrNPvpItuXy4fdN6bZdji6qAHXQOvNWmzYYnbLbHi3DqABYLn4YhQ7qblwc0MDDxdxzI8NaCOvroc6fdzOO274zIt/raYB81o1tZX5aNu6sHgNKgydWs68QmxYDawMQGNYYlNYPJsT7yS7mokoGsCcL7yAqMIVFDPki+f1EYyz6ZJmI6cEyEd1Bvf5o8fThI775PvNpB4xlHA8vyMDarwDk/PVoSgdMyIxQGomo9nOtDbqzOiIy5gh6zhMAHqaGTJyuOEgAlb8IDuDcpAgr2Lq3KzC2oK3gAainZcBfpGtEQyWanfzuru8cHkhvaz9F//1+svp4KmTNFE1PbV1tTPadT4KlSiDVtEHhFoFNR/02r9SvFrGWty1LMAM8GM2Byj7Yqbn9Gv+Ol99OmGmEdfxTScMcAVkDcCArq+ahtt8hJPHPjAbnKFzjQJm58n5wMaY7rwamA3K+PNek9kAWQOzQRkQBozZMMcFOAPafg/Z5Xc6OdX8S5jp5nOeanodVsdfyd2AeSXtjEsYiMRMGEszBs6xZrBiqIlZqewMWnm2mH/hEx1GceazjT040SBzp1BXithMgK9oVnz60OF0+vXD6eTrb6Sz77ytge+CAHsuf4QgJ6K0coOOndrsLotBL8uO5BgQyW8BZQbIKeWbg1DoMLGhKwA5H/YR0SU7JEQa/DixYvu1LYVgCjV7ul/H6QjNMQ4aUMOIm0qVhRpWy1KrpRVqL8TSVHpLy7k/PXIoPf/2iXTknJ61ao/FjDY3svoyydmrMnlwzW3Ug24EXMPPqHhrHbhHxQfMADg2IT388MNx8tTnP//5eC5q2XXcmlbTB+XMhTIfvpoPtwG0v5xtcDXQEm5e28S3jNrG7bTMY38EVD913kw2rbZxc/UBG+Bm5uvLs2mAmzDHsyznzX6nadt08/Xp9q/VbsC8Vk1tZT7aew+YGagClJdh0XJgpsgBzCBf7O5iYBpEoBGyGWz+iu6M2Tzy1tH0jl7JOqUDTE5rtnxRs+elHUqJWa6AkT8Gw5AbnZD0kGk7giIJBk9SInRas5tZ7ZbdwfJ1WY6a0fnTdDaAPHg1OIWRn+zmfDIAZBnd+9SZy6UovtoKgSVSRRe5mS2qgdzEIvNUI20CaKZN7tSmrzOa2b0kUH727ePpSV4r1H6LabX3eMPAd7DREnP5PQjX2ugPyHWY3aN4hslznL5tGXUcAzPv1fIslCMhH3vssXT//feXGwrKnBtwHQ+a6U6H8JoHes2zUhi8dXgt33JrWfDXph/XYf045rNtvtrux6nDcDtunw86NNP7fPYPk9ePN4q3H3eYvwHzMK2MGy1GIwajvJTNTNhHbOYZsxpjoBkAWTAp+rEaaCEQkvu2aPoLTvGw1Hf+hL7n/PxLOlnsNb0j/WZs9uJjGWwVm9AhJqyXs7uVv3h+JzsyE/kKSQONQyMvwu98LGb+JvJeAfIO3c36zpdGT9bICxlz3sg90bkyQ3DoxgReiMNNhPAT6cPT5yWd4XEbdXNrIK/6qB2oUfANZ2qWR80c7zmrm7t5PUc+q29eP6dd2v/39VdjSXtqnttIGQFz9IEoYm4TaxlwPbCHiGiMIeC6f5wmIFzLhG5g5hkoy9kAM0dD8o6t441KuM5nLbdPr8NGyYI+LF4/rnlsW16d19rd5zP/MLuO1w9HjmXBZ95hdPP1ZdhPuOPbhub6iUmD0rAc8zj+anYD5tU0NCbhABe4QreugTkjWgZmGg9DTywnE0Ee4mDnmSn+kCACgWqcmomfefOtdOhnT6QTr7yqL1e9k3hveoIzMIswoDG+yyxCtzkLoFR84XqwQcfhBs/xiNOaFc/wIQJdu6d3pBltzIFtYOho8iFnQAye4DOvAiOtmqniz85c9nBHPEc2I0LsbvZW0gCtI/7UKBZZZZE9rXbL4+Z89jYD6ER6VW8PfP/1V9KLmjlfuMBbCbqxrPdAVI1vtYHWAzJ6GsVb02v+Ybo1rwd+/L4MzCzL8rwUYP7jP/7jxIlUK6U/LB3T+vlx+g4fZa81Hnwr8a6WXj+u87NSvDpN6454K9Etd5Tt9CwDu5bteOazfzW7AfNqGhqDcPAEAAtbbsYXYIfZsrGG2WTQC5OxKYcrVI7gloMP1cczOsUHf88cOZYO/fzpdFLPlxf0StSCNnks6rvOC3o1ZYFnTLrk0V1BfrJHZgBqGjGDCpDILmvSjx3gGgwBYz4ssHu3vm+sXdf+8pKiRN6rn6qGcm4rQuV0RJEKW1jxU4GyY4QC7BnEqSjNuUU0kKtb7U11uqDHKpgpbfzidC82X8dNoXb0H9cS9i+OH03Pazn7ZYHzaZa0tdQd57WrTQZIlzLTdlcywwbifpxhPKNkOq7j2IafMJ7lQmPXMMD8p3/6p+mRRx4ZJa6j13IsqwuUox/usH5+ajphjmfb4bVtGaYN4zXPsDDHW4ttOea1vLXSzUc8x7UswnwNC+/zO95KdgPmlbQzYulYCwAAIdBJREFUJmEMIYwjAaxyBwBjBy3jFDzAk/Eo244Bb3YzuLE0GD7RWBK88M6pdOzV1+LrVUtX5vRNXIFxgLJew5Cbw0wmBMyArsbCDMiRp/x6BPlhY1cceqL3KPk+8YyIOzUD2K3lOQ4P4fSwmHWT0WKIR66XGxJYTsksIlasuaOVEsPvsH7cnqjmfZc0cBPqJ4A55GRQpu3ijc+dasPPeW2gOnr2XHr+xLH0P2+8lo6cOaszswXMvP0v5mj3dCQZD8ThGfLjwdi242DXNLttW1Tfn9urbiLKjN982NzceiZNuD8/+Oijj9ZsQ92j0jFzP9x056cfbrr5+uGmr9W2vPWSM0w+tD6973f+ydcwfodjX0/eGzDXGhxTN0OJgRRXDEZdWdWwRDEeBVTBEAMQsVi6hpq/tsPg1hl4hLQLvDqhjV6cFhbIq4ECEMYdDRq+yESZKUtAfqbNTFwz5riW0hUNimeOvJUuaTl8UTPvCYH8bKQsUdwM+E7CuUVmnR8yBu0qk+PWQTkav74ZsSBx1YxXyWqEDddAVM0N1I8GT2JTrYs6M5u2zSdO+VtkBq1wQJobvzk9b35Rz5r/z8Hn06vvnEyTV6Z1w6h7xSVOwdNNpni4AEK7o41XSmEg9mBst/2wmVa7h9Ecjo0xTy0Lep0P3ADyV7/61QBox4FvmHHe+zLN63D7R/E5vG87vuP1/avx98NX84+SP4wOrabXeezT7Sf92k0crpo2LI+WPSxsGK0B8zCtjBmNAUlNMH6Z+XqIi2LSqEQRuXgZrjAlFg+BRcnALL4SGStm0TRu3CI4TN4IIyCkEShDGtGAg5cGTbgGOC19z+uUoQvHT+h1q9fTxeNvy39B9CtpMr9YqgEUYeQ0JA46AjJJL1IY2JEeP6TFX5QDTpGUcJYyiJVDFChHzm4Oi9KVQHOHkPZzTRqglWH4dQvEHTot7YPwzJFdK+pbkUOimTphxDUx8+DLW754i6AAM42VTYmaYcIOMHOxOfFNHVP7/04fS0cuXdZy9061nYk0BzDr8Qztl8vA7NmqaaabDxtjf5/fdPM4ft+u+UJg+enTPWNuwDxoA9Ytdg2Qte5iTCjtcBTdcgi3qeM5HNvpmNd+x1vNbsC8mobGJLwMD9WQVRfMw2Y9pBE+aIAOMaVr9gxU4qRNO4yYEV4TIMrvNs3HLbRzTFirA/hP68hOAfK5w2+kC3rlal7vksYmMfEvaAYTS9g8GlQU0/Egyw0fP2kyqcaWFTcKjL85h1pOD3BWuDIbzw3LKgDL6/HMWzFjJkU4+ZOZL7P+knzQ2s+1aYDWNVkqngO4fDgNdaQajfrIA5cobiCKQw3kK3MGe/zk9gqVXQvZ5PqKhhgDrPwhLm47Y6MXwhZgUxqT5axNvcYcaXCyHcAMw7yO67yks7SX9F7wzL7b9e1mgXOklEGZ9Dx4A6C8s8t7xPXFwRp+x9d0aLg5aIPLfmjwYkPjGhZueaRpYwAnP2z+4kMLn/nMZ9JXvvKVmDlfKyBY7naxPX709TSKjl4chrsfD9rNMA2Yb4YWm4xVNDAY0PK0WgMr4yYzEJ0IduHo0XTy+efTeX1MYE47YzVCxY5sHb+kmYn4GGEZUGPGTFLhIaDrJBmWcwgcxGGcZVaEzQ0AAzIxA2Q1M2IQX5IdYKEw+JhZAf4AN/488AVrxBWpmWEaQLG1CeWbMABmHmEQlC9FChA1H3aOaHERHMyFXvhVXVmGGKPm5I9BMiLm1hAxCmN8C01x50t7yMCsmGpTfE0qbsi4Q5tfSjO37Eu73/++tPs+Xfp4wYxOg8L0B2EGaAOzgbUGV2i+DLi2Dc7w15dBeRQwG5xJuz7EAxkAMydasenLr0tFxtvPltNAA+YtV2VbL8MMnN3MRogcfxpAFzim7219lu71w+nt555PF3W29pQ2fvGRjXyeCe+SMmQyKGrzmGa8CxqQAHUGyfhj4MUwYMMoE+mV2XFslpGUJQlkNs3MDTt4mRVr0w9bczNgKGaR55l5HPwktngmXuRHIu1noIHQS185UnKpGqw4qlpK54mEVx+IQV3SNhapr6J76lVLFqqjfHOEHOqFRyfU8yAlJGOyDeTnsGKLn7/cTvJNGMDsd+qJx14Ims6UDrCJdjEnfnZi796Tdgmc93/ykbTr7juVRkiJ1PgxSJMvX4B0fY2i1zx2w2s3tk/QMr22+zcBHHfJhyjgYcbMUZycAMY3gqHV+Q1P+9n0GmjAvOmraOtnkMGRwdfDJ0Mcg/OCniNfPHYindOhJKcOHkxXTp3Wu8ox9uYzujVixndyxTupgRtgnmcAC4RlCVS8ZeBhpsu/d4x7B3cArMA95kRCAVxiI2LIi93ezNw5x5sbggLowaKfKZBDJn92Mpztp6+BrNAeVbWdKzyAUG8ERzhLxsxeDc7UQwbmsqIRd10ZlAFmFm1DTNQzLlpPqcOQOHDntoA/p42ds4A/x+IrZQBzALzIfM40+ATMmAktcS9pOVvfU9Ns+d501699Ju29717xcIOYeYIPGRtsDLIAt2fZzLABZr4EBZhztCSzZo7n5MARx4kb2XchzxusorFJrgHz2FTl5i0IwyODbxgGw/K3yOcmT54SIOuSvXj5YjzbZbY8r3GPWWq8yqJBlW8/I4KxJZaexRM7tSWUeVXMxBTOuE5KpIetqZh+SFHQrVkYm3BjMiZBHCV6Uc+3L58+kxZOn8ubzTJ7yCE6MfkNaSEQajNXaQA11abSFfW4qLOnAyT8SEH8LFhwUWOcjR7QSQVSV4oTFAEyopZUwREUchUiu0RFQK747MgNINz6gYmbum7jFq1Ftar4fHN5Op41640AEfjAC3SWaxbUyPZqKfvuL/1y2nfgPrUdvR8woY8194yBr0fuvPXMuiPKYbppfTmrhfdn18yiMawQcdYzAI3bcpHXl+m0m735NNCAefPVydjlKMa6PLzmQROgFXFJz8Xm9d7yos4q5lnzkr77zKSEAXghbAbnTJhY1GCtAGbADLYLWmPOr1DhBZizTJQX6YmHQSl/wjIPhBwQIXyQHH16g002p0+nc9psxutZ86e1FKhd4JyPTBLeXsONQchkxobgZlbUwFAVoVDVI2G8rpShljqJpwgZDEWlTcAZvxFHKhd4sgqi6o/4Ea66CN6oX7ErHmCLifQVl5uwuOKDBKSlGoUeDSC3JX2mIt6Xp71dEfCzKgKYRV41a95113u1lP1w2n2PvtIUwBxPqiMd/xj47O/bBsM+n+nmXym8DnM807ChmW55ts03Ktx8zd5cGmjAvLnqY2xzkwdjRlCNgl6f5JkcMygAmQu3DCz5ma9mWgy4gG75C5hkQOZiGGaElomBB1bi49egS1AHzAzsIixNajlcNwOX9Dz7kk4su/DGkVhCn5+7onhKTVNqiYklzXiFpgBzmbArpJlRGsg1kX9rHuou6k02N1NR/QV4WX5G36rQrPdCj7qKuqWuAXRxga1iBWNjlzegzdKzbB5dRB0ByDpFbpKvBOn0uKkds2maD5/wHV25J5hJcpKcPh06JZ5p0fWFlLQwq3gcAauwmGkqjSktBc/edmua1nPbkjI5DXOjQGfAXE1ezec0o+2jlGKg12GQ7TdPs7eWBhowb6362qK5ZRDRFWMJA6zmuB5YYuNVDo/FS9M1BEMNYGY4zv8hIwZz+GAAbBWWN2cRhwFef0EUHR5o4luY0ysqehXrsr6/e/GIZsr6TvRlvTM9d+G80mG0F2v1rFEYHk8WGeQaMKPHgQm1DryV6+oQVY9UG5UV9UQNUT2QgkolFUCmnqnDpbhJy7UP02JUACsm2hAo8J0SsE5o1z6Xn08ssZFPO5MndE0KlCcFwtOyAd+ZHTpBTvbEDtEBX8UnfHKnwFq0pRnAXMAMPWbNyocymVdMSmarUt4o8HXtv8gcJc98dXgNzDW9yl4D5loZW9DdgHkLVtrWyzIDrVBOJuZOAZqiMQhrQA47hui8McigCj8Dd5jgZbalYV1EZrMB3aIjOd5PFSVeeyFMF/R48iaPnhqmOR0deualg+nim3pXWs+1mTnPL1wpB0doiVWyJjkaVHJ4hsfMjCXymEMrrJmsAalWJv9mSv07TFHwUhvcIHH3U26ccg3ileKld9nU76I2MS1qd/6EVlEEs1HXMWMWCMdMeNfONL1nt15r2puvPXvTlM5Un9QMd1Lf6WY2zKt28XUyQFYXKyFL4c7gzkEigPoSdA7MVjv0a3Lc2HEfQBEno/7JX2RbP8ONAXR4KOIRePOM00MubtorhpuKm53Wzct1k7RWDTRgXqumGt8NaABg1ijH+FwGqDLuMVR3AzIJAIKAalwQIo7i86dIDNyYAGaE6IISi+ByxN5ZGEXNwKwD/rXJa/HsmXRRz5PPvngwXXrrRFoSKC/pPO+lGaWvQTe4FS0PatqVW/Ibz64lDYPUZrK+4zfqpq8RYE2mUlauvQzMvAAHR9x8iS2otAkAhlqIxxsSLHtKIMMmJpaiJ2Y0253dETPhKYD5lj0ZlPcJnPfuTdO7d8fScyxTKx7tKmejyA3pOe8BtmojcHBDR3PB7XZHvABm2ayaRH43GTCTR5sGzNbE+NgNmMenLjd3SQR0jOPxGpNGwTI8Bw06g2PYpRTssvZgycATl8ICOAmAmTjBJGeJzCwXw8SMFHkd6pK+F33qxRfThTePpLkzeq1E53AnncPNSWCshMbWYLYHh1x+ZCQPkRkwCDIB4vY2oZesHSmi6KuoJHyDn0KlJnKseG5PHOkbmm6Nok3wrFiVFQd8MJOd1PPgWc2Id91xe9qx/440e8d+ge+e/Pw4niFryVlLzzwXnuTLZCxta/br7DhXgCop5xxkMIYp2kvQFSbmAF9ym7PZtUdIEaYbB8uEdq0mbkwVabXZ7Cg+052u5Yyim8/h5je92ZtbAw2YN3f9jE3uGCCYhLInlwlS7H5mqCt0xsP8HDcPf7G6KCK+iKsNPpg8wGiwlTdAuYzF8DHYxi5eXo/RBwfmddYxQAwgn37hRe2+PqGJGBvNBACSx7wq0gHEY5aFjJx+yFJGvRuYBD2YR0a22U/WfqmPKPuAkjVWKaQj2FF4ZaHDoMrBPRQHi/AkmSVunvtOaWbMZqtpvYs7e+u+tHO/gPkOA/Pu4OOmK9qBBAXg0xhk8i/Ssiunbl+wkFIwZo5Mg9TBbgnAigshagf5RrLwX4e1VoAcxWf6qKQNvKP4HD4qfqNvLg00YN5c9TGWuWGw4AJbOSM7gFklDaCDRrjAkufNPBeEIcbDSht5AM4DKOOwZ94MOMGLHP40ZV6Y1znF+toVh5eceflQuqzd14tnzug96UvxrmrI59WYiBuxclyGZ549hsTBwCzRyuv2BWbKn7WBnbWTafiuNg5ziOsHP2Ac+w1oDJohM1PmuTHPi3cIhHfqlK0dd9yWplie3rlby9g7tLtam7Rks9s60q8ah9tWNCoSkGGj38BUORQZH+0n2lPwUueF29GwdcWNg5ojDDnlwreBFuXD1MAafYmbS5n6mXKniwhZHqeOX4KbtYk10IB5E1fOuGTNA0aMd4yC+o8TuMoAmAcaeRQWA00ePqP4ZQKbByYNUhFFP2W86gYsgJNDJBZj57WeJ7/zdjr/5lvp7Cuvp/l3TqdpzcyYOy2whMrNgZY9M6grHnGLQG9OisSVz5yifGSPxLehycV24X3bcrUizBFaC0+moLf8iIFDPBRPN18xO57S60zaQT2jJerZ229NO+7cn3bdc6fct2kjlzZz8VqT5qrRYFQBRO2M2krUjWRH1dGuZIrVsVFvtYELftcr/IM4kln4yS/OeNYsHjWZ5enXQtfRPWiX5Dyb3F8aMFsf42g3YB7HWt2EZfIA0wGthj2GGui8lhLDjEbI2FXNkMgMWuEAKSMnMxZGzZh1447RlMEZgyzx62jC+fIq1OlDh9KFE2/rPG49T9apSPlgEkBZC9gSmeNpwJWDfBh0Ta/zGUnA5cBM2Da/udgu/MrAnOuZOkU9+sFWXU5opzVh1Ofkrt1pl46M9PPjHbwrrBkyAM27w7zGBHjHRgHqmQqSoLBwVq7wUlklcMCjGKRdshD0jg1YzoEdv9IhhUhFQUEv8fGU5hbJ8eP23BF6jps9Q3V6lmt/L9llXvMuIzbPltBAA+YtUU1jkEkGORkOjsDkATEP4DH+lZEv5keMqDwnFh9nGy8DZtGgBzwoDK4lvVqzqG/ozp08ma688ZaeKb+Vzum58hWdH5ymFR8wyA8mY8CP9CINhuE8J2MBm5GcG4QYtCM/pAP3wGQfuS8AFaN/HV7z57zn0BpYchmCXrNDQHRtujuE5Yy+kahZh7m76BFo4RmWIPXlmH+ZrF4ZLaVTjcJhQSqAEe+Uo3O9V8zGrHhnmBO49Ax5SX6eH+/av1/Pj+9IO99zhz6teIveMRYga/asO6fQrIEnv59O2Wv9dTmgBJHVmtLlnTzVahNTrtacT/i6+lUAKTiVkKe4nX4gVIk4f11aPcfNBkWn15drupPvh5ve7K2lgQbMW6u+xiy3edTMv3nU68a+MqIaKDxAwpsvOBlGdZLX+bP6dKQAWad4nT90ON5XZtc1G4vmOTBErLwiE7IL4NaKDHrOREcObwTkwZvPKQA8fIyBT0VytCPBfPSAZXTERni5ocg3Dp71IWOwKSlkl/RqN0JykiXhyI3dJUKXQ8mE1CGPPGYt8ay77LXsrD9lthjyn53L+B0cjGIwv9LI6YqB5Yty+fQtNvclwFgHd0zru8Y79u5JO269Lc3c8V7Nim/pDvyY1sx4aqdef9Lu6wBk7y2I+lFeS3qDPFHXNgOXKSNt5xuGZdHqAMfuYHrAarZlcc3f7KaB9dFAA+b10WuTerM1IABijPTFOLmos7YXOV7zxPF09tBBPVM+Ep+OXLxwUUcravalWdpCvEKTB3qPrbY95l6dVYXwXxgZruM7R8rDvIZsgJllVoL5ri/PI9lwBH/M82XHs2qWzQEcGV7NyiBKrCrlnFTmIaiDBHiCELZdcISxiLD102Nw3s2O7XsSR3FYB4JBKILNFHpnJSHT4+StKLtmxCpb3KBUs+E4fUtHXE7t0mlbOvQDYJ4VMM/uv1PvHt+SZnQAyJSA25v8yDeSPfPzjK9XHGe12U0D20IDDZi3RTVv9UJq6BawAQ75JK/8LJovQp0/9EY69/rhdEbPlK+cOimQBDrhFBiznDqp91tBpACAPNx70M9Qg2z+iy+s4pbacAHM07HGndNHOpuCALR8WEWI109Ok41lgA/vYs3LikmtvvOrbJGN+DFI4s2pFDsYSLXkKNKhvHzZSB4FORQ7TCmfvdgGupx4juH5YMSLDCi/jiRi5JMfrniYn90LrDxE5pUPLUdPa9MWh35Ma4MWy9JxApdebeLQjwm96jTJ0Ze6MWJjF/ycST0hQGZmPMHydpkdR9IlA0ppuYnMDEgG7AGluZoGxlcDDZjHt27HqGQAhI5pFCQBuwAgC8kBzK+/mc4ffjOdO3IkzZ87yyRZRiDO6ySKBnACaIM5X60WgV9BhMCHwU9gYPxEcpxXxSxZkC8rRAr08U9qSbubRWomyZGek1o+n9KHpRd0stil8+fTXHw9S+9PM7smDf0USx5lAE9kJGfGNwndeq4YJsuzV3IPV1zEw0ieZ8jcLIQU5GWHbNxorywHQ88Zieg5AxIWM+AyE5bbAMqxlQvMigWs09opPcWsF2DmfWNmxDp9a/ZWbeASME9pYxfnVOcVhVJOki+KzjdJzjj5KNksOemswm9/A2ZrotnbQQMNmLdDLW/5MsbIHjgDABV40Wcj59OClq3nzp5NlzVbnpfNLuxFHSyyqLDFuYU0r2tRu7KXFuYEDkx7i+kGfoGHZMYnAg2sBZTinWYAWLM+nQ2ZtA6rC9AVQHHqlIBqCVszyJkpzQjFx4anCc2UJ7Td+7LO4z710mv6ktWJtKBvTS8pH5IWYHQV0HT5KUAFeBaTt6TFlL3gKRnOeoAt6wMdhafDc9IKaJRsTkADHGPZWny2I1lmsMxkVUaWoKd15CXL0Nh8kQmwndqtDVq8wiSeCX3wAbBm9usvOU1LN3mJWjR0FiXNwCzPwMQNAVklszKwhskOe5cBuVma3TSwTTTQgHmbVPRWL2Y3UGskD3AGhzSKMxeO7zoLkBf4KIVmqIsXLwdoA8pzAHQB5vi0pBVRcAFgACTjMiALcDinGWCeLMC8xOcBA4wFYLJnY3l2Oi3yvJRZJBfL5gJl0pu/cE5fsHornXr2pXTxqA440fvVnM2dcSmn56xgu3xBo2wDxJKb2e4cXEGtQd0rzgriX+GlLDwHVt5jN7rKssTZo6U8McOXP57zYqu88VUmQFibsqYFyrN7CjBrg9a0gHlm9754t5gjMPmaU5zSJt15Fi4p+jPwW7lRGjIVOSuOyGfOrX4jLOfbXNjWR11W6M00DWwHDTRg3g61vMXLyDAfc1052ErFWO6hP2yWafkgBe/KCoi1hhwD+6JQixPCGOTz5qtqxtzXCUIDNeUIoIYBkMMC5DKwkR6AN8WMUXQY4gtZALhmybwOdkUz5fMH9R61ltkvaaf4nD41GSbkFvmZ0pUDLyA3KFlmiPLF9FZ594y37IRGKXEEKTbs5IXZejzXzWdJ81yXZ75Tu1hm5tOH+jaxwHeGZejYFa3nwawEAM7MgHXF4R/srO780PmGMToo5VUxIs3yK21EvQDO5DOXJTKVCxKhxVnIxM+xKrri1qYBc62N5t4uGmjAvF1qeguXk6GaOSP/AczV2O0ZVy4ePDmQAZ35ZfgAxPD1lSD4sKwCNPaaE7+CuuVh8xswAjMle1Fbs+fnrqS5i5opv3UsnXvxlXSJz0vqq1bsHg/QA7yBIixyVIRhRbpZGIHiCaa8KsBMt7oRoDTMemOpPW4OpBVm+OLRmnosscf3iAFlA/NuHXEpMJ7iNSaAWa8ysVQNUDPjJ37OWMlj5CJyG67lNw3kPTN0+in5jZI4sMgIuYXfJNdbA2ZrpNlNAwMNNGAe6KK5Nq0GANA82+0G8mqgHziBj8IHcAnGc5hjDTiHFTVChUs1F26DkjoLsCqKlqsD7JWCGGIXuDanXT59Op09/Ea6cFiHmxx+K82dPpPmtUucPPE6lc9wDvmSBTCXPWqxCRrRIT1AVymFLcycZomZTVV671dLyVM7tGzOkjMX4KqZLwDLhqz8taW83JzjSyLL1QLfPAMGwD0bLmAOuEfKlVaifNlP+XmDG01w74AOOK1NXnkix7K49SkrG+EqZckiCqWw99NCjPl6oO4blBLcrKaBbaGBBszbopq3eiEBsQy4AQQgQABEKRfgID8AyB8mZpTdwnfhG2khEJPBpUMJUXJSGZgAD81dg8/HhQD9S5opL1w4ny5opnz6pVfi5LGFU2fj2XfigJM4fUzSY1IqKYBezFAh6MLNUrnsyfLMN2z5AaZ4hh3AzHGVADM7ojMoxyyYDVuieZY8kK38l6IBppRvmbE3dFeHcBORA3N01iukVwnLVP1eNzA70Tq9Qc68iuBQ58P+ZjcNbAcNNGDeDrW8xcs4AMcygAchg0QeuAHUAYRQXIAo/40ovBErgnPcDh4COzKA5BBJL8vM+bOQDhNcTSykK/py1cU39NrWwdf10YyD6bKOBuUGgeXnHZrF8vWkRTZNsXOZGa/saT33ndYxlBxFiTueAwcvs16e5w6e6bLZCtBmpsvzbYB32fPfAHOFFyAH+L1UHPnXT6cLFzUr6WrllHKaLdt5ptwxS35sOhMBTVg2btdD8BZZ4S6c2d1pWlifUxgFwKuFW16zmwbGSQMNmMepNse0LAzdjN8xhGv0D1j0gI4vCDk8D/NEyGQmfgR7gLeKIkowdzFKUIlgRuJWbicWMhWyEEvYp9K5Q4fTRZ3RfeXY8TSvz0suzWpnt97nnRXYAsRLWo5mVze7t6dFz6AscGY5OgBa4Awwc+m5cLyiVTZbkYMAvCprg/yHa1kOKXDOcyyyRxhL7uR9CLfoVQmHAbOCuxsSZOsq6xchG5lEC9uy4LN7wBUufuCt66QBc6ea5mgaUH+qe0dTSNPAZtSABv1ugsuAz6iOqfAkEwQYJQwrruARRAg5cDpq2EPihxwzFaGRdvAK2IT0XbAClvRN4St6TeuCvmq1cPFSXrVmhqtdzXywIX9/Wu8+87y4zGjjKMuY/eYl7KADwjErzsvXYlZmy8xX6QCxOd0qffLXL4MzJ9sLz8FS+CK2wsyWFVtDKIyUMxfeceOZMqQS0NVBZotfonRyg6LYTtcCC7+HHezQaT+88NlaLtfUZjcNjKcGGjCPZ72OV6kY3MsAH0vKGqWLNxwetCu2KD/0LmwZMPfAbaS2cioZmLMk8MMyAbUlnea1oA9mXNInJzE7tduZk7EAW04JWygz0CkhmbxXmX6eB8IzK+GRXoAzUIuvPAu3tMhgZuzyFo4BX8dSANB8GZKVSi6qJRb8FVcJcvycmZxWxyyH82m5XViR258RG5jNd1W4A4p9ldxeePM2DYyTBhowj1NtjnFZMjAATHmk9zPfQZEBkTJ8B7P4CihmlKlhsQLmDnEGkvqunCKy6zkoG6L0p0B2Vi9o5ozhbOi88Uz83AwQTTb5LrkLvsGPQpzv4QwD1sqV81QI9pBkIWXbPuU8yjkot5PMUS2gFx+mop/MP+DLyVj+gG5Kl5FgpIwlRm9mXLLbWR1gk7SoznEnt+NsjqaB8dVAA+bxrduxKlke1wVu3Qg/AINcUIbuMpoHj8INjDG8A8xDhve+mFFac9ROdgFmyRzArmBECMb9QMlN5CEIATPDhHecwwI7Wh/WR2Xb2bRdCeicOJYD8yDI8cImEScUhZLH/ohi7mXELCyCHK5ohaU/Mx6knF01MFeChtVcP2rzNw2MjQYaMI9NVW6XggwBga7oBQg6FOgC5BiARE29PrfzwJy5luv0q9SCZP5RqdUyRvEsp4+SeK2S+nKuim+GoeUwt5mW57HSQj+g+ZsGmgZW0EAD5hWU04KaBpoGmgaaBpoGNloDDZg3WuMtvaaBpoGmgaaBpoEVNNCAeQXltKCmgaaBpoGmgaaBjdZAA+aN1nhLr2mgaaBpoGmgaWAFDTRgXkE5LahpoGmgaaBpoGlgozXQgHmjNd7SaxpoGmgaaBpoGlhBAw2YV1BOC2oaaBpoGmgaaBrYaA00YN5ojbf0mgaaBpoGmgaaBlbQQAPmFZTTgpoGmgaaBpoGmgY2WgMNmDda4y29poGmgaaBpoGmgRU00IB5BeW0oKaBpoGmgaaBpoGN1kAD5o3WeEuvaaBpoGmgaaBpYAUNNGBeQTktqGmgaaBpoGmgaWCjNdCAeaM13tJrGmgaaBpoGmgaWEEDDZhXUE4LahpoGmgaaBpoGthoDTRg3miNt/SaBpoGmgaaBpoGVtBAA+YVlNOCmgaaBpoGmgaaBjZaAw2YN1rjLb2mgaaBpoGmgaaBFTTQgHkF5bSgpoGmgaaBpoGmgY3WQAPmjdZ4S69poGmgaaBpoGlgBQ00YF5BOS2oaaBpoGmgaaBpYKM18P8DKlB9dm5bPlkAAAAASUVORK5CYII=;" parent="CFzgTbQgZ9hoMS-vuHT--10" vertex="1">
                    <mxGeometry x="17.0625" y="1.1687500000000117" width="69.875" height="101.79" as="geometry"/>
                </mxCell>
                <mxCell id="CFzgTbQgZ9hoMS-vuHT--9" value="&lt;span style=&quot;color: rgba(0 , 0 , 0 , 0) ; font-family: monospace ; font-size: 0px ; background-color: rgb(248 , 249 , 250)&quot;&gt;%3CmxGraphModel%3E%3Croot%3E%3CmxCell%20id%3D%220%22%2F%3E%3CmxCell%20id%3D%221%22%20parent%3D%220%22%2F%3E%3CmxCell%20id%3D%222%22%20value%3D%22%22%20style%3D%22shape%3Dimage%3Bhtml%3D1%3BverticalAlign%3Dtop%3BverticalLabelPosition%3Dbottom%3BlabelBackgroundColor%3D%23ffffff%3BimageAspect%3D0%3Baspect%3Dfixed%3Bimage%3Dhttps%3A%2F%2Fcdn2.iconfinder.com%2Fdata%2Ficons%2Fsimple-files%2F128%2Fcsv1.png%22%20vertex%3D%221%22%20parent%3D%221%22%3E%3CmxGeometry%20x%3D%22348%22%20y%3D%2221%22%20width%3D%22104%22%20height%3D%22104%22%20as%3D%22geometry%22%2F%3E%3C%2FmxCell%3E%3C%2Froot%3E%3C%2FmxGraphModel%3E&lt;/span&gt;" style="shape=image;html=1;verticalAlign=top;verticalLabelPosition=bottom;labelBackgroundColor=#ffffff;imageAspect=0;aspect=fixed;image=https://cdn2.iconfinder.com/data/icons/simple-files/128/csv1.png" parent="CFzgTbQgZ9hoMS-vuHT--10" vertex="1">
                    <mxGeometry width="104" height="104" as="geometry"/>
                </mxCell>
                <mxCell id="CFzgTbQgZ9hoMS-vuHT--15" value="" style="edgeStyle=orthogonalEdgeStyle;rounded=0;orthogonalLoop=1;jettySize=auto;html=1;entryX=0.5;entryY=0;entryDx=0;entryDy=0;" parent="1" source="CFzgTbQgZ9hoMS-vuHT--12" target="CFzgTbQgZ9hoMS-vuHT--23" edge="1">
                    <mxGeometry relative="1" as="geometry"/>
                </mxCell>
                <mxCell id="CFzgTbQgZ9hoMS-vuHT--22" value="Yes" style="edgeLabel;html=1;align=center;verticalAlign=middle;resizable=0;points=[];" parent="CFzgTbQgZ9hoMS-vuHT--15" vertex="1" connectable="0">
                    <mxGeometry x="-0.3" relative="1" as="geometry">
                        <mxPoint as="offset"/>
                    </mxGeometry>
                </mxCell>
                <mxCell id="CFzgTbQgZ9hoMS-vuHT--27" style="edgeStyle=orthogonalEdgeStyle;rounded=0;orthogonalLoop=1;jettySize=auto;html=1;entryX=0;entryY=0.5;entryDx=0;entryDy=0;" parent="1" source="CFzgTbQgZ9hoMS-vuHT--12" target="CFzgTbQgZ9hoMS-vuHT--26" edge="1">
                    <mxGeometry relative="1" as="geometry">
                        <Array as="points">
                            <mxPoint x="400" y="276.6"/>
                            <mxPoint x="560" y="276.6"/>
                        </Array>
                    </mxGeometry>
                </mxCell>
                <mxCell id="CFzgTbQgZ9hoMS-vuHT--12" value="Depth &amp;lt; 5m" style="strokeWidth=2;html=1;shape=mxgraph.flowchart.decision;whiteSpace=wrap;" parent="1" vertex="1">
                    <mxGeometry x="350" y="166.6" width="100" height="100" as="geometry"/>
                </mxCell>
                <mxCell id="CFzgTbQgZ9hoMS-vuHT--13" style="edgeStyle=orthogonalEdgeStyle;rounded=0;orthogonalLoop=1;jettySize=auto;html=1;entryX=0.5;entryY=0;entryDx=0;entryDy=0;entryPerimeter=0;exitX=0.5;exitY=1;exitDx=0;exitDy=0;" parent="1" source="CFzgTbQgZ9hoMS-vuHT--9" target="CFzgTbQgZ9hoMS-vuHT--12" edge="1">
                    <mxGeometry relative="1" as="geometry"/>
                </mxCell>
                <mxCell id="CFzgTbQgZ9hoMS-vuHT--29" style="edgeStyle=orthogonalEdgeStyle;rounded=0;orthogonalLoop=1;jettySize=auto;html=1;entryX=0;entryY=0.5;entryDx=0;entryDy=0;" parent="1" source="CFzgTbQgZ9hoMS-vuHT--14" target="CFzgTbQgZ9hoMS-vuHT--28" edge="1">
                    <mxGeometry relative="1" as="geometry">
                        <Array as="points">
                            <mxPoint x="400" y="571"/>
                            <mxPoint x="500" y="571"/>
                            <mxPoint x="500" y="532"/>
                        </Array>
                    </mxGeometry>
                </mxCell>
                <mxCell id="CFzgTbQgZ9hoMS-vuHT--76" style="edgeStyle=orthogonalEdgeStyle;rounded=0;orthogonalLoop=1;jettySize=auto;html=1;entryX=0.5;entryY=0;entryDx=0;entryDy=0;endArrow=classic;endFill=1;strokeWidth=1;" parent="1" source="CFzgTbQgZ9hoMS-vuHT--14" target="CFzgTbQgZ9hoMS-vuHT--70" edge="1">
                    <mxGeometry relative="1" as="geometry"/>
                </mxCell>
                <mxCell id="CFzgTbQgZ9hoMS-vuHT--14" value="Speed &amp;lt;&lt;br&gt;20m/s&lt;br&gt;(72km/h)" style="strokeWidth=2;html=1;shape=mxgraph.flowchart.decision;whiteSpace=wrap;" parent="1" vertex="1">
                    <mxGeometry x="350" y="416.6" width="100" height="100" as="geometry"/>
                </mxCell>
                <mxCell id="CFzgTbQgZ9hoMS-vuHT--24" value="" style="edgeStyle=orthogonalEdgeStyle;rounded=0;orthogonalLoop=1;jettySize=auto;html=1;" parent="1" source="CFzgTbQgZ9hoMS-vuHT--23" target="CFzgTbQgZ9hoMS-vuHT--14" edge="1">
                    <mxGeometry relative="1" as="geometry"/>
                </mxCell>
                <mxCell id="CFzgTbQgZ9hoMS-vuHT--31" style="edgeStyle=orthogonalEdgeStyle;rounded=0;orthogonalLoop=1;jettySize=auto;html=1;entryX=0;entryY=0.5;entryDx=0;entryDy=0;entryPerimeter=0;" parent="1" source="CFzgTbQgZ9hoMS-vuHT--23" target="CFzgTbQgZ9hoMS-vuHT--30" edge="1">
                    <mxGeometry relative="1" as="geometry">
                        <Array as="points">
                            <mxPoint x="400" y="381"/>
                            <mxPoint x="500" y="381"/>
                            <mxPoint x="500" y="397"/>
                        </Array>
                    </mxGeometry>
                </mxCell>
                <mxCell id="CFzgTbQgZ9hoMS-vuHT--64" style="edgeStyle=orthogonalEdgeStyle;rounded=0;orthogonalLoop=1;jettySize=auto;html=1;entryX=0;entryY=0.5;entryDx=0;entryDy=0;entryPerimeter=0;endArrow=classic;endFill=1;strokeWidth=1;" parent="1" source="CFzgTbQgZ9hoMS-vuHT--23" target="CFzgTbQgZ9hoMS-vuHT--63" edge="1">
                    <mxGeometry relative="1" as="geometry">
                        <Array as="points">
                            <mxPoint x="400" y="381"/>
                            <mxPoint x="500" y="381"/>
                            <mxPoint x="500" y="352"/>
                        </Array>
                    </mxGeometry>
                </mxCell>
                <mxCell id="CFzgTbQgZ9hoMS-vuHT--23" value="Calcule 2D speed&lt;br&gt;between points" style="rounded=1;whiteSpace=wrap;html=1;absoluteArcSize=1;arcSize=14;strokeWidth=2;" parent="1" vertex="1">
                    <mxGeometry x="350" y="326.6" width="100" height="50" as="geometry"/>
                </mxCell>
                <mxCell id="CFzgTbQgZ9hoMS-vuHT--26" value="" style="shape=image;html=1;verticalAlign=top;verticalLabelPosition=bottom;labelBackgroundColor=#ffffff;imageAspect=0;aspect=fixed;image=https://cdn2.iconfinder.com/data/icons/simple-files/128/csv1.png" parent="1" vertex="1">
                    <mxGeometry x="561" y="251.60000000000002" width="50" height="50" as="geometry"/>
                </mxCell>
                <mxCell id="CFzgTbQgZ9hoMS-vuHT--28" value="" style="shape=image;html=1;verticalAlign=top;verticalLabelPosition=bottom;labelBackgroundColor=#ffffff;imageAspect=0;aspect=fixed;image=https://cdn2.iconfinder.com/data/icons/simple-files/128/csv1.png" parent="1" vertex="1">
                    <mxGeometry x="560" y="506.6" width="50" height="50" as="geometry"/>
                </mxCell>
                <mxCell id="CFzgTbQgZ9hoMS-vuHT--30" value="Track" style="shape=display;whiteSpace=wrap;html=1;" parent="1" vertex="1">
                    <mxGeometry x="560" y="376.6" width="80" height="40" as="geometry"/>
                </mxCell>
                <mxCell id="CFzgTbQgZ9hoMS-vuHT--51" value="" style="strokeWidth=2;html=1;shape=mxgraph.flowchart.annotation_2;align=left;labelPosition=right;pointerEvents=1;" parent="1" vertex="1">
                    <mxGeometry x="290" y="161" width="20" height="130" as="geometry"/>
                </mxCell>
                <mxCell id="CFzgTbQgZ9hoMS-vuHT--54" value="" style="edgeStyle=orthogonalEdgeStyle;rounded=0;orthogonalLoop=1;jettySize=auto;html=1;endArrow=none;endFill=0;strokeWidth=2;" parent="1" source="CFzgTbQgZ9hoMS-vuHT--52" target="CFzgTbQgZ9hoMS-vuHT--51" edge="1">
                    <mxGeometry relative="1" as="geometry"/>
                </mxCell>
                <mxCell id="CFzgTbQgZ9hoMS-vuHT--52" value="STEP 0" style="shape=step;perimeter=stepPerimeter;whiteSpace=wrap;html=1;fixedSize=1;align=center;strokeWidth=2;" parent="1" vertex="1">
                    <mxGeometry x="140" y="186" width="120" height="80" as="geometry"/>
                </mxCell>
                <mxCell id="CFzgTbQgZ9hoMS-vuHT--58" value="" style="group" parent="1" vertex="1" connectable="0">
                    <mxGeometry x="140" y="311" width="170" height="130" as="geometry"/>
                </mxCell>
                <mxCell id="CFzgTbQgZ9hoMS-vuHT--55" value="" style="strokeWidth=2;html=1;shape=mxgraph.flowchart.annotation_2;align=left;labelPosition=right;pointerEvents=1;" parent="CFzgTbQgZ9hoMS-vuHT--58" vertex="1">
                    <mxGeometry x="150" width="20" height="100" as="geometry"/>
                </mxCell>
                <mxCell id="CFzgTbQgZ9hoMS-vuHT--56" value="" style="edgeStyle=orthogonalEdgeStyle;rounded=0;orthogonalLoop=1;jettySize=auto;html=1;endArrow=none;endFill=0;strokeWidth=2;" parent="CFzgTbQgZ9hoMS-vuHT--58" source="CFzgTbQgZ9hoMS-vuHT--57" target="CFzgTbQgZ9hoMS-vuHT--55" edge="1">
                    <mxGeometry relative="1" as="geometry"/>
                </mxCell>
                <mxCell id="CFzgTbQgZ9hoMS-vuHT--57" value="STEP 1" style="shape=step;perimeter=stepPerimeter;whiteSpace=wrap;html=1;fixedSize=1;align=center;strokeWidth=2;" parent="CFzgTbQgZ9hoMS-vuHT--58" vertex="1">
                    <mxGeometry y="10" width="120" height="80" as="geometry"/>
                </mxCell>
                <mxCell id="CFzgTbQgZ9hoMS-vuHT--62" value="" style="group" parent="1" vertex="1" connectable="0">
                    <mxGeometry x="140" y="419.6" width="170" height="220" as="geometry"/>
                </mxCell>
                <mxCell id="CFzgTbQgZ9hoMS-vuHT--59" value="" style="strokeWidth=2;html=1;shape=mxgraph.flowchart.annotation_2;align=left;labelPosition=right;pointerEvents=1;" parent="CFzgTbQgZ9hoMS-vuHT--62" vertex="1">
                    <mxGeometry x="150" width="20" height="220" as="geometry"/>
                </mxCell>
                <mxCell id="CFzgTbQgZ9hoMS-vuHT--60" value="" style="edgeStyle=orthogonalEdgeStyle;rounded=0;orthogonalLoop=1;jettySize=auto;html=1;endArrow=none;endFill=0;strokeWidth=2;" parent="CFzgTbQgZ9hoMS-vuHT--62" source="CFzgTbQgZ9hoMS-vuHT--61" target="CFzgTbQgZ9hoMS-vuHT--59" edge="1">
                    <mxGeometry relative="1" as="geometry"/>
                </mxCell>
                <mxCell id="CFzgTbQgZ9hoMS-vuHT--61" value="STEP 2" style="shape=step;perimeter=stepPerimeter;whiteSpace=wrap;html=1;fixedSize=1;align=center;strokeWidth=2;" parent="CFzgTbQgZ9hoMS-vuHT--62" vertex="1">
                    <mxGeometry y="70" width="120" height="80" as="geometry"/>
                </mxCell>
                <mxCell id="CFzgTbQgZ9hoMS-vuHT--63" value="Boxplot" style="shape=display;whiteSpace=wrap;html=1;" parent="1" vertex="1">
                    <mxGeometry x="561" y="331.6" width="80" height="40" as="geometry"/>
                </mxCell>
                <mxCell id="CFzgTbQgZ9hoMS-vuHT--66" style="edgeStyle=orthogonalEdgeStyle;rounded=0;orthogonalLoop=1;jettySize=auto;html=1;entryX=0;entryY=0.5;entryDx=0;entryDy=0;entryPerimeter=0;exitX=0.5;exitY=1;exitDx=0;exitDy=0;exitPerimeter=0;" parent="1" source="CFzgTbQgZ9hoMS-vuHT--14" target="CFzgTbQgZ9hoMS-vuHT--68" edge="1">
                    <mxGeometry relative="1" as="geometry">
                        <mxPoint x="400.0000000000002" y="615.9999999999999" as="sourcePoint"/>
                        <Array as="points">
                            <mxPoint x="400" y="571"/>
                            <mxPoint x="500" y="571"/>
                            <mxPoint x="500" y="636"/>
                        </Array>
                    </mxGeometry>
                </mxCell>
                <mxCell id="CFzgTbQgZ9hoMS-vuHT--67" style="edgeStyle=orthogonalEdgeStyle;rounded=0;orthogonalLoop=1;jettySize=auto;html=1;entryX=0;entryY=0.5;entryDx=0;entryDy=0;entryPerimeter=0;endArrow=classic;endFill=1;strokeWidth=1;exitX=0.5;exitY=1;exitDx=0;exitDy=0;exitPerimeter=0;" parent="1" source="CFzgTbQgZ9hoMS-vuHT--14" target="CFzgTbQgZ9hoMS-vuHT--69" edge="1">
                    <mxGeometry relative="1" as="geometry">
                        <mxPoint x="400.0000000000002" y="615.9999999999999" as="sourcePoint"/>
                        <Array as="points">
                            <mxPoint x="400" y="571"/>
                            <mxPoint x="500" y="571"/>
                            <mxPoint x="500" y="586"/>
                        </Array>
                    </mxGeometry>
                </mxCell>
                <mxCell id="CFzgTbQgZ9hoMS-vuHT--68" value="Track" style="shape=display;whiteSpace=wrap;html=1;" parent="1" vertex="1">
                    <mxGeometry x="560" y="616" width="80" height="40" as="geometry"/>
                </mxCell>
                <mxCell id="CFzgTbQgZ9hoMS-vuHT--69" value="Boxplot" style="shape=display;whiteSpace=wrap;html=1;" parent="1" vertex="1">
                    <mxGeometry x="561" y="566" width="80" height="40" as="geometry"/>
                </mxCell>
                <mxCell id="CFzgTbQgZ9hoMS-vuHT--72" value="" style="edgeStyle=orthogonalEdgeStyle;rounded=0;orthogonalLoop=1;jettySize=auto;html=1;endArrow=classic;endFill=1;strokeWidth=1;" parent="1" source="CFzgTbQgZ9hoMS-vuHT--70" target="CFzgTbQgZ9hoMS-vuHT--71" edge="1">
                    <mxGeometry relative="1" as="geometry"/>
                </mxCell>
                <mxCell id="CFzgTbQgZ9hoMS-vuHT--70" value="Calcule mean speed and standard deviation" style="rounded=1;whiteSpace=wrap;html=1;absoluteArcSize=1;arcSize=14;strokeWidth=2;" parent="1" vertex="1">
                    <mxGeometry x="350" y="671" width="100" height="70" as="geometry"/>
                </mxCell>
                <mxCell id="CFzgTbQgZ9hoMS-vuHT--100" style="edgeStyle=orthogonalEdgeStyle;rounded=0;orthogonalLoop=1;jettySize=auto;html=1;entryX=0.5;entryY=0;entryDx=0;entryDy=0;endArrow=classic;endFill=1;strokeWidth=1;" parent="1" source="CFzgTbQgZ9hoMS-vuHT--71" target="CFzgTbQgZ9hoMS-vuHT--88" edge="1">
                    <mxGeometry relative="1" as="geometry"/>
                </mxCell>
                <mxCell id="CFzgTbQgZ9hoMS-vuHT--71" value="Speed&lt;br&gt;&amp;lt; OR &amp;gt;&lt;br&gt;3· sigma" style="strokeWidth=2;html=1;shape=mxgraph.flowchart.decision;whiteSpace=wrap;" parent="1" vertex="1">
                    <mxGeometry x="350" y="771" width="100" height="100" as="geometry"/>
                </mxCell>
                <mxCell id="CFzgTbQgZ9hoMS-vuHT--77" style="edgeStyle=orthogonalEdgeStyle;rounded=0;orthogonalLoop=1;jettySize=auto;html=1;entryX=0;entryY=0.5;entryDx=0;entryDy=0;exitX=0.5;exitY=1;exitDx=0;exitDy=0;exitPerimeter=0;" parent="1" source="CFzgTbQgZ9hoMS-vuHT--71" target="CFzgTbQgZ9hoMS-vuHT--78" edge="1">
                    <mxGeometry relative="1" as="geometry">
                        <mxPoint x="400" y="870.9999999999999" as="sourcePoint"/>
                        <Array as="points">
                            <mxPoint x="400" y="925"/>
                            <mxPoint x="500" y="925"/>
                            <mxPoint x="500" y="886"/>
                        </Array>
                    </mxGeometry>
                </mxCell>
                <mxCell id="CFzgTbQgZ9hoMS-vuHT--78" value="" style="shape=image;html=1;verticalAlign=top;verticalLabelPosition=bottom;labelBackgroundColor=#ffffff;imageAspect=0;aspect=fixed;image=https://cdn2.iconfinder.com/data/icons/simple-files/128/csv1.png" parent="1" vertex="1">
                    <mxGeometry x="560" y="861" width="50" height="50" as="geometry"/>
                </mxCell>
                <mxCell id="CFzgTbQgZ9hoMS-vuHT--79" style="edgeStyle=orthogonalEdgeStyle;rounded=0;orthogonalLoop=1;jettySize=auto;html=1;entryX=0;entryY=0.5;entryDx=0;entryDy=0;entryPerimeter=0;exitX=0.5;exitY=1;exitDx=0;exitDy=0;exitPerimeter=0;" parent="1" source="CFzgTbQgZ9hoMS-vuHT--71" target="CFzgTbQgZ9hoMS-vuHT--81" edge="1">
                    <mxGeometry relative="1" as="geometry">
                        <mxPoint x="400" y="870.9999999999999" as="sourcePoint"/>
                        <Array as="points">
                            <mxPoint x="400" y="925"/>
                            <mxPoint x="500" y="925"/>
                            <mxPoint x="500" y="990"/>
                        </Array>
                    </mxGeometry>
                </mxCell>
                <mxCell id="CFzgTbQgZ9hoMS-vuHT--80" style="edgeStyle=orthogonalEdgeStyle;rounded=0;orthogonalLoop=1;jettySize=auto;html=1;entryX=0;entryY=0.5;entryDx=0;entryDy=0;entryPerimeter=0;endArrow=classic;endFill=1;strokeWidth=1;exitX=0.5;exitY=1;exitDx=0;exitDy=0;exitPerimeter=0;" parent="1" source="CFzgTbQgZ9hoMS-vuHT--71" target="CFzgTbQgZ9hoMS-vuHT--82" edge="1">
                    <mxGeometry relative="1" as="geometry">
                        <mxPoint x="400" y="870.9999999999999" as="sourcePoint"/>
                        <Array as="points">
                            <mxPoint x="400" y="925"/>
                            <mxPoint x="500" y="925"/>
                            <mxPoint x="500" y="940"/>
                        </Array>
                    </mxGeometry>
                </mxCell>
                <mxCell id="CFzgTbQgZ9hoMS-vuHT--81" value="Track" style="shape=display;whiteSpace=wrap;html=1;" parent="1" vertex="1">
                    <mxGeometry x="560" y="970.4000000000001" width="80" height="40" as="geometry"/>
                </mxCell>
                <mxCell id="CFzgTbQgZ9hoMS-vuHT--82" value="Boxplot" style="shape=display;whiteSpace=wrap;html=1;" parent="1" vertex="1">
                    <mxGeometry x="561" y="920.4" width="80" height="40" as="geometry"/>
                </mxCell>
                <mxCell id="CFzgTbQgZ9hoMS-vuHT--83" value="" style="group" parent="1" vertex="1" connectable="0">
                    <mxGeometry x="140" y="651" width="170" height="360" as="geometry"/>
                </mxCell>
                <mxCell id="CFzgTbQgZ9hoMS-vuHT--84" value="" style="strokeWidth=2;html=1;shape=mxgraph.flowchart.annotation_2;align=left;labelPosition=right;pointerEvents=1;" parent="CFzgTbQgZ9hoMS-vuHT--83" vertex="1">
                    <mxGeometry x="150" width="20" height="360" as="geometry"/>
                </mxCell>
                <mxCell id="CFzgTbQgZ9hoMS-vuHT--85" value="" style="edgeStyle=orthogonalEdgeStyle;rounded=0;orthogonalLoop=1;jettySize=auto;html=1;endArrow=none;endFill=0;strokeWidth=2;" parent="CFzgTbQgZ9hoMS-vuHT--83" source="CFzgTbQgZ9hoMS-vuHT--86" target="CFzgTbQgZ9hoMS-vuHT--84" edge="1">
                    <mxGeometry relative="1" as="geometry"/>
                </mxCell>
                <mxCell id="CFzgTbQgZ9hoMS-vuHT--86" value="STEP 3" style="shape=step;perimeter=stepPerimeter;whiteSpace=wrap;html=1;fixedSize=1;align=center;strokeWidth=2;" parent="CFzgTbQgZ9hoMS-vuHT--83" vertex="1">
                    <mxGeometry y="140" width="120" height="80" as="geometry"/>
                </mxCell>
                <mxCell id="CFzgTbQgZ9hoMS-vuHT--104" style="edgeStyle=orthogonalEdgeStyle;rounded=0;orthogonalLoop=1;jettySize=auto;html=1;fontColor=#666666;endArrow=classic;endFill=1;strokeWidth=1;entryX=0.5;entryY=0;entryDx=0;entryDy=0;" parent="1" source="CFzgTbQgZ9hoMS-vuHT--71" target="CFzgTbQgZ9hoMS-vuHT--107" edge="1">
                    <mxGeometry relative="1" as="geometry">
                        <mxPoint x="400" y="1320" as="targetPoint"/>
                    </mxGeometry>
                </mxCell>
                <mxCell id="7" value="" style="edgeStyle=none;html=1;" parent="1" source="CFzgTbQgZ9hoMS-vuHT--107" target="3" edge="1">
                    <mxGeometry relative="1" as="geometry"/>
                </mxCell>
                <mxCell id="CFzgTbQgZ9hoMS-vuHT--107" value="Calcule temperature gradient&lt;br&gt;( º /m)" style="rounded=1;whiteSpace=wrap;html=1;absoluteArcSize=1;arcSize=14;strokeWidth=2;" parent="1" vertex="1">
                    <mxGeometry x="350" y="1300" width="100" height="70" as="geometry"/>
                </mxCell>
                <mxCell id="CFzgTbQgZ9hoMS-vuHT--109" style="edgeStyle=orthogonalEdgeStyle;rounded=0;orthogonalLoop=1;jettySize=auto;html=1;entryX=0;entryY=0.5;entryDx=0;entryDy=0;exitX=0.5;exitY=1;exitDx=0;exitDy=0;" parent="1" source="CFzgTbQgZ9hoMS-vuHT--119" target="CFzgTbQgZ9hoMS-vuHT--110" edge="1">
                    <mxGeometry relative="1" as="geometry">
                        <mxPoint x="400" y="1527" as="sourcePoint"/>
                        <Array as="points">
                            <mxPoint x="400" y="1701"/>
                        </Array>
                    </mxGeometry>
                </mxCell>
                <mxCell id="CFzgTbQgZ9hoMS-vuHT--110" value="" style="shape=image;html=1;verticalAlign=top;verticalLabelPosition=bottom;labelBackgroundColor=#ffffff;imageAspect=0;aspect=fixed;image=https://cdn2.iconfinder.com/data/icons/simple-files/128/csv1.png" parent="1" vertex="1">
                    <mxGeometry x="560" y="1676" width="50" height="50" as="geometry"/>
                </mxCell>
                <mxCell id="CFzgTbQgZ9hoMS-vuHT--115" value="" style="group" parent="1" vertex="1" connectable="0">
                    <mxGeometry x="139" y="1280" width="170" height="450" as="geometry"/>
                </mxCell>
                <mxCell id="CFzgTbQgZ9hoMS-vuHT--116" value="" style="strokeWidth=2;html=1;shape=mxgraph.flowchart.annotation_2;align=left;labelPosition=right;pointerEvents=1;" parent="CFzgTbQgZ9hoMS-vuHT--115" vertex="1">
                    <mxGeometry x="150" width="20" height="450" as="geometry"/>
                </mxCell>
                <mxCell id="CFzgTbQgZ9hoMS-vuHT--117" value="" style="edgeStyle=orthogonalEdgeStyle;rounded=0;orthogonalLoop=1;jettySize=auto;html=1;endArrow=none;endFill=0;strokeWidth=2;" parent="CFzgTbQgZ9hoMS-vuHT--115" source="CFzgTbQgZ9hoMS-vuHT--118" target="CFzgTbQgZ9hoMS-vuHT--116" edge="1">
                    <mxGeometry relative="1" as="geometry"/>
                </mxCell>
                <mxCell id="CFzgTbQgZ9hoMS-vuHT--118" value="STEP 5" style="shape=step;perimeter=stepPerimeter;whiteSpace=wrap;html=1;fixedSize=1;align=center;strokeWidth=2;" parent="CFzgTbQgZ9hoMS-vuHT--115" vertex="1">
                    <mxGeometry y="185" width="120" height="80" as="geometry"/>
                </mxCell>
                <mxCell id="CFzgTbQgZ9hoMS-vuHT--96" value="" style="group" parent="1" vertex="1" connectable="0">
                    <mxGeometry x="139" y="1020" width="560" height="360" as="geometry"/>
                </mxCell>
                <mxCell id="CFzgTbQgZ9hoMS-vuHT--97" value="" style="strokeWidth=2;html=1;shape=mxgraph.flowchart.annotation_2;align=left;labelPosition=right;pointerEvents=1;" parent="CFzgTbQgZ9hoMS-vuHT--96" vertex="1">
                    <mxGeometry x="150" width="20" height="250" as="geometry"/>
                </mxCell>
                <mxCell id="CFzgTbQgZ9hoMS-vuHT--98" value="" style="edgeStyle=orthogonalEdgeStyle;rounded=0;orthogonalLoop=1;jettySize=auto;html=1;endArrow=none;endFill=0;strokeWidth=2;" parent="CFzgTbQgZ9hoMS-vuHT--96" source="CFzgTbQgZ9hoMS-vuHT--99" target="CFzgTbQgZ9hoMS-vuHT--97" edge="1">
                    <mxGeometry relative="1" as="geometry"/>
                </mxCell>
                <mxCell id="CFzgTbQgZ9hoMS-vuHT--99" value="STEP 4" style="shape=step;perimeter=stepPerimeter;whiteSpace=wrap;html=1;fixedSize=1;align=center;strokeWidth=2;" parent="CFzgTbQgZ9hoMS-vuHT--96" vertex="1">
                    <mxGeometry y="85" width="120" height="80" as="geometry"/>
                </mxCell>
                <mxCell id="32" style="edgeStyle=none;html=1;entryX=0.5;entryY=0;entryDx=0;entryDy=0;fontSize=10;fontColor=#000000;" parent="1" source="CFzgTbQgZ9hoMS-vuHT--119" target="18" edge="1">
                    <mxGeometry relative="1" as="geometry"/>
                </mxCell>
                <mxCell id="CFzgTbQgZ9hoMS-vuHT--119" value="Normalize direction" style="rounded=1;whiteSpace=wrap;html=1;absoluteArcSize=1;arcSize=14;strokeWidth=2;" parent="1" vertex="1">
                    <mxGeometry x="350" y="1601" width="100" height="70" as="geometry"/>
                </mxCell>
                <mxCell id="2" value="" style="group" parent="1" vertex="1" connectable="0">
                    <mxGeometry x="120" y="1021" width="579" height="250" as="geometry"/>
                </mxCell>
                <mxCell id="CFzgTbQgZ9hoMS-vuHT--88" value="Downgrade temporal resolution doing temporal interpolations and mean" style="rounded=1;whiteSpace=wrap;html=1;absoluteArcSize=1;arcSize=14;strokeWidth=2;" parent="2" vertex="1">
                    <mxGeometry x="229" y="9" width="100" height="100" as="geometry"/>
                </mxCell>
                <mxCell id="CFzgTbQgZ9hoMS-vuHT--90" style="edgeStyle=orthogonalEdgeStyle;rounded=0;orthogonalLoop=1;jettySize=auto;html=1;entryX=0;entryY=0.5;entryDx=0;entryDy=0;exitX=0.5;exitY=1;exitDx=0;exitDy=0;exitPerimeter=0;" parent="2" target="CFzgTbQgZ9hoMS-vuHT--91" edge="1">
                    <mxGeometry relative="1" as="geometry">
                        <mxPoint x="280.0000000000002" y="109" as="sourcePoint"/>
                        <Array as="points">
                            <mxPoint x="280" y="163"/>
                            <mxPoint x="380" y="163"/>
                            <mxPoint x="380" y="124"/>
                        </Array>
                    </mxGeometry>
                </mxCell>
                <mxCell id="CFzgTbQgZ9hoMS-vuHT--91" value="" style="shape=image;html=1;verticalAlign=top;verticalLabelPosition=bottom;labelBackgroundColor=#ffffff;imageAspect=0;aspect=fixed;image=https://cdn2.iconfinder.com/data/icons/simple-files/128/csv1.png" parent="2" vertex="1">
                    <mxGeometry x="440" y="99" width="50" height="50" as="geometry"/>
                </mxCell>
                <mxCell id="CFzgTbQgZ9hoMS-vuHT--92" style="edgeStyle=orthogonalEdgeStyle;rounded=0;orthogonalLoop=1;jettySize=auto;html=1;entryX=0;entryY=0.5;entryDx=0;entryDy=0;entryPerimeter=0;exitX=0.5;exitY=1;exitDx=0;exitDy=0;exitPerimeter=0;" parent="2" target="CFzgTbQgZ9hoMS-vuHT--94" edge="1">
                    <mxGeometry relative="1" as="geometry">
                        <mxPoint x="280.0000000000002" y="109" as="sourcePoint"/>
                        <Array as="points">
                            <mxPoint x="280" y="163"/>
                            <mxPoint x="380" y="163"/>
                            <mxPoint x="380" y="228"/>
                        </Array>
                    </mxGeometry>
                </mxCell>
                <mxCell id="CFzgTbQgZ9hoMS-vuHT--93" style="edgeStyle=orthogonalEdgeStyle;rounded=0;orthogonalLoop=1;jettySize=auto;html=1;entryX=0;entryY=0.5;entryDx=0;entryDy=0;entryPerimeter=0;endArrow=classic;endFill=1;strokeWidth=1;exitX=0.5;exitY=1;exitDx=0;exitDy=0;exitPerimeter=0;" parent="2" target="CFzgTbQgZ9hoMS-vuHT--95" edge="1">
                    <mxGeometry relative="1" as="geometry">
                        <mxPoint x="280.0000000000002" y="109" as="sourcePoint"/>
                        <Array as="points">
                            <mxPoint x="280" y="163"/>
                            <mxPoint x="380" y="163"/>
                            <mxPoint x="380" y="178"/>
                        </Array>
                    </mxGeometry>
                </mxCell>
                <mxCell id="CFzgTbQgZ9hoMS-vuHT--94" value="Track" style="shape=display;whiteSpace=wrap;html=1;" parent="2" vertex="1">
                    <mxGeometry x="440" y="208.4000000000001" width="80" height="40" as="geometry"/>
                </mxCell>
                <mxCell id="CFzgTbQgZ9hoMS-vuHT--95" value="Boxplot" style="shape=display;whiteSpace=wrap;html=1;" parent="2" vertex="1">
                    <mxGeometry x="441" y="158.4000000000001" width="80" height="40" as="geometry"/>
                </mxCell>
                <mxCell id="CFzgTbQgZ9hoMS-vuHT--102" value="" style="rounded=1;whiteSpace=wrap;html=1;fillColor=#D9D9D9;sketch=1;strokeColor=none;" parent="2" vertex="1">
                    <mxGeometry width="579" height="250" as="geometry"/>
                </mxCell>
                <mxCell id="CFzgTbQgZ9hoMS-vuHT--103" value="DEPRECATED" style="text;html=1;strokeColor=none;fillColor=none;align=center;verticalAlign=middle;whiteSpace=wrap;rounded=0;sketch=1;fontColor=#666666;" parent="2" vertex="1">
                    <mxGeometry x="490" y="17" width="60" height="30" as="geometry"/>
                </mxCell>
                <mxCell id="6" value="" style="edgeStyle=none;html=1;" parent="1" source="3" target="5" edge="1">
                    <mxGeometry relative="1" as="geometry"/>
                </mxCell>
                <mxCell id="3" value="Calcule time traveling" style="rounded=1;whiteSpace=wrap;html=1;absoluteArcSize=1;arcSize=14;strokeWidth=2;" parent="1" vertex="1">
                    <mxGeometry x="350" y="1400" width="100" height="70" as="geometry"/>
                </mxCell>
                <mxCell id="13" style="edgeStyle=none;html=1;entryX=0.5;entryY=0;entryDx=0;entryDy=0;" parent="1" source="5" target="CFzgTbQgZ9hoMS-vuHT--119" edge="1">
                    <mxGeometry relative="1" as="geometry"/>
                </mxCell>
                <mxCell id="5" value="Calcule direction in degrees" style="rounded=1;whiteSpace=wrap;html=1;absoluteArcSize=1;arcSize=14;strokeWidth=2;" parent="1" vertex="1">
                    <mxGeometry x="350" y="1500" width="100" height="70" as="geometry"/>
                </mxCell>
                <mxCell id="17" value="" style="edgeStyle=none;html=1;fillColor=#f5f5f5;strokeColor=#666666;exitX=0.5;exitY=0.5;exitDx=0;exitDy=0;exitPerimeter=0;" parent="1" source="16" target="CFzgTbQgZ9hoMS-vuHT--119" edge="1">
                    <mxGeometry relative="1" as="geometry"/>
                </mxCell>
                <mxCell id="16" value="&lt;span&gt;0º - 360º&lt;/span&gt;&lt;br&gt;&lt;span&gt;a&lt;/span&gt;&lt;br&gt;&lt;span&gt;0 - 1&lt;/span&gt;" style="ellipse;shape=cloud;whiteSpace=wrap;html=1;fillColor=#f5f5f5;fontColor=#333333;strokeColor=#666666;" parent="1" vertex="1">
                    <mxGeometry x="490" y="1596" width="120" height="80" as="geometry"/>
                </mxCell>
                <mxCell id="42" style="edgeStyle=none;html=1;entryX=0.5;entryY=0;entryDx=0;entryDy=0;fontSize=10;fontColor=#000000;" parent="1" source="18" target="33" edge="1">
                    <mxGeometry relative="1" as="geometry"/>
                </mxCell>
                <mxCell id="18" value="Select columns" style="rounded=1;whiteSpace=wrap;html=1;absoluteArcSize=1;arcSize=14;strokeWidth=2;" parent="1" vertex="1">
                    <mxGeometry x="350" y="1770" width="100" height="70" as="geometry"/>
                </mxCell>
                <mxCell id="20" value="" style="edgeStyle=none;html=1;strokeColor=#666666;fillColor=#f5f5f5;exitX=0.5;exitY=0.5;exitDx=0;exitDy=0;exitPerimeter=0;" parent="1" source="21" target="18" edge="1">
                    <mxGeometry relative="1" as="geometry">
                        <mxPoint x="490.0000000000002" y="1805" as="sourcePoint"/>
                    </mxGeometry>
                </mxCell>
                <mxCell id="21" value="&lt;span style=&quot;color: rgb(0 , 0 , 0) ; font-family: &amp;#34;menlo&amp;#34; , &amp;#34;monaco&amp;#34; , &amp;#34;courier new&amp;#34; , monospace ; font-size: 10px&quot;&gt;lon&lt;/span&gt;&lt;span style=&quot;color: rgb(0 , 0 , 0) ; font-family: &amp;#34;menlo&amp;#34; , &amp;#34;monaco&amp;#34; , &amp;#34;courier new&amp;#34; , monospace ; font-size: 10px&quot;&gt;,&lt;/span&gt;&lt;span style=&quot;color: rgb(0 , 0 , 0) ; font-family: &amp;#34;menlo&amp;#34; , &amp;#34;monaco&amp;#34; , &amp;#34;courier new&amp;#34; , monospace ; font-size: 10px&quot;&gt;lat&lt;/span&gt;&lt;span style=&quot;color: rgb(0 , 0 , 0) ; font-family: &amp;#34;menlo&amp;#34; , &amp;#34;monaco&amp;#34; , &amp;#34;courier new&amp;#34; , monospace ; font-size: 10px&quot;&gt;,&lt;span style=&quot;background-color: rgb(235 , 238 , 245)&quot;&gt;&lt;br&gt;&lt;/span&gt;&lt;/span&gt;&lt;span style=&quot;color: rgb(0 , 0 , 0) ; font-family: &amp;#34;menlo&amp;#34; , &amp;#34;monaco&amp;#34; , &amp;#34;courier new&amp;#34; , monospace ; font-size: 10px&quot;&gt;temp_gradient&lt;/span&gt;&lt;span style=&quot;color: rgb(0 , 0 , 0) ; font-family: &amp;#34;menlo&amp;#34; , &amp;#34;monaco&amp;#34; , &amp;#34;courier new&amp;#34; , monospace ; font-size: 10px&quot;&gt;,&lt;span style=&quot;background-color: rgb(235 , 238 , 245)&quot;&gt;&lt;br&gt;&lt;/span&gt;&lt;/span&gt;&lt;span style=&quot;color: rgb(0 , 0 , 0) ; font-family: &amp;#34;menlo&amp;#34; , &amp;#34;monaco&amp;#34; , &amp;#34;courier new&amp;#34; , monospace ; font-size: 10px&quot;&gt;time_travel&lt;/span&gt;&lt;span style=&quot;color: rgb(0 , 0 , 0) ; font-family: &amp;#34;menlo&amp;#34; , &amp;#34;monaco&amp;#34; , &amp;#34;courier new&amp;#34; , monospace ; font-size: 10px&quot;&gt;,&lt;span style=&quot;background-color: rgb(235 , 238 , 245)&quot;&gt;&lt;br&gt;&lt;/span&gt;&lt;/span&gt;&lt;span style=&quot;color: rgb(0 , 0 , 0) ; font-family: &amp;#34;menlo&amp;#34; , &amp;#34;monaco&amp;#34; , &amp;#34;courier new&amp;#34; , monospace ; font-size: 10px&quot;&gt;direction&lt;/span&gt;" style="ellipse;shape=cloud;whiteSpace=wrap;html=1;fillColor=#f5f5f5;fontColor=#333333;strokeColor=#666666;" parent="1" vertex="1">
                    <mxGeometry x="490" y="1765" width="120" height="80" as="geometry"/>
                </mxCell>
                <mxCell id="22" style="edgeStyle=orthogonalEdgeStyle;rounded=0;orthogonalLoop=1;jettySize=auto;html=1;entryX=0;entryY=0.5;entryDx=0;entryDy=0;exitX=0.5;exitY=1;exitDx=0;exitDy=0;" parent="1" source="18" target="23" edge="1">
                    <mxGeometry relative="1" as="geometry">
                        <mxPoint x="400" y="1850.0000000000005" as="sourcePoint"/>
                        <Array as="points">
                            <mxPoint x="400" y="1880"/>
                        </Array>
                    </mxGeometry>
                </mxCell>
                <mxCell id="23" value="&lt;span&gt;*_final.csv&lt;/span&gt;" style="shape=image;html=1;verticalAlign=top;verticalLabelPosition=bottom;labelBackgroundColor=#ffffff;imageAspect=0;aspect=fixed;image=https://cdn2.iconfinder.com/data/icons/simple-files/128/csv1.png" parent="1" vertex="1">
                    <mxGeometry x="560" y="1855" width="50" height="50" as="geometry"/>
                </mxCell>
                <mxCell id="28" value="" style="group" parent="1" vertex="1" connectable="0">
                    <mxGeometry x="140" y="1740" width="170" height="220" as="geometry"/>
                </mxCell>
                <mxCell id="29" value="" style="strokeWidth=2;html=1;shape=mxgraph.flowchart.annotation_2;align=left;labelPosition=right;pointerEvents=1;" parent="28" vertex="1">
                    <mxGeometry x="150" width="20" height="200" as="geometry"/>
                </mxCell>
                <mxCell id="30" value="" style="edgeStyle=orthogonalEdgeStyle;rounded=0;orthogonalLoop=1;jettySize=auto;html=1;endArrow=none;endFill=0;strokeWidth=2;" parent="28" source="31" target="29" edge="1">
                    <mxGeometry relative="1" as="geometry"/>
                </mxCell>
                <mxCell id="31" value="STEP 6" style="shape=step;perimeter=stepPerimeter;whiteSpace=wrap;html=1;fixedSize=1;align=center;strokeWidth=2;" parent="28" vertex="1">
                    <mxGeometry y="60" width="120" height="80" as="geometry"/>
                </mxCell>
                <mxCell id="46" value="" style="edgeStyle=none;html=1;fontSize=10;fontColor=#000000;" parent="1" source="33" target="43" edge="1">
                    <mxGeometry relative="1" as="geometry"/>
                </mxCell>
                <mxCell id="33" value="Compose dataset" style="rounded=1;whiteSpace=wrap;html=1;absoluteArcSize=1;arcSize=14;strokeWidth=2;" parent="1" vertex="1">
                    <mxGeometry x="350" y="1980" width="100" height="70" as="geometry"/>
                </mxCell>
                <mxCell id="36" style="edgeStyle=orthogonalEdgeStyle;rounded=0;orthogonalLoop=1;jettySize=auto;html=1;entryX=0;entryY=0.5;entryDx=0;entryDy=0;exitX=0.5;exitY=1;exitDx=0;exitDy=0;" parent="1" source="33" target="37" edge="1">
                    <mxGeometry relative="1" as="geometry">
                        <mxPoint x="400" y="2060.0000000000005" as="sourcePoint"/>
                        <Array as="points">
                            <mxPoint x="400" y="2060"/>
                        </Array>
                    </mxGeometry>
                </mxCell>
                <mxCell id="37" value="&lt;span&gt;dataset.csv&lt;/span&gt;" style="shape=image;html=1;verticalAlign=top;verticalLabelPosition=bottom;labelBackgroundColor=#ffffff;imageAspect=0;aspect=fixed;image=https://cdn2.iconfinder.com/data/icons/simple-files/128/csv1.png" parent="1" vertex="1">
                    <mxGeometry x="561" y="2035" width="50" height="50" as="geometry"/>
                </mxCell>
                <mxCell id="38" value="" style="group" parent="1" vertex="1" connectable="0">
                    <mxGeometry x="140" y="1950" width="170" height="350" as="geometry"/>
                </mxCell>
                <mxCell id="39" value="" style="strokeWidth=2;html=1;shape=mxgraph.flowchart.annotation_2;align=left;labelPosition=right;pointerEvents=1;" parent="38" vertex="1">
                    <mxGeometry x="150" width="20" height="350" as="geometry"/>
                </mxCell>
                <mxCell id="40" value="" style="edgeStyle=orthogonalEdgeStyle;rounded=0;orthogonalLoop=1;jettySize=auto;html=1;endArrow=none;endFill=0;strokeWidth=2;" parent="38" source="41" target="39" edge="1">
                    <mxGeometry relative="1" as="geometry"/>
                </mxCell>
                <mxCell id="41" value="STEP 7" style="shape=step;perimeter=stepPerimeter;whiteSpace=wrap;html=1;fixedSize=1;align=center;strokeWidth=2;" parent="38" vertex="1">
                    <mxGeometry y="135" width="120" height="80" as="geometry"/>
                </mxCell>
                <mxCell id="59" style="edgeStyle=none;html=1;entryX=0.5;entryY=0;entryDx=0;entryDy=0;" edge="1" parent="1" source="43" target="54">
                    <mxGeometry relative="1" as="geometry"/>
                </mxCell>
                <mxCell id="43" value="Split dataset into test - train" style="rounded=1;whiteSpace=wrap;html=1;absoluteArcSize=1;arcSize=14;strokeWidth=2;" parent="1" vertex="1">
                    <mxGeometry x="350" y="2090" width="100" height="70" as="geometry"/>
                </mxCell>
                <mxCell id="44" style="edgeStyle=orthogonalEdgeStyle;rounded=0;orthogonalLoop=1;jettySize=auto;html=1;entryX=0;entryY=0.5;entryDx=0;entryDy=0;exitX=0.5;exitY=1;exitDx=0;exitDy=0;" parent="1" source="43" target="45" edge="1">
                    <mxGeometry relative="1" as="geometry">
                        <mxPoint x="400" y="2170.0000000000005" as="sourcePoint"/>
                        <Array as="points">
                            <mxPoint x="400" y="2210"/>
                            <mxPoint x="480" y="2210"/>
                            <mxPoint x="480" y="2170"/>
                        </Array>
                    </mxGeometry>
                </mxCell>
                <mxCell id="45" value="&lt;span&gt;train.csv&lt;/span&gt;" style="shape=image;html=1;verticalAlign=top;verticalLabelPosition=bottom;labelBackgroundColor=#ffffff;imageAspect=0;aspect=fixed;image=https://cdn2.iconfinder.com/data/icons/simple-files/128/csv1.png" parent="1" vertex="1">
                    <mxGeometry x="561" y="2145" width="50" height="50" as="geometry"/>
                </mxCell>
                <mxCell id="47" style="edgeStyle=orthogonalEdgeStyle;rounded=0;orthogonalLoop=1;jettySize=auto;html=1;entryX=0;entryY=0.5;entryDx=0;entryDy=0;exitX=0.5;exitY=1;exitDx=0;exitDy=0;" parent="1" source="43" target="48" edge="1">
                    <mxGeometry relative="1" as="geometry">
                        <mxPoint x="399" y="2235" as="sourcePoint"/>
                        <Array as="points">
                            <mxPoint x="400" y="2210"/>
                            <mxPoint x="480" y="2210"/>
                            <mxPoint x="480" y="2245"/>
                        </Array>
                    </mxGeometry>
                </mxCell>
                <mxCell id="48" value="&lt;span&gt;test.csv&lt;/span&gt;" style="shape=image;html=1;verticalAlign=top;verticalLabelPosition=bottom;labelBackgroundColor=#ffffff;imageAspect=0;aspect=fixed;image=https://cdn2.iconfinder.com/data/icons/simple-files/128/csv1.png" parent="1" vertex="1">
                    <mxGeometry x="560" y="2220" width="50" height="50" as="geometry"/>
                </mxCell>
                <mxCell id="54" value="Normalize datasets&lt;br&gt;(test - train)&lt;br&gt;separately" style="rounded=1;whiteSpace=wrap;html=1;absoluteArcSize=1;arcSize=14;strokeWidth=2;" vertex="1" parent="1">
                    <mxGeometry x="348" y="2312" width="100" height="70" as="geometry"/>
                </mxCell>
                <mxCell id="55" style="edgeStyle=orthogonalEdgeStyle;rounded=0;orthogonalLoop=1;jettySize=auto;html=1;entryX=0;entryY=0.5;entryDx=0;entryDy=0;exitX=0.5;exitY=1;exitDx=0;exitDy=0;" edge="1" parent="1" source="54" target="56">
                    <mxGeometry relative="1" as="geometry">
                        <mxPoint x="398" y="2392.0000000000005" as="sourcePoint"/>
                        <Array as="points">
                            <mxPoint x="398" y="2432"/>
                            <mxPoint x="478" y="2432"/>
                            <mxPoint x="478" y="2392"/>
                        </Array>
                    </mxGeometry>
                </mxCell>
                <mxCell id="56" value="&lt;span&gt;train.csv&lt;/span&gt;" style="shape=image;html=1;verticalAlign=top;verticalLabelPosition=bottom;labelBackgroundColor=#ffffff;imageAspect=0;aspect=fixed;image=https://cdn2.iconfinder.com/data/icons/simple-files/128/csv1.png" vertex="1" parent="1">
                    <mxGeometry x="559" y="2367" width="50" height="50" as="geometry"/>
                </mxCell>
                <mxCell id="57" style="edgeStyle=orthogonalEdgeStyle;rounded=0;orthogonalLoop=1;jettySize=auto;html=1;entryX=0;entryY=0.5;entryDx=0;entryDy=0;exitX=0.5;exitY=1;exitDx=0;exitDy=0;" edge="1" parent="1" source="54" target="58">
                    <mxGeometry relative="1" as="geometry">
                        <mxPoint x="397" y="2457" as="sourcePoint"/>
                        <Array as="points">
                            <mxPoint x="398" y="2432"/>
                            <mxPoint x="478" y="2432"/>
                            <mxPoint x="478" y="2467"/>
                        </Array>
                    </mxGeometry>
                </mxCell>
                <mxCell id="58" value="&lt;span&gt;test.csv&lt;/span&gt;" style="shape=image;html=1;verticalAlign=top;verticalLabelPosition=bottom;labelBackgroundColor=#ffffff;imageAspect=0;aspect=fixed;image=https://cdn2.iconfinder.com/data/icons/simple-files/128/csv1.png" vertex="1" parent="1">
                    <mxGeometry x="558" y="2442" width="50" height="50" as="geometry"/>
                </mxCell>
                <mxCell id="60" value="" style="group" vertex="1" connectable="0" parent="1">
                    <mxGeometry x="140" y="2310" width="170" height="220" as="geometry"/>
                </mxCell>
                <mxCell id="61" value="" style="strokeWidth=2;html=1;shape=mxgraph.flowchart.annotation_2;align=left;labelPosition=right;pointerEvents=1;" vertex="1" parent="60">
                    <mxGeometry x="150" width="20" height="200" as="geometry"/>
                </mxCell>
                <mxCell id="62" value="" style="edgeStyle=orthogonalEdgeStyle;rounded=0;orthogonalLoop=1;jettySize=auto;html=1;endArrow=none;endFill=0;strokeWidth=2;" edge="1" parent="60" source="63" target="61">
                    <mxGeometry relative="1" as="geometry"/>
                </mxCell>
                <mxCell id="63" value="STEP 8" style="shape=step;perimeter=stepPerimeter;whiteSpace=wrap;html=1;fixedSize=1;align=center;strokeWidth=2;" vertex="1" parent="60">
                    <mxGeometry y="60" width="120" height="80" as="geometry"/>
                </mxCell>
            </root>
        </mxGraphModel>
    </diagram>
</mxfile>